<svg width="500" height="500" viewBox="0 0 500 500" fill="none" xmlns="http://www.w3.org/2000/svg">
<path d="M249.05 478.8C371.271 478.8 470.35 427.349 470.35 363.88C470.35 300.411 371.271 248.96 249.05 248.96C126.829 248.96 27.75 300.411 27.75 363.88C27.75 427.349 126.829 478.8 249.05 478.8Z" fill="#F5F5F5"/>
<path d="M406.49 407.45C431.939 407.45 452.57 396.32 452.57 382.59C452.57 368.861 431.939 357.73 406.49 357.73C381.041 357.73 360.41 368.861 360.41 382.59C360.41 396.32 381.041 407.45 406.49 407.45Z" fill="#EBEBEB"/>
<g opacity="0.8">
<path d="M73.5905 410.099C72.0792 410.141 70.5822 409.796 69.2405 409.099L54.3905 400.519C53.8278 400.3 53.3444 399.916 53.0036 399.417C52.6628 398.918 52.4805 398.329 52.4805 397.724C52.4805 397.12 52.6628 396.531 53.0036 396.032C53.3444 395.533 53.8278 395.149 54.3905 394.929L146.091 341.999C147.432 341.304 148.92 340.941 150.431 340.941C151.941 340.941 153.429 341.304 154.771 341.999L169.631 350.569C170.196 350.787 170.683 351.171 171.026 351.671C171.37 352.171 171.553 352.763 171.553 353.369C171.553 353.976 171.37 354.568 171.026 355.068C170.683 355.568 170.196 355.952 169.631 356.169L77.9305 409.049C76.5966 409.763 75.1029 410.124 73.5905 410.099ZM150.431 341.999C149.094 341.972 147.772 342.285 146.591 342.909L54.8905 395.799C54.5005 395.965 54.161 396.231 53.9065 396.57C53.6519 396.909 53.4912 397.309 53.4405 397.729C53.4931 398.15 53.6546 398.549 53.9089 398.887C54.1633 399.226 54.5016 399.492 54.8905 399.659L69.7405 408.229C70.9324 408.833 72.2496 409.148 73.5855 409.148C74.9215 409.148 76.2387 408.833 77.4305 408.229V408.229L169.131 355.349C169.554 355.234 169.928 354.983 170.195 354.634C170.462 354.285 170.606 353.859 170.606 353.419C170.606 352.98 170.462 352.554 170.195 352.205C169.928 351.856 169.554 351.605 169.131 351.489L154.271 342.909C153.089 342.284 151.767 341.97 150.431 341.999V341.999Z" fill="#241E92"/>
</g>
<path d="M181.151 414.6C179.638 414.622 178.144 414.257 176.811 413.54L123.301 382.65C123.244 382.617 123.194 382.574 123.153 382.522C123.113 382.471 123.084 382.411 123.067 382.348C123.05 382.284 123.046 382.218 123.056 382.153C123.065 382.088 123.087 382.026 123.121 381.97C123.188 381.856 123.296 381.773 123.423 381.738C123.549 381.703 123.685 381.717 123.801 381.78L177.311 412.68C178.503 413.281 179.82 413.594 181.156 413.594C182.492 413.594 183.808 413.281 185.001 412.68L357.301 313.2C357.69 313.034 358.029 312.768 358.282 312.429C358.535 312.09 358.693 311.69 358.741 311.27C358.69 310.85 358.531 310.451 358.278 310.113C358.025 309.774 357.689 309.508 357.301 309.34L312.141 283.27C312.041 283.197 311.971 283.089 311.946 282.968C311.92 282.847 311.941 282.721 312.003 282.614C312.065 282.507 312.165 282.427 312.283 282.389C312.4 282.351 312.528 282.359 312.641 282.41L357.801 308.48C358.364 308.699 358.847 309.083 359.188 309.582C359.529 310.081 359.711 310.671 359.711 311.275C359.711 311.879 359.529 312.469 359.188 312.967C358.847 313.466 358.364 313.85 357.801 314.07L185.501 413.54C184.165 414.258 182.668 414.623 181.151 414.6V414.6Z" fill="#241E92"/>
<path d="M300.2 280.229C301.389 280.836 302.705 281.152 304.04 281.152C305.375 281.152 306.691 280.836 307.88 280.229C310 279.009 310 277.019 307.88 275.799C306.69 275.198 305.374 274.885 304.04 274.885C302.706 274.885 301.391 275.198 300.2 275.799C298.08 276.999 298.08 278.999 300.2 280.229Z" fill="#455A64"/>
<path d="M304 284.669C301.285 284.721 298.6 284.081 296.2 282.809V282.809C294.02 281.549 292.82 279.809 292.82 278.019C292.82 276.229 294.02 274.479 296.2 273.229C300.5 270.739 307.5 270.749 311.8 273.229C313.97 274.479 315.17 276.229 315.17 278.019C315.17 279.809 313.97 281.549 311.8 282.809C309.4 284.081 306.716 284.721 304 284.669ZM296.7 281.939C298.962 283.088 301.463 283.687 304 283.687C306.537 283.687 309.038 283.088 311.3 281.939C313.15 280.869 314.17 279.479 314.17 278.019C314.17 276.559 313.17 275.159 311.3 274.089C309.037 272.945 306.536 272.349 304 272.349C301.464 272.349 298.964 272.945 296.7 274.089C294.84 275.159 293.82 276.559 293.82 278.019C293.82 279.479 294.82 280.869 296.7 281.939Z" fill="#455A64"/>
<path d="M119.711 384.429C120.9 385.036 122.216 385.352 123.551 385.352C124.886 385.352 126.202 385.036 127.391 384.429C129.511 383.209 129.511 381.219 127.391 379.999C126.202 379.392 124.886 379.076 123.551 379.076C122.216 379.076 120.9 379.392 119.711 379.999C117.591 381.219 117.591 383.209 119.711 384.429Z" fill="#455A64"/>
<path d="M304.001 278.519C303.868 278.519 303.741 278.467 303.647 278.373C303.554 278.279 303.501 278.152 303.501 278.019V111.859C303.501 111.727 303.554 111.6 303.647 111.506C303.741 111.412 303.868 111.359 304.001 111.359C304.133 111.362 304.258 111.415 304.352 111.509C304.445 111.602 304.498 111.728 304.501 111.859V277.999C304.502 278.066 304.49 278.133 304.466 278.195C304.442 278.258 304.405 278.315 304.359 278.363C304.312 278.411 304.257 278.45 304.195 278.477C304.134 278.504 304.068 278.518 304.001 278.519V278.519Z" fill="#241E92"/>
<path d="M354.32 62.2996L341.32 54.8096C339.58 53.6496 337.26 53.6596 334.69 55.1396L333.76 55.6796C334.018 53.8575 334.148 52.0198 334.15 50.1796C334.172 47.7336 333.886 45.2945 333.3 42.9196L340 41.2896L327.14 33.8596C323.61 31.8596 319 32.0096 313.96 34.9196C308.92 37.8296 304.07 43.2196 300.5 49.5496C300.46 46.3109 299.955 43.0948 299 39.9996L304.85 37.7596L292.42 30.6096C287.87 27.6096 281.78 27.6596 275.07 31.5296C261 39.6796 249.58 61.4796 249.58 80.2596C249.571 82.3388 249.728 84.4154 250.05 86.4696L248.29 87.4696C239.29 92.6396 232.07 106.47 232.07 118.47C232.07 125.06 234.29 129.76 237.78 131.79L250.78 139.3L252.93 128.3L271.87 117.36L334.71 81.0996C340.05 78.0296 344.37 69.8096 344.44 62.6796L352 66.7396L354.32 62.2996Z" fill="#241E92"/>
<path opacity="0.1" d="M354.32 62.2996L341.32 54.8096C339.58 53.6496 337.26 53.6596 334.69 55.1396L333.76 55.6796C334.018 53.8575 334.148 52.0198 334.15 50.1796C334.172 47.7336 333.886 45.2945 333.3 42.9196L340 41.2896L327.14 33.8596C323.61 31.8596 319 32.0096 313.96 34.9196C308.92 37.8296 304.07 43.2196 300.5 49.5496C300.46 46.3109 299.955 43.0948 299 39.9996L304.85 37.7596L292.42 30.6096C287.87 27.6096 281.78 27.6596 275.07 31.5296C261 39.6796 249.58 61.4796 249.58 80.2596C249.571 82.3388 249.728 84.4154 250.05 86.4696L248.29 87.4696C239.29 92.6396 232.07 106.47 232.07 118.47C232.07 125.06 234.29 129.76 237.78 131.79L250.78 139.3L252.93 128.3L271.87 117.36L334.71 81.0996C340.05 78.0296 344.37 69.8096 344.44 62.6796L352 66.7396L354.32 62.2996Z" fill="white"/>
<path d="M327.181 33.8599C323.651 31.8599 319.041 32.0099 314.001 34.9199C311.545 36.3806 309.307 38.1781 307.351 40.2599L323.941 49.8999L333.811 45.4199C333.681 44.5499 333.521 43.7099 333.321 42.9199L340.001 41.2899L327.181 33.8599Z" fill="#241E92"/>
<path d="M299.58 42.0701C299.41 41.3601 299.22 40.6701 299 40.0101L304 38.1201L304.58 37.5901L292.47 30.5901C287.92 27.5901 281.83 27.6401 275.12 31.5101C268.73 35.2001 262.9 41.7101 258.42 49.5101L278.58 61.1401L299.58 42.0701Z" fill="#241E92"/>
<path d="M250.05 86.4697L244.71 90.0897C239.846 94.643 236.213 100.354 234.15 106.69L249.33 115.45L263 93.9997L250.05 86.4697Z" fill="#241E92"/>
<path opacity="0.4" d="M327.181 33.8599C323.651 31.8599 319.041 32.0099 314.001 34.9199C311.545 36.3806 309.307 38.1781 307.351 40.2599L323.941 49.8999L333.811 45.4199C333.681 44.5499 333.521 43.7099 333.321 42.9199L340.001 41.2899L327.181 33.8599Z" fill="white"/>
<path opacity="0.4" d="M299.58 42.0701C299.41 41.3601 299.22 40.6701 299 40.0101L304 38.1201L304.58 37.5901L292.47 30.5901C287.92 27.5901 281.83 27.6401 275.12 31.5101C268.73 35.2001 262.9 41.7101 258.42 49.5101L278.58 61.1401L299.58 42.0701Z" fill="white"/>
<path opacity="0.4" d="M250.05 86.4697L244.71 90.0897C239.846 94.643 236.213 100.354 234.15 106.69L249.33 115.45L263 93.9997L250.05 86.4697Z" fill="white"/>
<path d="M347.69 62.6502L346.76 63.1902C347.017 61.3648 347.147 59.5237 347.15 57.6802C347.15 42.8302 338.15 36.0002 326.97 42.4302C321.8 45.4302 317.09 50.7302 313.52 57.0502C313.02 39.1602 301.81 31.1002 288.05 39.0502C274 47.1702 262.56 69.0002 262.56 87.7502C262.539 89.8419 262.686 91.9319 263 94.0002L261.24 95.0002C252.24 100.17 245.02 114 245.02 126C245.02 137.95 252.28 143.7 261.24 138.52L284.83 124.91L347.69 88.6002C353.07 85.5002 357.42 77.1702 357.42 70.0102C357.42 62.8402 353.07 59.5502 347.69 62.6502Z" fill="#241E92"/>
<path opacity="0.6" d="M347.69 62.6502L346.76 63.1902C347.017 61.3648 347.147 59.5237 347.15 57.6802C347.15 42.8302 338.15 36.0002 326.97 42.4302C321.8 45.4302 317.09 50.7302 313.52 57.0502C313.02 39.1602 301.81 31.1002 288.05 39.0502C274 47.1702 262.56 69.0002 262.56 87.7502C262.539 89.8419 262.686 91.9319 263 94.0002L261.24 95.0002C252.24 100.17 245.02 114 245.02 126C245.02 137.95 252.28 143.7 261.24 138.52L284.83 124.91L347.69 88.6002C353.07 85.5002 357.42 77.1702 357.42 70.0102C357.42 62.8402 353.07 59.5502 347.69 62.6502Z" fill="white"/>
<path d="M412.94 183H414.24C419.186 183 423.93 181.035 427.427 177.538C430.925 174.04 432.89 169.296 432.89 164.35V164.35C432.895 161.812 432.4 159.297 431.432 156.95C430.465 154.604 429.044 152.471 427.252 150.673C425.459 148.876 423.33 147.45 420.986 146.477C418.641 145.503 416.128 145.001 413.59 145V145C408.84 145 404.284 146.887 400.925 150.246C397.567 153.604 395.68 158.16 395.68 162.91V165.7C395.674 167.97 396.117 170.219 396.982 172.317C397.847 174.416 399.118 176.324 400.721 177.931C402.324 179.538 404.229 180.812 406.325 181.682C408.422 182.552 410.67 183 412.94 183Z" fill="#263238"/>
<path d="M444.89 196.399C441.118 196.399 437.5 194.901 434.832 192.235C432.163 189.568 430.663 185.952 430.66 182.179V164.529C434.434 164.529 438.054 166.029 440.722 168.697C443.391 171.366 444.89 174.985 444.89 178.759V196.399Z" fill="#263238"/>
<path d="M381.19 236.71C380.07 238.98 376.71 242.29 372.76 238.02C366.99 231.79 357.49 209.65 357.49 209.65L363.74 206.76L376.47 224.15L381.19 236.71" fill="#FFA8A7"/>
<path d="M392.33 198C387.38 205.54 374.71 228.36 374.71 228.36L379.86 238.59C379.86 238.59 386.02 230.23 389.26 225.64C393.01 220.34 399.37 210.14 399.37 210.14C399.37 210.14 398.62 194.91 401.76 192.25C403.456 190.749 405.416 189.575 407.54 188.79C402.55 189 397.58 189.94 392.33 198Z" fill="#FFA8A7"/>
<path d="M368.78 195.65C367.12 192.56 366.71 192.42 365.78 191.74C364.85 191.06 358.73 190.16 356.22 189.95C353.27 189.7 352.22 190.24 353.04 192.79C354.8 198.23 360.13 209.79 361.33 211.37C362.11 212.37 362.27 213.37 365.59 213.72C368.7 214.02 372.59 214.19 373.74 214.26C374.89 214.33 376.47 214.61 375.44 211.26C374.118 207.426 372.589 203.667 370.86 200C369.58 197.26 368.78 195.65 368.78 195.65Z" fill="#263238"/>
<path d="M357.49 209.65C356.25 204.19 352.62 199.15 354.67 197.3L355.77 199.72C355.77 199.72 362.57 201.35 365.85 201.1C369.13 200.85 371.85 200.1 372.71 200.7C374.62 202.04 375.16 207.76 369.71 209.84C365.07 211.6 357.49 209.65 357.49 209.65Z" fill="#FFA8A7"/>
<path d="M426.07 375.09V373.85C425.58 375.3 423.31 381.57 419.86 384.71C417.13 387.21 413.39 390.09 412.44 392.87C411.49 395.65 417.64 396.74 420.2 396.29C423.2 395.76 427.01 394.08 429.11 391.51C430.58 389.7 431.51 387.56 432.56 386.13C433.61 384.7 436.04 383.13 436.56 381.48C436.88 380.58 436.51 378.6 436.07 376.93C435.63 375.26 435.23 373.7 434.71 373.85C434.71 374.04 434.71 374.79 434.71 374.79C433.475 375.764 431.942 376.283 430.37 376.26C429.14 376.31 426.06 376.06 426.07 375.09Z" fill="#263238"/>
<path d="M417.39 386.91C418.24 386.15 419.09 385.41 419.86 384.7C422.27 382.51 424.1 378.79 425.16 376.25C425.76 374.802 426.07 373.249 426.07 371.68V366.73H434.75V374.79V375H434.7C434.28 376.81 430.3 381.6 428.04 384.73C426.52 386.83 423.64 389.5 420.2 389.96C416.93 390.41 415.27 389.38 417.39 386.91Z" fill="#FFA8A7"/>
<path d="M392.22 366.53V365.29C391.73 366.75 389.46 373.02 386.02 376.16C383.28 378.65 379.54 381.54 378.59 384.32C377.64 387.1 383.79 388.19 386.35 387.74C389.35 387.21 393.16 385.52 395.26 382.95C396.73 381.14 397.66 379 398.71 377.58C399.76 376.16 402.19 374.58 402.76 372.93C403.07 372.02 402.7 370.04 402.26 368.37C401.82 366.7 401.42 365.15 400.9 365.29C400.9 365.48 400.9 366.24 400.9 366.24C399.663 367.21 398.132 367.729 396.56 367.71C395.29 367.75 392.21 367.5 392.22 366.53Z" fill="#263238"/>
<path d="M383.54 378.35L386.02 376.15C388.42 373.95 390.25 370.23 391.31 367.69C391.91 366.244 392.22 364.695 392.22 363.13V358.18H400.9V366.23V366.45C400.48 368.25 396.5 373.05 394.24 376.18C392.72 378.27 389.84 380.94 386.4 381.4C383.08 381.86 381.42 380.83 383.54 378.35Z" fill="#FFA8A7"/>
<path d="M433 240.22C439.73 254.92 432.76 306.68 432.76 306.68C432.96 309.06 435.68 313.76 436.7 324.25C437.9 336.65 434.82 367.79 434.82 367.79C433.497 368.556 432.006 368.988 430.478 369.049C428.951 369.11 427.431 368.798 426.05 368.14C426.05 368.14 417.78 321.24 416.22 308.91C414.86 298.15 412.22 274.49 412.22 274.49L404.82 308.85C405.901 312.317 406.684 315.87 407.16 319.47C407.86 326.73 400.84 360.47 400.84 360.47C400.84 360.47 397.84 361.57 392.16 360.73C392.16 360.73 389.67 315.92 389.02 307.19C387.92 292.52 391.81 246.74 394.51 238.05L433 240.22Z" fill="#241E92"/>
<path opacity="0.1" d="M412.28 274.49L410.09 260.85C410.09 260.85 400.85 258.93 396.66 254.99C396.66 254.99 401.06 260.46 407.59 262.25L410 272.76L405.72 304.58L412.28 274.49Z" fill="#252525"/>
<path d="M421.15 189.17C429.78 189.77 430.38 193.93 432.54 198.49C434.118 202.002 434.265 205.991 432.95 209.61L426.95 226.99C426.95 226.99 429.76 233.8 433.03 240.22C417.94 248.64 399.11 244.22 394.58 238.07C394.38 236.77 392.91 209.07 394.03 204.64C396.11 196.46 404.19 188.49 407.76 188.78L421.15 189.17Z" fill="#37474F"/>
<path d="M434.84 161.23L431.37 165.6C431.644 165.843 431.965 166.027 432.313 166.142C432.661 166.257 433.028 166.299 433.393 166.268C433.758 166.236 434.112 166.13 434.435 165.957C434.758 165.784 435.042 165.547 435.27 165.26C435.732 164.663 435.944 163.91 435.864 163.159C435.784 162.408 435.417 161.717 434.84 161.23V161.23Z" fill="#263238"/>
<path d="M400.549 155.4C399.549 155.9 397.009 160.81 397.259 171.56C397.469 180.67 400.419 182.92 401.909 183.56C403.399 184.2 406.249 183.82 409.029 183.35V188.82C409.029 188.82 405.189 193.29 405.429 195.82C405.669 198.35 410.979 198.92 414.579 196.47C416.908 194.793 418.908 192.701 420.479 190.3V177.06C420.479 177.06 422.349 179.56 425.419 177.53C428.489 175.5 428.609 170.44 426.829 168.63C425.049 166.82 421.189 167.39 420.479 169.89C420.479 169.89 415.969 170.69 409.929 166.8C403.409 162.6 401.399 159.26 400.549 155.4Z" fill="#FFA8A7"/>
<path d="M399.06 165.58L401.61 164.37C401.539 164.2 401.434 164.047 401.301 163.919C401.169 163.791 401.012 163.691 400.84 163.626C400.668 163.561 400.485 163.531 400.301 163.538C400.117 163.546 399.936 163.591 399.77 163.67C399.43 163.837 399.166 164.128 399.034 164.483C398.902 164.839 398.911 165.231 399.06 165.58V165.58Z" fill="#263238"/>
<path d="M409.6 164.78L411.98 166.28C412.087 166.129 412.161 165.959 412.2 165.778C412.238 165.598 412.239 165.411 412.202 165.23C412.166 165.049 412.093 164.878 411.987 164.726C411.882 164.575 411.747 164.447 411.59 164.35C411.266 164.153 410.879 164.088 410.509 164.168C410.139 164.248 409.813 164.467 409.6 164.78V164.78Z" fill="#263238"/>
<path d="M420.579 167.38L420.419 172.96C420.053 172.968 419.689 172.902 419.349 172.765C419.009 172.628 418.7 172.423 418.442 172.163C418.184 171.903 417.981 171.593 417.847 171.252C417.712 170.911 417.648 170.546 417.659 170.18C417.693 169.427 418.015 168.716 418.559 168.195C419.102 167.674 419.826 167.382 420.579 167.38Z" fill="#263238"/>
<path d="M408.45 168.92C408.43 169.078 408.442 169.238 408.487 169.39C408.531 169.543 408.607 169.684 408.709 169.806C408.811 169.928 408.937 170.027 409.079 170.097C409.221 170.168 409.377 170.208 409.535 170.216C409.694 170.224 409.852 170.198 410.001 170.142C410.149 170.085 410.284 169.998 410.397 169.887C410.51 169.776 410.599 169.642 410.658 169.495C410.717 169.347 410.745 169.189 410.74 169.03C410.751 168.878 410.731 168.725 410.683 168.58C410.634 168.435 410.558 168.301 410.458 168.186C410.357 168.071 410.235 167.977 410.098 167.909C409.961 167.841 409.812 167.801 409.66 167.79C409.35 167.782 409.05 167.896 408.823 168.108C408.597 168.319 408.463 168.611 408.45 168.92V168.92Z" fill="#263238"/>
<path d="M407.13 177L404.47 177.85C404.512 178.032 404.592 178.204 404.703 178.354C404.815 178.505 404.956 178.631 405.118 178.725C405.28 178.818 405.46 178.878 405.646 178.899C405.832 178.921 406.02 178.904 406.2 178.85C406.383 178.79 406.552 178.695 406.698 178.569C406.843 178.443 406.963 178.29 407.049 178.118C407.136 177.946 407.187 177.759 407.201 177.567C407.215 177.375 407.191 177.183 407.13 177V177Z" fill="#F28F8F"/>
<path d="M399.59 168.45C399.57 168.607 399.583 168.768 399.628 168.92C399.673 169.073 399.749 169.214 399.852 169.336C399.954 169.457 400.081 169.556 400.224 169.626C400.366 169.697 400.522 169.736 400.681 169.743C400.84 169.75 400.998 169.724 401.147 169.667C401.295 169.609 401.43 169.522 401.542 169.41C401.655 169.297 401.743 169.163 401.801 169.015C401.86 168.867 401.886 168.709 401.88 168.55C401.891 168.397 401.872 168.244 401.823 168.099C401.775 167.954 401.698 167.821 401.598 167.705C401.498 167.59 401.375 167.496 401.239 167.428C401.102 167.36 400.953 167.32 400.8 167.31C400.49 167.304 400.189 167.42 399.963 167.633C399.737 167.846 399.603 168.139 399.59 168.45Z" fill="#263238"/>
<path d="M405.19 167.79L405.01 174.69L401.38 173.56L405.19 167.79Z" fill="#F28F8F"/>
<path d="M409 183.36C411.93 182.98 418 181.25 418.9 178.86C418.516 180.051 417.781 181.097 416.79 181.86C414.98 183.4 409 185.14 409 185.14V183.36Z" fill="#F28F8F"/>
<path d="M417.29 241.85C418.471 241.58 419.587 241.076 420.571 240.368C421.555 239.66 422.388 238.763 423.02 237.729C423.653 236.695 424.072 235.545 424.254 234.347C424.436 233.148 424.377 231.926 424.08 230.75C424.04 230.591 423.99 230.434 423.93 230.28C423.711 229.657 423.293 229.122 422.74 228.761C422.186 228.399 421.529 228.23 420.87 228.28V228.28C421.839 227.64 422.672 226.814 423.319 225.849C423.966 224.884 424.415 223.8 424.64 222.66L426.48 211.76C426.699 209.987 426.539 208.187 426.01 206.48L432.08 199.48C432.08 199.48 432.51 199.79 433.2 200.26C434.113 203.341 434.025 206.632 432.95 209.66L426.95 227.04C426.95 227.04 429.76 233.85 433.03 240.27C428.122 242.909 422.706 244.465 417.147 244.834C411.587 245.203 406.013 244.377 400.8 242.41C406.283 243.265 411.878 243.075 417.29 241.85V241.85Z" fill="#263238"/>
<path d="M448.46 232.46C440.63 200.46 434.83 189.77 425.32 189.9C422.55 193.22 423.32 203.24 427.7 209.33C427.7 209.33 437.49 229.97 439.05 237.33C440.42 243.78 441.97 251.89 441.87 257.43C441.846 258.412 441.462 259.352 440.79 260.07C439 262.01 438.99 263.57 437.79 265.71C436.88 267.39 435.89 268.01 436.17 268.39C436.541 268.792 437.051 269.038 437.596 269.079C438.142 269.12 438.683 268.952 439.11 268.61C439.946 268.004 440.694 267.284 441.33 266.47C441.025 268.522 440.432 270.522 439.57 272.41C437.57 276.94 438.05 279.25 444.16 277.64C447.99 276.64 450.4 273.44 450.97 264.23C451.252 260.84 451.285 257.434 451.07 254.04C450.31 245.28 449.72 237.61 448.46 232.46Z" fill="#FFA8A7"/>
</svg>
