<svg width="2042" height="586" viewBox="0 0 2042 586" fill="none" xmlns="http://www.w3.org/2000/svg">
<g opacity="0.3">
<path d="M780.983 585.849C773.693 585.849 766.598 585.37 759.779 584.415C745.478 582.411 732.265 578.297 720.508 572.186C707.871 565.62 696.787 556.672 687.563 545.594C669.023 523.325 659.747 496.658 650.777 470.867C649.014 465.803 647.192 460.566 645.342 455.485C632.719 420.856 616.717 390.522 596.426 362.751C555.949 307.352 499.024 260.074 431.802 226.026C354.062 186.653 270.478 167.04 196.446 170.8C152.934 173.012 95.4418 194.04 69.7474 229.952C54.4988 251.265 53.2692 274.918 66.194 298.348L65.9373 298.447C59.1605 286.159 56.2078 273.84 57.1638 261.833C58.0409 250.818 62.1922 240.05 69.5048 229.829C81.1352 213.573 100.315 199.165 124.972 188.162C147.756 177.996 173.132 171.746 196.429 170.562C235.172 168.596 276.378 172.96 318.9 183.536C357.446 193.125 395.482 207.351 431.949 225.821C499.21 259.888 556.169 307.192 596.669 362.623C616.971 390.413 632.981 420.764 645.613 455.412C647.466 460.493 649.288 465.732 651.047 470.796C660.01 496.568 669.28 523.217 687.794 545.452C705.699 566.959 729.936 579.988 759.827 584.175C801.221 589.975 851.487 577.844 894.286 551.724C955.963 514.083 998.767 459.295 1040.16 406.314C1047.42 397.027 1054.92 387.424 1062.35 378.151C1081.63 354.072 1107.75 322.871 1138.79 295.074C1170.52 266.661 1202.76 245.786 1237.36 231.253C1258.53 222.358 1280.98 216.365 1304.06 213.441C1325.38 210.739 1347.95 210.572 1371.14 212.939C1410.92 217.001 1453.78 228.476 1502.16 248.017C1597.43 286.496 1692.59 333.202 1785.01 386.839C1872.85 437.819 1959 495.507 2041.06 558.295L2040.87 558.469C1870.75 428.313 1689.46 323.934 1502.04 248.229C1396.14 205.458 1312.08 200.13 1237.48 231.463C1161.59 263.339 1108.57 320.864 1062.58 378.281C1055.16 387.551 1047.66 397.154 1040.4 406.441C998.993 459.442 956.175 514.246 894.455 551.912C874.511 564.085 852.074 573.579 829.572 579.368C817.685 582.425 805.868 584.425 794.447 585.311C789.895 585.672 785.403 585.849 780.983 585.849Z" fill="#A1A1A1"/>
<path d="M788.112 572.643C769.521 572.643 752.301 569.684 736.912 563.844C719.751 557.333 704.942 547.242 692.895 533.855C691.829 532.669 690.771 531.443 689.75 530.207C671.408 508.036 661.721 481.715 652.355 456.259C650.46 451.114 648.502 445.793 646.517 440.63C634.692 409.885 620.453 382.789 602.982 357.795C600.83 354.718 598.603 351.634 596.355 348.631C555.282 293.708 497.895 247.029 430.397 213.637C352.095 174.935 268.274 156.133 194.375 160.695C151.178 163.39 93.9517 184.762 68.1472 220.399C52.6955 241.738 50.9471 265.437 63.085 288.936L62.8256 289.031C56.4633 276.714 53.849 264.372 55.0589 252.35C56.17 241.309 60.4905 230.518 67.9047 220.276C79.6535 204.048 98.777 189.624 123.202 178.564C145.778 168.341 171.044 161.912 194.349 160.459C233.045 158.071 274.295 162.018 316.953 172.189C355.592 181.403 393.808 195.28 430.538 213.434C498.075 246.845 555.494 293.553 596.592 348.506C598.839 351.512 601.07 354.598 603.222 357.677C620.704 382.687 634.952 409.798 646.782 440.559C648.77 445.722 650.728 451.044 652.623 456.19C661.986 481.63 671.664 507.932 689.981 530.073C690.999 531.304 692.057 532.53 693.12 533.713C718.017 561.385 752.225 572.643 788.199 572.643C788.397 572.643 788.591 572.643 788.789 572.643C788.563 572.641 788.337 572.643 788.112 572.643ZM795.785 572.478C829.23 571.042 863.74 560.298 893.346 544.316C957.209 509.698 1003.11 456.23 1047.5 404.524C1049.32 402.393 1051.15 400.266 1052.98 398.14C1056.99 393.471 1061.75 387.945 1066.61 382.374C1088.39 357.389 1114.76 328.319 1145.12 302.154C1177.43 274.312 1209.71 253.651 1243.79 238.989C1264.74 229.99 1286.87 223.65 1309.58 220.146C1330.63 216.9 1352.86 215.983 1375.67 217.418C1415.07 219.901 1457.43 229.313 1505.19 246.194C1551.74 262.627 1590.01 278.096 1625.62 294.875C1676.07 318.669 1724.12 346.084 1764.47 369.762C1858.29 424.97 1950.34 487.658 2038.07 556.088L2037.88 556.26C1950.16 487.84 1858.12 425.156 1764.31 369.956C1723.97 346.28 1675.92 318.87 1625.49 295.083C1589.88 278.308 1551.62 262.844 1505.08 246.416C1401.06 209.64 1318.07 207.346 1243.92 239.201C1166.97 272.298 1112.16 330.531 1066.83 382.515C1061.97 388.086 1057.22 393.61 1053.21 398.281C1051.38 400.405 1049.55 402.534 1047.72 404.666C1003.32 456.388 957.406 509.875 893.498 544.518C877.652 553.072 860.79 559.867 843.378 564.712C827.171 569.218 811.195 571.823 795.785 572.478Z" fill="#A1A1A1"/>
<path d="M795.969 559.741C793.733 559.741 791.51 559.7 789.305 559.618C770.731 558.932 753.543 555.369 738.218 549.025C721.458 542.086 706.937 531.809 695.061 518.476C694.006 517.288 692.954 516.06 691.939 514.824C673.802 492.761 663.712 466.791 653.957 441.68C651.924 436.446 649.82 431.032 647.688 425.78C635.279 395.139 620.665 368.259 603.005 343.603C600.82 340.554 598.558 337.496 596.276 334.516C554.608 280.072 496.758 233.992 428.984 201.255C350.124 163.226 266.067 145.232 192.297 150.596C150.761 153.663 93.7012 173.816 66.5712 210.813C50.8968 232.188 48.6153 255.951 59.9721 279.533L59.7098 279.62C53.7593 267.266 51.489 254.895 52.9555 242.852C54.3035 231.775 58.8045 220.956 66.3315 210.691C78.2044 194.5 97.2659 180.071 121.457 168.96C143.821 158.687 168.971 152.083 192.271 150.362C230.922 147.554 272.217 151.081 315.008 160.847C353.743 169.688 392.136 183.214 429.125 201.052C496.939 233.81 554.82 279.917 596.513 334.391C598.795 337.374 601.059 340.431 603.245 343.485C620.913 368.155 635.536 395.052 647.95 425.709C650.082 430.964 652.186 436.377 654.219 441.611C663.971 466.709 674.053 492.66 692.167 514.697C693.183 515.932 694.229 517.159 695.284 518.342C743.539 572.517 829.058 566.7 892.402 536.906C958.929 505.339 1008.37 452.874 1056.18 402.137L1056.67 401.616C1061.3 396.698 1066.09 391.614 1070.86 386.595C1121.15 333.641 1176.43 279.221 1250.23 246.721C1270.95 237.615 1292.78 230.929 1315.11 226.848C1335.88 223.052 1357.78 221.385 1380.2 221.894C1419.28 222.781 1461.16 230.132 1508.21 244.368C1557.67 259.275 1594.88 272.978 1628.88 288.801C1677.33 311.39 1724.25 339.934 1765.65 365.119C1857.83 421.493 1948.48 485 2035.08 553.87L2034.88 554.04C1948.29 485.177 1857.65 421.677 1765.48 365.307C1724.09 340.127 1677.17 311.588 1628.75 289.006C1594.76 273.188 1557.56 259.49 1508.12 244.587C1406.12 213.73 1324.21 214.472 1250.36 246.926C1176.61 279.405 1121.35 333.802 1071.08 386.736C1066.31 391.756 1061.52 396.841 1056.89 401.757L1056.4 402.278C1032.57 427.562 1007.94 453.706 981.332 477.059C951.433 503.302 922.388 522.944 892.537 537.107C861.306 551.795 827.287 559.741 795.969 559.741Z" fill="#A1A1A1"/>
<path d="M2031.9 551.816C1946.43 482.509 1857.19 418.194 1766.66 360.657C1762.83 358.238 1758.99 355.808 1755.13 353.37C1715.92 328.562 1675.38 302.911 1632.02 282.927C1589.96 263.594 1547.33 251.772 1511.17 242.759C1411.37 217.725 1330.55 221.505 1256.81 254.649C1181.12 288.774 1122.46 345.431 1075.34 390.958C1072.51 393.691 1069.68 396.428 1066.86 399.168C1064.77 401.191 1062.68 403.213 1060.59 405.234C1033.75 431.183 1009.35 454.382 982.377 475.552C951.567 499.735 921.871 517.445 891.585 529.698C863.203 541.183 832.883 547.258 804.682 547.261C799.543 547.261 794.481 547.06 789.506 546.652C771.345 545.165 754.531 540.985 739.533 534.227C723.168 526.855 708.934 516.382 697.222 503.099C696.176 501.908 695.133 500.678 694.123 499.44C676.201 477.492 665.718 451.888 655.583 427.127C653.4 421.794 651.141 416.277 648.857 410.923C635.856 380.379 620.864 353.714 603.029 329.401C600.81 326.377 598.511 323.347 596.199 320.393C553.933 266.428 495.623 220.946 427.576 188.862C348.157 151.505 263.865 134.325 190.225 140.483C139.883 144.776 88.4034 169.735 65.0355 201.174C49.1157 222.594 46.2927 246.432 56.8655 270.113L56.6004 270.195C51.0644 257.796 49.1354 245.388 50.867 233.314C52.4604 222.198 57.1475 211.343 64.7958 201.049C76.7927 184.906 95.7921 170.477 119.741 159.325C141.89 149.011 166.911 142.235 190.197 140.249C228.802 137.019 270.14 140.129 313.063 149.489C351.891 157.958 390.468 171.135 427.717 188.655C495.807 220.757 554.147 266.265 596.438 320.263C598.754 323.22 601.052 326.252 603.272 329.276C621.118 353.603 636.115 380.283 649.125 410.841C651.409 416.197 653.668 421.712 655.851 427.047C665.981 451.793 676.458 477.381 694.357 499.303C695.367 500.539 696.407 501.767 697.451 502.955C747.827 560.091 833.45 552.955 891.464 529.484C960.679 501.479 1013.64 450.266 1060.38 405.078C1062.47 403.055 1064.55 401.033 1066.64 399.012C1069.47 396.272 1072.3 393.535 1075.12 390.803C1102.03 364.816 1128.59 339.563 1157.8 316.293C1191.38 289.531 1223.73 269.299 1256.68 254.441C1277.19 245.225 1298.71 238.192 1320.65 233.54C1341.16 229.191 1362.72 226.776 1384.74 226.361C1423.57 225.63 1464.96 230.921 1511.26 242.533C1547.42 251.551 1590.07 263.377 1632.16 282.722C1675.53 302.713 1716.09 328.371 1755.31 353.183C1759.16 355.621 1763 358.052 1766.84 360.471C1857.37 418.013 1946.62 482.335 2032.1 551.648L2031.9 551.816Z" fill="#A1A1A1"/>
<path d="M2028.91 549.594C1942.95 478.519 1855.12 413.386 1767.84 356.007C1762.62 352.574 1757.28 349.035 1752.11 345.614C1715.11 321.113 1676.84 295.778 1635.29 276.848C1593.79 258.012 1550.8 248.12 1514.22 240.929C1416.85 221.603 1337.11 228.416 1263.26 262.372C1192.82 294.877 1137.64 343.757 1084.28 391.026L1078.42 396.215C1073.79 400.315 1069 404.552 1064.28 408.708C1010.86 455.706 957.388 499.755 890.632 522.285C874.433 527.752 857.8 531.541 841.189 533.552C823.352 535.71 806.025 535.74 789.687 533.642C771.943 531.362 755.51 526.574 740.845 519.409C724.886 511.612 710.937 500.948 699.392 487.717C698.351 486.519 697.316 485.286 696.315 484.05C678.613 462.232 667.752 437.005 657.25 412.608C654.906 407.164 652.481 401.534 650.033 396.067C636.429 365.617 621.064 339.166 603.061 315.203C600.81 312.208 598.478 309.202 596.129 306.272C553.268 252.785 494.498 207.902 426.172 176.472C346.192 139.791 261.663 123.419 188.15 130.377C138.267 135.198 87.022 160.331 63.5357 191.498C47.3508 212.971 43.9694 236.902 53.7554 260.703L53.4874 260.78C48.366 248.327 46.7839 235.871 48.7834 223.762C50.6278 212.599 55.5095 201.702 63.2931 191.375C75.4198 175.286 94.3516 160.871 118.047 149.686C139.976 139.334 164.861 132.395 188.116 130.146C226.676 126.496 268.057 129.186 311.115 138.141C350.039 146.237 388.793 159.063 426.304 176.267C494.67 207.714 553.474 252.625 596.36 306.142C598.709 309.075 601.044 312.084 603.295 315.078C621.31 339.053 636.682 365.518 650.293 395.984C652.74 401.451 655.166 407.084 657.509 412.528C668.006 436.911 678.861 462.126 696.543 483.918C697.542 485.149 698.576 486.38 699.614 487.578C748.778 543.919 830.467 542.337 890.522 522.068C957.225 499.557 1010.68 455.525 1064.07 408.548C1068.79 404.392 1073.58 400.155 1078.21 396.055L1084.07 390.865C1110.26 367.664 1137.35 343.669 1166.77 321.349C1200.08 296.07 1231.6 276.711 1263.12 262.164C1283.41 252.833 1304.63 245.453 1326.17 240.233C1346.43 235.325 1367.66 232.16 1389.27 230.828C1427.93 228.445 1468.82 231.675 1514.28 240.698C1550.88 247.893 1593.89 257.788 1635.42 276.64C1677 295.577 1715.27 320.92 1752.28 345.428C1757.45 348.849 1762.79 352.386 1768.01 355.821C1855.3 413.205 1943.14 478.343 2029.1 549.424L2028.91 549.594Z" fill="#A1A1A1"/>
<path d="M2025.92 547.374C1940.7 475.51 1854.27 409.561 1769.02 351.361C1762.61 346.988 1756.04 342.44 1749.69 338.043C1714.68 313.806 1678.48 288.743 1638.55 270.776C1597.25 252.263 1554.07 244.377 1517.27 239.105C1422.6 225.334 1343.93 235.184 1269.7 270.101C1204.92 300.702 1151.74 344.069 1100.3 386.007C1094.89 390.421 1089.29 394.983 1083.84 399.404C1077.43 404.595 1072.54 408.54 1067.97 412.189C1043.52 431.725 1014.41 454.22 983.852 472.93C951.474 492.756 920.669 506.478 889.676 514.88C873.378 519.299 856.815 522.086 840.444 523.161C822.866 524.316 805.846 523.467 789.862 520.636C772.543 517.568 756.494 512.172 742.153 504.596C726.603 496.382 712.945 485.527 701.557 472.338C700.53 471.143 699.501 469.908 698.503 468.668C681.035 446.996 669.81 422.158 658.953 398.138C656.434 392.566 653.831 386.807 651.206 381.212C636.989 350.847 621.25 324.613 603.085 301.006C600.801 298.037 598.435 295.06 596.052 292.153C552.596 239.145 493.364 194.861 424.761 164.083C344.226 128.077 259.46 112.519 186.077 120.271C144.321 124.779 89.7852 145.545 62.0743 181.773C45.5989 203.313 41.6451 227.352 50.6442 251.289L50.3763 251.36C45.6694 238.843 44.4398 226.333 46.7185 214.177C48.8224 202.957 53.9071 192.013 61.8374 181.646C74.0938 165.623 92.9551 151.232 116.388 140.023C138.097 129.64 162.833 122.543 186.043 120.037C224.558 115.968 265.983 118.238 309.171 126.787C348.188 134.511 387.123 146.988 424.894 163.876C493.536 194.67 552.802 238.98 596.283 292.018C598.666 294.925 601.035 297.908 603.319 300.878C621.493 324.498 637.24 350.746 651.465 381.125C654.094 386.722 656.697 392.481 659.215 398.053C670.064 422.061 681.286 446.885 698.734 468.533C699.732 469.771 700.759 471.004 701.785 472.197C742.686 519.572 812.894 535.444 889.588 514.652C959.043 495.823 1015.7 453.623 1067.78 412.015C1072.35 408.365 1077.24 404.421 1083.64 399.229C1089.09 394.808 1094.69 390.246 1100.1 385.833C1125.43 365.187 1151.61 343.838 1179.54 323.847C1211.12 301.239 1240.57 283.59 1269.57 269.891C1289.67 260.437 1310.57 252.711 1331.71 246.93C1351.73 241.453 1372.62 237.542 1393.8 235.3C1432.37 231.221 1472.77 232.388 1517.32 238.867C1554.13 244.143 1597.35 252.032 1638.69 270.561C1678.64 288.541 1714.85 313.61 1749.87 337.854C1756.22 342.251 1762.79 346.799 1769.19 351.173C1854.45 409.379 1940.89 475.333 2026.12 547.202L2025.92 547.374Z" fill="#A1A1A1"/>
<path d="M2022.92 545.152C1938.45 472.493 1853.42 405.726 1770.19 346.711C1763.11 341.692 1755.84 336.422 1748.8 331.327C1715.3 307.057 1680.66 281.962 1641.82 264.697C1600.48 246.406 1557.2 240.571 1520.32 237.275C1429.94 228.983 1350.07 242.247 1276.15 277.824C1217.29 306.282 1166.83 344.351 1118.04 381.169C1108.18 388.605 1097.99 396.296 1088.08 403.626C1082.02 408.112 1076.65 412.052 1071.66 415.669C1048.45 432.469 1017.57 454.012 984.576 471.616C951.422 489.304 920.064 501.033 888.713 507.472C854.518 514.496 820.392 514.547 790.024 507.625C773.14 503.775 757.471 497.772 743.452 489.782C728.316 481.156 714.949 470.112 703.716 456.963C702.698 455.766 701.677 454.528 700.684 453.288C683.464 431.781 671.89 407.351 660.7 383.727C657.993 378.012 655.195 372.103 652.372 366.362C637.532 336.078 621.418 310.056 603.107 286.814C600.789 283.872 598.389 280.92 595.972 278.039C551.921 225.51 492.229 181.822 423.35 151.703C342.259 116.373 257.256 101.625 184 110.172C134.354 116.09 84.7839 140.94 60.6546 172.005C43.8633 193.622 39.3257 217.786 47.5324 241.884L47.2616 241.948C42.9722 229.355 42.0979 216.779 44.6614 204.571C47.0304 193.287 52.3323 182.286 60.4177 171.875C72.8038 155.928 91.5917 141.569 114.751 130.351C136.232 119.947 160.813 112.695 183.96 109.936C222.43 105.447 263.901 107.3 307.221 115.441C346.334 122.793 385.45 134.921 423.479 151.49C492.399 181.629 552.124 225.34 596.203 277.902C598.62 280.783 601.02 283.737 603.341 286.682C621.661 309.938 637.783 335.972 652.632 366.27C655.455 372.011 658.252 377.922 660.959 383.637C672.144 407.249 683.713 431.668 700.916 453.153C701.908 454.394 702.926 455.627 703.944 456.824C744.143 503.893 813.189 522.74 888.645 507.243C957.434 493.114 1017.17 454.794 1071.48 415.492C1076.46 411.875 1081.84 407.938 1087.9 403.451C1097.8 396.121 1107.99 388.433 1117.85 380.996C1166.65 344.172 1217.11 306.093 1276 277.624C1295.92 268.035 1316.53 259.965 1337.23 253.632C1357.04 247.578 1377.6 242.917 1398.33 239.778C1436.89 233.943 1476.8 233.05 1520.34 237.044C1557.25 240.342 1600.57 246.18 1641.95 264.492C1680.82 281.769 1715.47 306.873 1748.99 331.153C1756.02 336.248 1763.29 341.515 1770.37 346.534C1853.61 405.554 1938.65 472.326 2023.13 544.99L2022.92 545.152Z" fill="#A1A1A1"/>
<path d="M2019.94 542.931C1936.21 469.47 1852.58 401.89 1771.36 342.064C1763.9 336.565 1756.22 330.744 1748.8 325.114C1716.52 300.639 1683.14 275.329 1645.08 258.621C1603.58 240.485 1560.26 236.729 1523.36 235.447C1436.4 232.203 1357.64 248.591 1282.59 285.55C1229.96 311.593 1183.04 344.553 1137.66 376.427C1122.06 387.388 1107.32 397.74 1092.34 407.848C1086.24 411.962 1080.69 415.659 1075.36 419.146C1040.96 441.626 1012.35 457.88 985.305 470.296C951.375 485.873 919.468 495.61 887.758 500.061C875.456 501.787 863.2 502.648 851.166 502.648C829.835 502.648 809.194 499.95 790.192 494.608C755.803 484.939 727.438 467.098 705.883 441.581C704.868 440.372 703.855 439.134 702.874 437.899C685.916 416.578 674.018 392.582 662.512 369.373C659.596 363.493 656.584 357.414 653.546 351.504C638.072 321.29 621.58 295.485 603.136 272.613C600.784 269.697 598.35 266.771 595.9 263.916C551.254 211.865 491.1 168.776 421.944 139.31C340.297 104.659 255.061 90.7206 181.931 100.062C132.079 106.562 83.9389 130.94 59.2935 162.17C42.1611 183.877 37.0227 208.185 44.4285 232.467L44.1549 232.526C40.2885 219.846 39.7752 207.195 42.632 194.923C45.2773 183.564 50.802 172.501 59.0595 162.04C71.5753 146.18 90.2815 131.869 113.159 120.651C134.409 110.23 158.817 102.837 181.889 99.8283C220.313 94.9196 261.829 96.3531 305.279 104.089C344.488 111.07 383.781 122.849 422.073 139.098C491.269 168.583 551.457 211.696 596.131 263.777C598.582 266.634 601.015 269.56 603.37 272.479C621.825 295.363 638.326 321.182 653.806 351.407C656.843 357.318 659.858 363.398 662.771 369.278C674.272 392.476 686.164 416.463 703.108 437.764C704.089 438.997 705.099 440.235 706.114 441.442C746.364 489.096 812.553 510.376 887.71 499.825C959.255 489.782 1022.62 453.311 1075.18 418.957C1080.51 415.47 1086.06 411.776 1092.16 407.661C1107.14 397.554 1121.88 387.204 1137.48 376.243C1182.87 344.362 1229.8 311.397 1282.45 285.345C1302.22 275.608 1322.51 267.191 1342.77 260.325C1362.39 253.676 1382.61 248.266 1402.87 244.246C1441.5 236.581 1480.93 233.624 1523.37 235.209C1560.3 236.491 1603.66 240.252 1645.21 258.408C1683.31 275.129 1716.7 300.45 1748.99 324.935C1756.41 330.565 1764.09 336.386 1771.55 341.882C1852.77 401.713 1936.41 469.301 2020.14 542.766L2019.94 542.931Z" fill="#A1A1A1"/>
<path d="M2016.95 540.71C1932.81 465.396 1852.86 398.898 1772.54 337.414C1764.88 331.548 1757.33 325.557 1749.34 319.215C1718.11 294.422 1685.82 268.787 1648.35 252.545C1606.32 234.416 1561.11 232.907 1526.41 233.619C1443.41 235.1 1365.76 254.615 1289.04 293.278C1243 316.589 1200.5 344.581 1159.4 371.655C1137.79 385.883 1117.39 399.32 1096.58 412.072C1090.41 415.861 1084.67 419.313 1079.04 422.625C1044.18 443.128 1014.63 457.854 986.027 468.973C951.31 482.468 918.853 490.213 886.799 492.651C870.329 493.903 853.972 493.667 838.182 491.951C821.465 490.133 805.373 486.646 790.355 481.589C757.069 470.378 729.378 451.745 708.049 426.204C707.042 424.992 706.038 423.752 705.062 422.517C688.39 401.416 676.192 377.877 664.396 355.113C661.248 349.04 657.994 342.759 654.72 336.652C638.597 306.505 621.732 280.915 603.162 258.42C600.773 255.529 598.305 252.629 595.826 249.8C550.585 198.228 489.972 155.738 420.539 126.925C356.454 100.441 290.366 86.6227 229.764 86.6227C212.631 86.6227 195.95 87.7261 179.861 89.9589C130.61 96.9282 82.7715 121.394 57.9822 152.289C40.486 174.097 34.7244 198.57 41.3207 223.059L41.0443 223.111C37.6009 210.333 37.4571 197.594 40.6157 185.252C43.543 173.81 49.3074 162.674 57.7453 152.157C70.3909 136.396 89.0096 122.144 111.593 110.938C132.911 100.359 156.502 93.0238 179.81 89.7278C218.19 84.3994 259.751 85.4156 303.333 92.7433C342.635 99.3495 382.112 110.777 420.663 126.71C490.135 155.54 550.786 198.054 596.055 249.656C598.536 252.486 601.007 255.388 603.396 258.281C621.975 280.787 638.848 306.389 654.979 336.551C658.253 342.657 661.511 348.938 664.658 355.014C676.449 377.768 688.641 401.298 705.299 422.382C706.275 423.616 707.279 424.856 708.283 426.065C748.169 473.825 813.224 498.005 886.777 492.413C961.203 486.752 1028.54 452.037 1078.89 422.427C1084.51 419.115 1090.25 415.663 1096.42 411.877C1117.23 399.129 1137.63 385.69 1159.23 371.464C1200.34 344.388 1242.84 316.388 1288.89 293.071C1328.4 273.165 1367.16 258.658 1407.4 248.718C1446.21 239.132 1485.14 234.115 1526.41 233.379C1549.95 232.896 1569.16 233.735 1586.86 236.017C1609.71 238.964 1629.87 244.3 1648.49 252.33C1685.99 268.586 1718.3 294.235 1749.54 319.041C1757.53 325.383 1765.08 331.371 1772.74 337.237C1853.06 398.723 1933.01 465.226 2017.16 540.545L2016.95 540.71Z" fill="#A1A1A1"/>
<path d="M2013.96 538.489C1930.59 462.35 1852 395.06 1773.72 332.765C1765.97 326.602 1758.33 320.253 1750.25 313.531C1719.95 288.346 1688.63 262.301 1651.62 246.467C1609.24 228.423 1564.08 229.145 1529.46 231.788C1451.13 237.562 1374.59 260.203 1295.48 301C1256.5 321.198 1219.39 344.313 1183.5 366.668C1155.12 384.339 1128.32 401.032 1100.83 416.288C1094.62 419.74 1088.53 423.041 1082.73 426.096C1047.81 444.495 1016.41 458.083 986.75 467.636C951.235 479.076 918.228 484.833 885.841 485.234C869.363 485.437 853.071 484.192 837.428 481.53C821.028 478.738 805.247 474.374 790.52 468.556C758.376 455.855 731.356 436.43 710.213 410.818C709.22 409.609 708.222 408.366 707.249 407.124C690.889 386.28 678.427 363.238 666.374 340.955C662.964 334.651 659.436 328.13 655.891 321.79C639.108 291.699 621.869 266.325 603.188 244.215C600.766 241.351 598.264 238.476 595.751 235.673C549.915 184.58 488.839 142.689 419.13 114.528C336.376 81.238 250.662 68.9214 177.787 79.8469C129.173 87.2619 81.6531 111.791 56.7257 142.335C38.8346 164.259 32.4329 188.916 38.2085 213.643L37.9321 213.688C34.9202 200.798 35.1515 187.961 38.6231 175.533C41.8465 163.997 47.8563 152.782 56.4916 142.201C69.2613 126.553 87.7869 112.371 110.066 101.189C131.138 90.6121 154.537 83.1524 177.736 79.6135C216.073 73.8679 257.676 74.462 301.389 81.3842C340.786 87.6226 380.441 98.7013 419.252 114.314C489.003 142.488 550.113 184.405 595.974 235.529C598.49 238.333 600.994 241.209 603.416 244.076C622.108 266.198 639.354 291.583 656.145 321.686C659.693 328.026 663.218 334.547 666.63 340.854C678.678 363.127 691.135 386.159 707.483 406.989C708.456 408.23 709.454 409.472 710.444 410.679C750.75 459.502 813.039 485.899 885.836 484.993C944.904 484.262 1007.42 465.481 1082.58 425.891C1088.37 422.835 1094.46 419.537 1100.68 416.085C1128.16 400.831 1154.96 384.143 1183.32 366.473C1219.22 344.115 1256.34 320.995 1295.33 300.792C1335.22 280.222 1373.36 264.651 1411.93 253.186C1451.01 241.572 1489.44 234.492 1529.44 231.545C1564.09 228.897 1609.31 228.178 1651.75 246.25C1688.8 262.103 1720.14 288.16 1750.45 313.356C1758.53 320.078 1766.17 326.425 1773.91 332.586C1852.2 394.883 1930.79 462.178 2014.16 538.322L2013.96 538.489Z" fill="#A1A1A1"/>
<path d="M2010.97 536.268C1928.37 459.302 1851.16 391.214 1774.89 328.118C1767.15 321.712 1759.51 315.056 1751.42 308.009C1721.98 282.374 1691.54 255.867 1654.89 240.391C1612.11 222.414 1567.02 225.373 1532.51 229.958C1458.81 239.566 1385.54 264.595 1301.93 308.726C1270.57 325.352 1239.92 343.591 1210.28 361.229C1174.29 382.651 1140.29 402.887 1105.08 420.511C1098.74 423.689 1092.46 426.74 1086.42 429.574C1050.87 446.252 1018.5 458.267 987.474 466.302C970.093 470.802 952.935 474.063 936.477 475.994C918.921 478.052 901.563 478.668 884.885 477.824C851.045 476.11 819.353 468.607 790.688 455.527C759.732 441.4 733.386 421.185 712.384 395.439C711.397 394.22 710.407 392.975 709.44 391.74C693.43 371.202 680.744 348.708 668.48 326.956C664.765 320.371 660.927 313.562 657.066 306.937C639.607 276.895 621.992 251.736 603.215 230.02C600.759 227.179 598.221 224.33 595.677 221.556C549.246 170.938 487.71 129.646 417.725 102.144C334.417 69.5346 248.47 58.0291 175.716 69.7444C97.8145 82.4829 21.9042 137.523 35.1026 204.234L34.8234 204.271C31.521 187.584 33.4556 171.144 40.5709 155.404C47.0685 141.029 57.7315 127.501 72.2638 115.198C85.7752 103.759 101.985 93.8823 120.441 85.8426C137.993 78.1967 157.089 72.5477 175.659 69.511C213.951 63.3456 255.6 63.5225 299.445 70.0391C338.938 75.9074 378.773 86.6372 417.843 101.931C487.868 129.453 549.441 170.769 595.9 221.414C598.447 224.191 600.985 227.039 603.444 229.883C622.229 251.609 639.852 276.782 657.32 306.835C661.181 313.46 665.019 320.269 668.733 326.857C680.995 348.601 693.675 371.087 709.676 391.613C710.641 392.848 711.628 394.093 712.615 395.31C752.98 444.788 814.166 474.007 884.901 477.59C944.785 480.62 1010.66 464.849 1086.29 429.371C1092.32 426.537 1098.6 423.489 1104.94 420.31C1140.13 402.691 1174.13 382.458 1210.12 361.038C1239.76 343.398 1270.41 325.157 1301.77 308.528C1385.43 264.378 1458.73 239.339 1532.47 229.725C1555.65 226.643 1574.85 225.658 1592.89 226.627C1615.94 227.865 1636.26 232.297 1655.01 240.179C1691.7 255.671 1722.16 282.195 1751.62 307.844C1759.71 314.889 1767.35 321.545 1775.09 327.948C1851.36 391.049 1928.58 459.139 2011.17 536.11L2010.97 536.268Z" fill="#A1A1A1"/>
<path d="M2007.98 534.048C1926.17 456.242 1850.31 387.362 1776.07 323.469C1768.39 316.858 1760.8 309.934 1752.76 302.599C1724.12 276.474 1694.5 249.457 1658.15 234.314C1614.45 216.185 1567.26 222.101 1535.56 228.127C1449.53 244.282 1372.44 281.84 1308.37 316.453C1285.35 328.944 1262.38 342.175 1240.17 354.97C1195.6 380.638 1153.52 404.882 1109.34 424.734C1102.84 427.655 1096.37 430.454 1090.12 433.054C1053.87 448.094 1020.53 458.534 988.204 464.965C951.553 472.258 916.473 474.092 883.931 470.414C850.501 466.635 819.186 457.242 790.86 442.494C761.15 427.028 735.478 406.023 714.552 380.063C713.577 378.844 712.592 377.597 711.631 376.357C696.018 356.196 683.175 334.319 670.753 313.161C666.683 306.228 662.473 299.06 658.242 292.084C639.841 261.665 622.364 237.435 603.246 215.825C600.756 213.009 598.187 210.19 595.607 207.438C548.575 157.302 486.576 116.609 416.315 89.757C332.455 57.8316 246.27 47.1348 173.64 59.6399C95.4595 73.2791 21.1003 127.572 31.9918 194.825L31.7126 194.855C29.0109 178.17 31.3488 161.746 38.6586 146.042C45.3593 131.653 56.0844 118.11 70.5405 105.794C84.0209 94.3073 100.147 84.3579 118.472 76.2168C135.92 68.4648 154.979 62.6531 173.584 59.4065C211.833 52.8215 253.524 52.5811 297.499 58.6898C337.088 64.1879 377.103 74.5688 416.433 89.5424C486.737 116.408 548.769 157.125 595.824 207.292C598.404 210.046 600.976 212.868 603.469 215.683C622.598 237.303 640.08 261.547 658.49 291.978C662.721 298.954 666.931 306.124 671.001 313.058C683.421 334.208 696.261 356.078 711.862 376.229C712.824 377.47 713.805 378.714 714.781 379.933C755.459 430.397 815.542 462.448 883.965 470.181C945.332 477.117 1012.72 464.902 1089.99 432.842C1096.24 430.244 1102.71 427.448 1109.2 424.527C1153.37 404.68 1195.45 380.44 1240 354.775C1262.22 341.979 1285.19 328.746 1308.22 316.252C1351.3 292.98 1387.14 275.785 1421 262.141C1460.86 246.081 1498.31 234.879 1535.5 227.896C1558.16 223.586 1577.92 221.634 1595.9 221.931C1619.05 222.313 1639.45 226.293 1658.28 234.101C1694.68 249.264 1724.31 276.297 1752.96 302.439C1761 309.771 1768.59 316.696 1776.27 323.302C1850.52 387.197 1926.38 456.082 2008.19 533.89L2007.98 534.048Z" fill="#A1A1A1"/>
<path d="M2004.99 531.824C1923.97 453.177 1849.47 383.502 1777.24 318.817C1769.67 312.034 1762.17 304.869 1754.24 297.282C1726.35 270.631 1697.52 243.072 1661.42 228.235C1617.24 210.149 1570.17 218.465 1538.61 226.295C1460.67 245.465 1391.14 281.966 1314.82 324.176C1301.05 331.817 1287.13 339.704 1273.67 347.333C1221.88 376.672 1168.33 407.008 1113.58 428.954C1106.93 431.623 1100.28 434.171 1093.81 436.529C1057.31 449.807 1022.03 458.922 988.928 463.621C951.431 468.945 915.784 468.735 882.969 463.001C850.007 457.241 819.073 445.955 791.023 429.456C762.638 412.759 737.635 390.967 716.709 364.686C715.742 363.464 714.766 362.215 713.81 360.975C698.669 341.286 685.744 320.121 673.245 299.654C668.741 292.279 664.085 284.654 659.406 277.235C640.286 246.846 622.445 222.824 603.263 201.633C600.744 198.851 598.138 196.055 595.521 193.325C547.903 143.66 485.448 103.565 414.904 77.3693C330.494 46.1276 244.076 36.2419 171.564 49.5345C95.8651 63.5627 20.1325 115.95 28.8778 185.412L28.5986 185.436C26.4976 168.751 29.2388 152.346 36.7432 136.677C43.6441 122.271 54.4341 108.717 68.8112 96.3863C95.3377 73.6394 132.767 56.4779 171.502 49.3011C209.706 42.2988 251.442 41.6386 295.549 47.3395C335.235 52.4698 375.428 62.4994 415.017 77.1524C485.6 103.363 548.092 143.483 595.741 193.172C598.361 195.904 600.967 198.7 603.488 201.485C622.679 222.687 640.528 246.719 659.655 277.119C664.333 284.541 668.992 292.166 673.496 299.541C685.992 320.003 698.914 341.163 714.047 360.843C715 362.083 715.976 363.33 716.943 364.551C758.809 417.132 816.238 451.095 883.023 462.768C944.863 473.575 1015.74 464.675 1093.69 436.312C1100.16 433.954 1106.81 431.408 1113.46 428.742C1168.18 406.803 1221.72 376.472 1273.5 347.138C1286.97 339.508 1300.89 331.622 1314.66 323.98C1348.07 305.503 1386.94 284.31 1425.53 266.616C1465.88 248.108 1502.85 234.846 1538.52 226.071C1560.98 220.499 1580.74 217.609 1598.91 217.236C1621.83 216.765 1642.9 220.396 1661.54 228.025C1677.71 234.671 1693.99 244.59 1711.3 258.35C1726.59 270.499 1740.75 284.037 1754.44 297.126C1762.38 304.711 1769.87 311.876 1777.44 318.657C1849.68 383.344 1924.18 453.021 2005.2 531.671L2004.99 531.824Z" fill="#A1A1A1"/>
<path d="M2001.99 529.603C1921.77 450.107 1848.64 379.638 1778.42 314.17C1770.98 307.239 1763.62 299.857 1755.82 292.043C1728.66 264.838 1700.58 236.706 1664.69 222.162C1631.14 208.612 1590.9 209.367 1541.66 224.468C1472.81 245.463 1411.27 280.58 1346.11 317.763C1338 322.394 1329.61 327.18 1321.26 331.907C1318 333.763 1314.72 335.623 1311.46 337.481C1249.37 372.773 1185.18 409.267 1117.83 433.179C1111.03 435.598 1104.19 437.897 1097.5 440.009C1060.2 451.781 1023.92 459.274 989.664 462.278C951.302 465.64 915.082 463.39 882.019 455.591C849.57 447.936 819.016 434.756 791.207 416.418C764.252 398.644 739.919 376.067 718.884 349.309C717.925 348.086 716.957 346.834 716.007 345.591C701.441 326.52 688.558 306.208 676.096 286.567C671.051 278.612 665.831 270.386 660.588 262.379C640.729 232.012 622.527 208.197 603.299 187.435C600.744 184.677 598.107 181.909 595.456 179.205C547.235 130.021 484.317 90.523 413.497 64.9823C328.54 34.4267 241.882 25.3496 169.491 39.4297C95.1825 54.0025 19.5571 106.819 25.7699 176.003L25.4879 176.022C23.9904 159.334 27.132 142.948 34.8311 127.319C41.9351 112.897 52.787 99.3266 67.0881 86.9865C93.5017 64.1924 130.801 46.7762 169.426 39.201C207.589 31.779 249.366 30.6992 293.603 35.9946C333.385 40.7524 373.761 50.433 413.61 64.7653C484.469 90.3226 547.426 129.842 595.668 179.052C598.319 181.756 600.961 184.528 603.516 187.287C622.753 208.06 640.965 231.883 660.831 262.261C666.076 270.268 671.293 278.496 676.342 286.451C688.798 306.088 701.681 326.395 716.241 345.459C717.192 346.702 718.156 347.951 719.115 349.175C761.888 403.581 818.244 440.297 882.092 455.358C945.12 470.225 1017.56 464.984 1097.4 439.783C1104.08 437.67 1110.92 435.374 1117.72 432.957C1185.04 409.055 1249.23 372.568 1311.3 337.28C1314.57 335.42 1317.83 333.562 1321.1 331.707C1329.45 326.98 1337.84 322.193 1345.95 317.565C1411.12 280.375 1472.68 245.248 1541.56 224.244C1563.8 217.42 1583.55 213.594 1601.93 212.54C1624.94 211.222 1646.09 214.389 1664.81 221.947C1680.89 228.462 1696.96 238.425 1713.95 252.409C1728.94 264.746 1742.71 278.546 1756.03 291.89C1763.83 299.701 1771.2 307.081 1778.63 314.01C1848.85 379.48 1921.99 449.952 2002.21 529.45L2001.99 529.603Z" fill="#A1A1A1"/>
<path d="M1999.01 527.382C1925.79 453.303 1851.97 380.003 1779.6 309.52C1772.23 302.386 1764.93 294.721 1757.2 286.608C1732.05 260.216 1703.56 230.305 1667.95 216.085C1634.02 202.559 1593.7 204.702 1544.7 222.635C1486.45 243.887 1434.89 275.136 1380.31 308.219C1363.21 318.579 1345.54 329.294 1327.71 339.63C1296.59 357.711 1262.92 376.844 1227.63 394.27C1189.84 412.933 1155.31 427.039 1122.08 437.399C1115.1 439.575 1108.07 441.624 1101.18 443.484C1063.1 453.77 1025.83 459.624 990.413 460.883C951.205 462.274 914.413 458.002 881.056 448.176C819.458 429.804 765.621 391.367 721.043 333.929C720.093 332.703 719.134 331.449 718.189 330.207C704.362 311.977 691.705 292.745 679.465 274.146C673.704 265.392 667.748 256.338 661.755 247.527C641.139 217.168 622.571 193.562 603.321 173.242C600.729 170.507 598.059 167.765 595.377 165.089C546.568 116.379 483.188 77.482 412.092 52.5943C326.584 22.7225 239.692 14.4588 167.42 29.324C92.6604 44.788 18.9301 96.9046 22.6612 166.593L22.3792 166.602C21.4852 149.91 25.033 133.543 32.921 117.954C40.2308 103.513 51.1448 89.9282 65.3641 77.5787C78.7598 65.9435 94.6373 55.7701 112.554 47.3391C129.949 39.1555 148.384 33.0161 167.35 29.093C205.47 21.2537 247.293 19.7542 291.659 24.6417C331.536 29.034 372.09 38.3634 412.199 52.3751C483.337 77.2769 546.754 116.197 595.591 164.931C598.273 167.609 600.949 170.353 603.541 173.088C622.8 193.421 641.376 217.036 662 247.405C667.993 256.218 673.949 265.271 679.711 274.028C691.95 292.625 704.604 311.854 718.426 330.077C719.368 331.322 720.329 332.574 721.277 333.8C765.821 391.193 819.61 429.599 881.149 447.952C944.538 466.624 1020.59 465.002 1101.1 443.257C1107.97 441.397 1115 439.351 1121.98 437.177C1196.29 414.017 1264.28 376.193 1327.54 339.435C1345.37 329.098 1363.05 318.385 1380.14 308.026C1434.74 274.935 1486.3 243.68 1544.59 222.418C1593.66 204.457 1634.06 202.314 1668.07 215.871C1684.02 222.239 1699.85 232.221 1716.47 246.384C1731.13 258.873 1744.49 272.898 1757.42 286.46C1765.15 294.573 1772.44 302.235 1779.81 309.365C1852.18 379.85 1926 453.15 1999.22 527.231L1999.01 527.382Z" fill="#A1A1A1"/>
<path d="M1996.02 525.162C1923.92 450.674 1851.5 376.558 1780.77 304.872C1773.63 297.66 1766.55 289.861 1759.05 281.604C1734.53 254.597 1706.73 223.985 1671.22 210.006C1636.87 196.504 1596.49 200.036 1547.75 220.8C1496.68 242.523 1449.77 273.197 1404.4 302.864C1381.65 317.738 1358.12 333.12 1334.15 347.353C1296.32 369.841 1264.48 386.995 1233.96 401.342C1196.33 419.031 1161.13 432.206 1126.33 441.618C1119.18 443.551 1111.96 445.348 1104.87 446.958C1067.92 455.344 1031.63 459.588 996.91 459.59C994.981 459.59 993.063 459.576 991.146 459.55C951.009 459.003 913.648 452.68 880.099 440.76C863.906 434.974 848.048 427.63 832.969 418.93C818.794 410.753 804.866 401.122 791.569 390.305C767.645 370.845 745.281 347.372 723.205 318.549C722.257 317.309 721.313 316.067 720.374 314.819C707.564 297.813 695.446 280.037 683.728 262.844C676.963 252.921 669.969 242.658 662.924 232.668C641.234 201.891 622.861 179.182 603.343 159.04C600.717 156.331 598.013 153.615 595.297 150.965C545.896 102.739 482.056 64.4407 410.683 40.2061C324.629 11.0203 237.5 3.56771 165.346 19.218C91.9884 35.1748 18.354 87.6874 19.5526 157.18L19.2706 157.182C18.7122 124.814 34.0567 94.0343 63.643 68.1729C77.0162 56.4835 92.8091 46.237 110.587 37.7116C127.886 29.4173 146.285 23.1176 165.276 18.9869C203.351 10.728 245.219 8.81119 289.715 13.2908C329.688 17.3153 370.423 26.2958 410.788 39.9844C482.205 64.2356 546.082 102.557 595.514 150.812C598.23 153.464 600.94 156.183 603.565 158.892C623.092 179.045 641.474 201.761 663.17 232.55C670.214 242.542 677.211 252.805 683.974 262.729C695.692 279.919 707.807 297.693 720.613 314.694C721.552 315.942 722.494 317.184 723.442 318.422C770.353 379.67 821.631 419.616 880.209 440.543C961.342 469.372 1047.12 459.821 1104.8 446.732C1111.89 445.121 1119.1 443.327 1126.24 441.394C1206.27 419.746 1279.3 379.663 1333.99 347.162C1357.96 332.933 1381.48 317.552 1404.23 302.68C1449.61 273.008 1496.53 242.325 1547.62 220.592C1569.43 211.301 1589.17 205.595 1607.96 203.152C1631.14 200.139 1652.46 202.374 1671.34 209.796C1687.24 216.056 1702.92 226.119 1719.27 240.557C1733.68 253.279 1746.69 267.607 1759.28 281.465C1766.77 289.719 1773.85 297.516 1780.99 304.724C1851.71 376.409 1924.13 450.525 1996.24 525.014L1996.02 525.162Z" fill="#A1A1A1"/>
<path d="M1993.03 522.941L1781.95 300.225C1775.05 292.951 1768.21 285.036 1760.96 276.66C1737.04 249.013 1709.93 217.68 1674.49 203.932C1640.21 190.64 1598.6 195.699 1550.8 218.972C1504.85 241.344 1462.94 271.095 1422.41 299.869C1395.99 318.624 1368.67 338.016 1340.6 355.083C1256.23 406.382 1182.5 436.68 1108.57 450.437C1077.89 456.143 1047.64 459.014 1018.29 459.014C1009.4 459.014 1000.59 458.75 991.882 458.222C950.798 455.733 912.867 447.363 879.146 433.349C847.893 420.358 819.302 402.02 791.75 377.283C769.747 357.53 748.655 333.982 725.374 303.174C713.087 286.915 701.188 270.023 689.682 253.686C663.641 216.718 636.714 178.49 603.377 144.846C552.242 93.2438 485.122 52.7765 409.274 27.8181C322.675 -0.679188 235.309 -7.32313 163.274 9.11226C93.5313 25.0243 17.8353 75.2004 16.4422 147.77L16.1602 147.765C16.7834 115.328 32.6073 84.5533 61.9201 58.7674C88.424 35.4523 124.392 17.7367 163.201 8.88357C201.233 0.207302 243.146 -2.12916 287.77 1.94255C327.839 5.59696 368.754 14.2308 409.378 27.5988C446.909 39.9484 482.553 56.2046 515.323 75.9172C548.367 95.7948 578.066 118.933 603.591 144.691C636.942 178.347 663.878 216.584 689.925 253.561C701.431 269.895 713.329 286.786 725.614 303.042C759.58 347.994 807.743 403.401 879.273 433.132C961.306 467.226 1049.21 461.233 1108.5 450.201C1182.4 436.454 1256.1 406.167 1340.43 354.887C1368.49 337.827 1395.81 318.435 1422.22 299.685C1462.76 270.907 1504.68 241.148 1550.66 218.764C1598.54 195.452 1640.24 190.387 1674.61 203.715C1690.48 209.871 1706.01 220.021 1722.1 234.749C1736.27 247.714 1748.94 262.358 1761.19 276.518C1768.44 284.895 1775.28 292.805 1782.17 300.076L1993.25 522.792L1993.03 522.941Z" fill="#A1A1A1"/>
<path d="M1991.33 505.819C1937.58 443.807 1891.46 393.487 1846.2 347.463C1824.22 325.105 1801.78 303.099 1779.5 282.054C1772.76 275.688 1766.08 268.917 1759.01 261.747C1741.24 243.728 1722.87 225.095 1701.73 211.267C1690.38 203.828 1679.45 198.502 1668.32 194.985C1634.16 184.081 1594.08 191.29 1549.2 216.416C1525.97 229.4 1504.81 244.175 1487.19 256.916C1468.53 270.405 1450.12 285.279 1432.32 299.663C1406.73 320.34 1380.27 341.72 1351.83 360.081C1334.52 371.288 1316.98 381.301 1299.68 389.845C1265.08 406.938 1227.93 421.023 1189.29 431.708C1165.41 438.236 1141.41 443.171 1117.98 446.373C1097.78 449.122 1077.54 450.708 1057.82 451.088C1028.31 451.659 999.566 449.482 972.374 444.614C943.462 439.436 916.1 431.173 891.052 420.049C868.716 410.13 847.619 397.642 826.555 381.866C787.304 352.494 755.997 318.532 733.109 292.225C721.865 279.241 710.886 266.001 700.268 253.196C669.695 216.319 640.816 181.489 604.679 150.465C575.205 125.327 541.578 103.634 504.721 85.9845C476.398 72.4207 445.593 61.3279 413.164 53.0123C405.44 51.0342 397.569 49.1905 389.777 47.5378C356.228 40.4341 318.461 35.8083 277.526 33.7878C236.256 31.7036 200.55 33.5072 168.374 39.3071C150.184 42.5607 132.561 47.6651 115.987 54.4764C57.4745 78.5248 19.9015 118.895 15.4795 162.47L15.127 162.444C16.3058 150.828 19.7661 139.386 25.4093 128.432C30.7704 118.028 38.1338 107.993 47.2937 98.6075C64.601 80.8778 88.3017 65.5245 115.832 54.21C132.432 47.3869 150.083 42.2754 168.301 39.0171C200.51 33.2125 236.244 31.4065 277.549 33.4931C318.506 35.5136 356.293 40.1441 389.864 47.2525C397.665 48.9076 405.539 50.7513 413.269 52.7318C445.723 61.052 476.553 72.1543 504.899 85.7299C541.781 103.391 575.436 125.103 604.924 150.257C641.084 181.301 669.968 216.14 700.553 253.026C711.168 265.831 722.147 279.069 733.388 292.051C756.265 318.346 787.558 352.292 826.786 381.645C847.827 397.404 868.902 409.88 891.213 419.787C940.235 441.556 996.286 451.989 1057.81 450.793C1077.51 450.414 1097.73 448.827 1117.92 446.08C1141.34 442.879 1165.32 437.949 1189.17 431.425C1227.8 420.747 1264.92 406.672 1299.5 389.588C1316.78 381.051 1334.32 371.042 1351.61 359.846C1380.04 341.493 1406.49 320.119 1432.07 299.449C1449.88 285.062 1468.29 270.183 1486.95 256.69C1504.59 243.942 1525.75 229.162 1549 216.169C1568.98 204.981 1588.33 197.253 1606.51 193.195C1628.85 188.211 1649.68 188.72 1668.44 194.709C1679.61 198.238 1690.56 203.579 1701.94 211.034C1723.12 224.883 1741.5 243.527 1759.28 261.559C1766.35 268.726 1773.03 275.497 1779.76 281.858C1802.05 302.905 1824.5 324.914 1846.47 347.277C1891.74 393.306 1937.86 443.631 1991.61 505.647L1991.33 505.819Z" fill="#A1A1A1"/>
<path d="M1989.62 488.694C1939.79 425.633 1893.02 372.863 1846.63 327.372C1824.01 305.151 1800.6 283.79 1777.05 263.884C1770.8 258.603 1764.64 253.114 1758.1 247.305C1738.54 229.907 1718.32 211.918 1695.66 199.472C1684.22 193.161 1673.26 188.766 1662.15 186.036C1619.59 175.577 1576.37 195.391 1547.59 213.854C1527.21 226.897 1508.59 241.644 1489.73 256.868C1473.22 270.193 1457.69 284.528 1441.25 299.702C1416.85 322.227 1391.61 345.519 1363.06 365.076C1346.11 376.744 1328.42 386.832 1310.49 395.061C1277.09 410.39 1240.51 422.294 1198.66 431.456C1175.24 436.582 1151.26 440.234 1127.38 442.306C1107.23 444.035 1087.11 444.652 1067.59 444.136C1038.55 443.377 1010.16 439.963 983.214 433.991C954.911 427.717 927.905 418.55 902.949 406.745C881.084 396.405 859.973 383.574 838.407 367.523C799.241 338.413 765.689 306.141 740.838 281.277C731.639 272.072 722.586 262.811 713.829 253.852C678.958 218.176 646.021 184.475 605.981 156.084C576.056 134.865 542.459 116.923 506.13 102.758C478.642 92.0397 449.507 84.0094 417.064 78.2072C409.576 76.8704 401.959 75.6656 394.426 74.6259C361.34 70.0826 326.029 68.3639 283.306 66.5862C252.51 65.2399 212.196 64.3534 173.467 69.4979C155.124 71.8886 137.394 76.0405 120.763 81.8333C62.2113 102.234 22.4922 137.873 14.5111 177.171L14.0938 177.112C16.2089 166.691 20.4955 156.47 26.8267 146.731C32.8619 137.451 40.7922 128.553 50.3949 120.278C68.6441 104.557 92.9201 91.1485 120.6 81.5056C137.261 75.701 155.026 71.542 173.399 69.1466C212.165 63.9951 252.51 64.8839 283.326 66.2302C326.063 68.0079 361.385 69.7266 394.494 74.2722C402.032 75.3143 409.655 76.5191 417.151 77.8559C449.625 83.6652 478.789 91.7026 506.308 102.432C542.674 116.611 576.298 134.568 606.254 155.808C646.323 184.22 679.274 217.93 714.156 253.621C722.91 262.578 731.963 271.839 741.162 281.041C766.008 305.896 799.545 338.156 838.689 367.252C860.229 383.286 881.318 396.103 903.158 406.432C952.229 429.643 1007.56 442.207 1067.61 443.778C1087.11 444.292 1107.2 443.676 1127.34 441.948C1151.19 439.878 1175.16 436.231 1198.55 431.107C1240.36 421.955 1276.91 410.06 1310.29 394.745C1328.2 386.526 1345.86 376.452 1362.79 364.795C1391.32 345.255 1416.55 321.973 1440.94 299.459C1457.39 284.278 1472.92 269.941 1489.44 256.608C1508.31 241.375 1526.93 226.623 1547.34 213.566C1565.99 201.596 1584.39 192.986 1602.02 187.969C1623.41 181.886 1643.68 181.12 1662.27 185.689C1673.43 188.431 1684.43 192.84 1695.9 199.17C1718.59 211.64 1738.84 229.646 1758.41 247.057C1764.94 252.864 1771.11 258.351 1777.36 263.629C1800.92 283.542 1824.33 304.91 1846.96 327.138C1893.35 372.642 1940.14 425.421 1989.98 488.496L1989.62 488.694Z" fill="#A1A1A1"/>
<path d="M1987.92 471.567C1941.28 406.601 1895.21 352.862 1847.07 307.281C1823.8 285.197 1799.42 264.485 1774.61 245.715C1769.31 241.702 1763.85 237.444 1758.57 233.328C1736.76 216.32 1714.22 198.734 1689.61 187.678C1678.05 182.454 1667.06 178.988 1655.99 177.085C1613.53 169.779 1572.74 191.653 1545.99 211.288C1527.87 224.543 1511.3 239.566 1495.28 254.097L1492.28 256.817C1477.73 269.999 1464.08 284.457 1449.63 299.765C1426.62 324.141 1402.83 349.345 1374.29 370.069C1357.68 382.215 1339.85 392.379 1321.3 400.278C1288.96 414.049 1252.96 423.876 1208.03 431.203C1184.79 434.992 1160.82 437.359 1136.77 438.236C1116.68 438.941 1096.69 438.588 1077.36 437.18C1018.84 432.939 964.162 418.222 914.843 393.44C893.522 382.727 872.396 369.559 850.261 353.178C812.801 325.516 779.483 297.082 748.572 270.329C744.426 266.743 740.325 263.181 736.256 259.647C694.035 222.987 654.158 188.36 607.293 161.709C576.697 144.309 543.134 130.12 507.541 119.534C481.409 111.763 453.089 106.487 420.968 103.403C413.728 102.712 406.365 102.144 399.08 101.715C380.755 100.654 361.318 100.482 340.74 100.3C324.211 100.154 307.121 100.003 289.086 99.3879C254.254 98.0983 214.777 96.6389 178.555 99.6944C159.866 101.272 142.028 104.469 125.536 109.198C67.0065 125.985 25.1384 156.896 13.5391 191.887L13.0625 191.776C16.1196 182.55 21.2297 173.551 28.2491 165.028C34.961 156.878 43.4554 149.111 53.4951 141.946C72.6976 128.244 97.5545 116.785 125.373 108.807C141.902 104.066 159.776 100.861 178.502 99.2818C214.76 96.2239 254.257 97.6857 289.103 98.9753C307.126 99.5883 324.216 99.7416 340.74 99.8877C361.327 100.069 380.769 100.241 399.111 101.305C406.402 101.736 413.773 102.304 421.018 102.995C453.179 106.081 481.533 111.365 507.702 119.148C543.337 129.745 576.937 143.95 607.566 161.369C654.474 188.044 694.371 222.688 736.608 259.364C740.678 262.898 744.781 266.458 748.924 270.046C779.83 296.794 813.136 325.221 850.585 352.874C872.698 369.236 893.801 382.392 915.096 393.091C964.35 417.842 1018.96 432.538 1077.4 436.775C1096.71 438.18 1116.68 438.533 1136.75 437.828C1160.77 436.951 1184.72 434.587 1207.93 430.803C1252.82 423.482 1288.77 413.667 1321.08 399.915C1339.59 392.033 1357.38 381.888 1373.96 369.762C1402.47 349.064 1426.24 323.875 1449.24 299.513C1463.69 284.197 1477.35 269.733 1491.91 256.542L1494.91 253.821C1510.94 239.283 1527.52 224.251 1545.66 210.982C1572.49 191.283 1613.42 169.345 1656.09 176.685C1667.2 178.597 1678.24 182.074 1689.84 187.32C1714.5 198.399 1737.07 216.004 1758.9 233.031C1764.18 237.147 1769.64 241.405 1774.93 245.416C1799.76 264.195 1824.15 284.919 1847.44 307.015C1895.6 352.615 1941.68 406.372 1988.34 471.359L1987.92 471.567Z" fill="#A1A1A1"/>
<path d="M1986.22 454.437C1943.4 388.491 1896.73 332.22 1847.52 287.193C1823.59 265.247 1798.24 245.181 1772.17 227.55C1768.41 225.004 1764.55 222.361 1760.82 219.805C1736.18 202.922 1710.7 185.461 1683.56 175.889C1671.91 171.737 1660.89 169.203 1649.84 168.137C1607.5 164.053 1569.13 187.953 1544.4 208.722C1529.05 221.553 1515.18 235.821 1501.78 249.621C1499.46 252.009 1497.14 254.393 1494.82 256.767C1482.07 269.81 1470.15 284.38 1457.53 299.804C1436.08 326.026 1413.89 353.139 1385.52 375.066C1368.86 387.941 1351.39 397.895 1332.11 405.501C1291.79 421.408 1251.49 427.296 1217.39 430.959C1194.33 433.435 1170.37 434.519 1146.17 434.175C1126.13 433.857 1106.27 432.53 1087.12 430.233C1030.36 423.441 976.401 406.588 926.741 380.142C906.078 369.141 884.941 355.631 862.117 338.842C839.062 321.924 817.578 305.644 796.799 289.899C782.679 279.198 769.34 269.09 756.313 259.393C707.073 222.736 661.97 190.507 608.616 167.34C577.363 153.772 543.834 143.332 508.96 136.313C483.965 131.282 457.247 128.832 424.88 128.599C417.897 128.556 410.784 128.624 403.742 128.804C393.046 129.094 381.979 129.7 370.267 130.343C347.79 131.576 322.31 132.974 294.864 132.192C284.413 131.892 273.75 131.47 263.437 131.06C236.91 130.006 209.481 128.917 183.64 129.891C164.663 130.607 146.716 132.852 130.302 136.563C71.8716 149.778 27.8573 175.964 12.5608 206.612L12.0391 206.43C16.0437 198.405 21.9773 190.629 29.6735 183.318C37.0652 176.297 46.1235 169.665 56.592 163.608C76.7646 151.937 102.2 142.429 130.15 136.108C146.603 132.387 164.59 130.136 183.609 129.419C209.478 128.443 236.919 129.535 263.459 130.588C273.77 130.999 284.433 131.421 294.881 131.72C322.302 132.503 347.762 131.107 370.228 129.874C381.945 129.23 393.015 128.624 403.723 128.334C410.773 128.155 417.891 128.087 424.882 128.129C457.294 128.36 484.052 130.817 509.09 135.856C544.006 142.884 577.58 153.335 608.872 166.923C632.974 177.386 657.396 190.643 683.536 207.449C706.938 222.493 729.702 238.955 756.685 259.042C769.712 268.742 783.051 278.849 797.175 289.55C817.951 305.293 839.435 321.572 862.484 338.489C885.285 355.261 906.399 368.757 927.037 379.746C976.63 406.157 1030.51 422.986 1087.2 429.769C1106.32 432.063 1126.16 433.388 1146.18 433.706C1170.34 434.05 1194.28 432.968 1217.31 430.493C1251.37 426.836 1291.61 420.956 1331.87 405.077C1351.09 397.492 1368.51 387.564 1385.13 374.722C1413.45 352.833 1435.62 325.741 1457.06 299.54C1469.69 284.106 1481.62 269.529 1494.38 256.472C1496.7 254.098 1499.02 251.714 1501.33 249.328C1514.75 235.519 1528.62 221.241 1543.99 208.394C1560.08 194.882 1576.59 184.487 1593.05 177.499C1612.55 169.221 1631.68 165.916 1649.9 167.675C1660.99 168.745 1672.07 171.291 1683.77 175.46C1710.98 185.058 1736.49 202.54 1761.16 219.445C1764.9 222 1768.75 224.643 1772.51 227.187C1798.6 244.832 1823.97 264.917 1847.92 286.879C1874.05 310.788 1899.64 338.029 1923.98 367.844C1945.49 394.196 1966.59 423.257 1986.7 454.216L1986.22 454.437Z" fill="#A1A1A1"/>
<path d="M1984.52 437.305C1944.89 369.467 1898.94 312.204 1847.96 267.104C1823.38 245.297 1797.06 225.88 1769.74 209.385C1768.44 208.6 1767.14 207.815 1765.84 207.028C1737.42 189.854 1708.04 172.096 1677.53 164.101C1665.71 161.003 1654.64 159.398 1643.71 159.19C1601.53 158.393 1565.56 184.29 1542.82 206.153C1529.43 218.943 1517.55 232.962 1506.06 246.519C1503.22 249.871 1500.28 253.337 1497.38 256.713C1486.34 269.572 1476.07 284.192 1465.2 299.673C1445.43 327.83 1424.99 356.945 1396.76 380.06C1380.43 393.433 1362.82 403.463 1342.93 410.724C1303.73 425.028 1263.93 428.784 1226.76 430.713C1203.84 431.901 1179.89 431.698 1155.57 430.111C1135.6 428.767 1115.86 426.469 1096.89 423.281C1042.06 414.086 988.817 395.097 938.643 366.841C918.55 355.526 898.002 342.073 873.983 324.504C828.333 291.204 794.435 267.75 764.073 248.457C703.685 210.085 657.595 187.511 609.965 172.973C578.077 163.241 544.582 156.552 510.405 153.091C486.693 150.691 461.529 150.905 428.815 153.793C422.111 154.392 415.253 155.097 408.428 155.892C401.981 156.653 395.433 157.526 388.498 158.447C362.894 161.854 333.871 165.716 300.655 164.995C283.148 164.615 265.265 163.575 247.972 162.571C228.318 161.43 207.996 160.249 188.729 160.088C169.411 159.928 151.353 161.22 135.073 163.931C76.8362 173.624 30.6702 195.091 11.5805 221.353L11.0391 221.077C15.9969 214.254 22.754 207.702 31.1215 201.603C39.1984 195.713 48.8151 190.217 59.7066 185.264C80.8634 175.64 106.882 168.081 134.948 163.41C151.274 160.694 169.371 159.398 188.735 159.558C208.019 159.718 228.352 160.899 248.014 162.043C265.302 163.047 283.176 164.087 300.67 164.467C333.826 165.186 362.817 161.329 388.393 157.926C395.331 157.002 401.885 156.132 408.335 155.368C415.168 154.574 422.032 153.869 428.742 153.268C461.506 150.377 486.713 150.16 510.475 152.567C544.701 156.033 578.244 162.731 610.177 172.478C657.871 187.034 704.009 209.633 764.451 248.037C794.824 267.337 828.733 290.798 874.395 324.108C898.397 341.663 918.922 355.102 938.993 366.404C989.099 394.621 1042.26 413.584 1097.01 422.765C1115.95 425.948 1135.67 428.242 1155.62 429.586C1179.91 431.17 1203.83 431.373 1226.72 430.187C1263.83 428.261 1303.56 424.514 1342.67 410.243C1362.49 403.01 1380.04 393.013 1396.31 379.688C1424.48 356.622 1444.9 327.538 1464.65 299.411C1475.53 283.921 1485.8 269.289 1496.86 256.412C1499.76 253.038 1502.7 249.572 1505.54 246.219C1517.04 232.651 1528.93 218.623 1542.34 205.811C1557.18 191.542 1572.74 180.256 1588.59 172.264C1607.15 162.901 1625.7 158.33 1643.72 158.667C1654.72 158.874 1665.84 160.489 1677.71 163.601C1708.33 171.625 1737.75 189.406 1766.21 206.605C1767.51 207.393 1768.81 208.18 1770.11 208.963C1797.46 225.476 1823.81 244.918 1848.42 266.748C1899.44 311.888 1945.42 369.196 1985.08 437.081L1984.52 437.305Z" fill="#A1A1A1"/>
<path d="M1240.79 430.468C1239.21 430.468 1237.65 430.466 1236.11 430.459C1213.31 430.379 1189.37 428.894 1164.96 426.041C1145.06 423.671 1125.44 420.401 1106.65 416.325C1079.8 410.511 1052.86 402.155 1026.56 391.491C1001.16 381.193 975.588 368.424 950.539 353.535C925.995 338.948 903.07 322.694 885.839 310.163C845.522 280.923 807.162 256.483 771.826 237.52C714.593 206.809 663.591 188.087 611.313 178.602C579.776 172.88 545.939 169.862 513.361 169.862C512.856 169.862 512.354 169.862 511.849 169.864C483.862 169.945 457.29 174.292 432.749 178.979C426.362 180.208 419.754 181.549 413.11 182.971C409.469 183.758 405.823 184.569 401.965 185.427C374.753 191.489 343.909 198.357 306.437 197.794C283.617 197.449 260.308 195.474 237.766 193.561C223.212 192.326 208.163 191.051 193.809 190.28C174.076 189.221 155.917 189.56 139.831 191.293C81.9046 197.527 33.5868 214.276 10.5771 236.099L10.0469 235.71C21.8492 224.518 39.6022 214.828 62.8121 206.906C84.9786 199.343 111.581 193.741 139.74 190.711C155.869 188.976 174.076 188.632 193.854 189.695C208.222 190.466 223.279 191.744 237.84 192.979C260.367 194.891 283.662 196.867 306.451 197.209C343.827 197.772 374.617 190.914 401.784 184.864C405.645 184.003 409.291 183.192 412.935 182.405C419.585 180.983 426.198 179.639 432.591 178.411C457.175 173.717 483.791 169.362 511.846 169.28C544.944 169.183 579.386 172.21 611.463 178.031C638.443 182.928 664.6 190.136 691.423 200.066C717.256 209.631 743.681 221.722 772.204 237.03C807.568 256.007 845.956 280.466 886.299 309.724C903.516 322.248 926.424 338.491 950.943 353.061C1001.77 383.272 1054.22 404.367 1106.82 415.761C1125.59 419.833 1145.18 423.098 1165.05 425.465C1189.44 428.313 1213.34 429.799 1236.11 429.877C1271.74 429.999 1313.12 428.995 1353.47 415.403C1373.89 408.523 1391.56 398.463 1407.48 384.649C1435.45 360.389 1453.99 329.251 1471.92 299.136C1481.15 283.646 1489.86 269.014 1499.33 256.349C1502.37 252.291 1505.43 248.111 1508.39 244.068C1518.4 230.407 1528.74 216.285 1540.66 203.23C1554.28 188.212 1568.9 176.03 1584.1 167.023C1601.73 156.581 1619.7 150.739 1637.52 149.659C1648.51 148.992 1659.67 149.673 1671.63 151.743C1703.62 157.274 1735.32 173.344 1767.68 190.737C1795.9 205.902 1823.99 225.223 1848.9 246.614C1876.58 270.306 1902.58 298.101 1926.19 329.225C1947.22 356.954 1966.49 387.476 1983.45 419.946L1982.81 420.182C1946.38 350.451 1901.16 292.193 1848.4 247.027C1823.52 225.666 1795.48 206.373 1767.3 191.234C1734.99 173.872 1703.36 157.833 1671.49 152.321C1659.59 150.263 1648.5 149.586 1637.57 150.249C1604.83 152.236 1570.62 171.178 1541.22 203.589C1529.33 216.62 1518.99 230.73 1508.99 244.377C1506.03 248.422 1502.97 252.605 1499.93 256.662C1490.48 269.304 1481.77 283.924 1472.56 299.4C1463.76 314.176 1454.66 329.456 1444.22 344.144C1432.38 360.797 1420.54 374.179 1407.99 385.059C1392 398.934 1374.25 409.039 1353.73 415.952C1335.64 422.049 1316.18 426.078 1294.27 428.276C1275.71 430.127 1257.07 430.468 1240.79 430.468Z" fill="#A1A1A1"/>
<path d="M1286.02 431.65C1271.64 431.65 1257.82 430.933 1245.46 430.207C1222.74 428.872 1198.81 426.102 1174.34 421.971C1154.52 418.579 1135.03 414.339 1116.4 409.367C1065.39 395.78 1015.02 373.163 962.427 340.228C939.491 325.867 917.869 310.415 897.694 295.821C857.862 267.093 818.125 243.799 779.582 226.583C722.897 201.264 669.861 187.804 612.674 184.225C580.09 182.186 545.729 183.018 513.303 186.63C486.162 189.652 460.574 196.947 436.688 204.157C430.712 205.97 424.355 207.95 417.798 210.042C416.16 210.567 414.507 211.103 412.832 211.642C385.321 220.536 354.192 230.598 314.242 230.598C313.568 230.598 312.897 230.596 312.217 230.589C285.189 230.36 257.593 227.135 230.903 224.013C220.322 222.775 209.38 221.498 198.88 220.463C178.372 218.444 160.611 217.848 144.578 218.645C86.2657 221.545 37.0454 233.277 9.54324 250.839L9.07227 250.323C22.6683 241.642 42.3276 234.104 65.9183 228.526C89.1225 223.04 116.306 219.399 144.53 217.996C160.608 217.197 178.414 217.794 198.968 219.817C209.479 220.852 220.424 222.132 231.008 223.367C257.672 226.484 285.242 229.707 312.22 229.936C353.002 230.285 384.639 220.055 412.547 211.032C414.219 210.492 415.875 209.957 417.513 209.429C424.076 207.335 430.435 205.355 436.417 203.542C460.343 196.318 485.978 189.013 513.193 185.981C545.67 182.365 580.087 181.53 612.725 183.572C641.065 185.345 668.085 189.532 695.327 196.369C723.385 203.412 751.062 213.104 779.941 226.006C818.532 243.245 858.318 266.567 898.193 295.324C918.36 309.913 939.968 325.356 962.884 339.702C1015.41 372.592 1065.7 395.176 1116.63 408.742C1135.23 413.705 1154.7 417.94 1174.48 421.328C1198.92 425.454 1222.82 428.221 1245.51 429.551C1283.69 431.791 1324.3 432.942 1364.26 420.547C1385.29 414.024 1403.08 403.9 1418.65 389.596C1446.4 364.116 1463.66 329.362 1478.9 298.698C1486.57 283.269 1493.81 268.696 1501.8 256.273C1504.68 251.791 1507.58 247.159 1510.39 242.679C1519.16 228.663 1528.24 214.17 1538.98 200.634C1551.41 184.866 1565.08 171.788 1579.62 161.763C1596.31 150.251 1613.7 143.14 1631.3 140.634C1642.31 139.066 1653.51 138.816 1665.54 139.863C1699.17 142.793 1733.34 157.274 1765.25 172.488C1794.72 186.536 1823.81 205.199 1849.38 226.461C1877.83 250.042 1904.04 278.115 1927.29 309.894C1948.07 338.314 1966.42 369.567 1981.82 402.792L1981.1 403.025C1948.36 332.403 1902.63 271.506 1848.84 226.918C1823.32 205.696 1794.28 187.068 1764.87 173.05C1733.04 157.871 1698.96 143.425 1665.47 140.507C1653.5 139.464 1642.37 139.714 1631.44 141.27C1598.94 145.899 1566.34 167.106 1539.63 200.988C1528.91 214.495 1519.85 228.974 1511.08 242.976C1508.27 247.458 1505.37 252.091 1502.49 256.578C1494.51 268.972 1487.28 283.531 1479.62 298.943C1464.36 329.654 1447.06 364.465 1419.23 390.029C1403.57 404.411 1385.67 414.592 1364.53 421.153C1346.18 426.845 1326.39 430.141 1304.02 431.223C1297.97 431.529 1291.95 431.65 1286.02 431.65Z" fill="#A1A1A1"/>
<path d="M1314.4 434.203C1314.19 434.203 1313.99 434.203 1313.79 434.203C1293.46 434.16 1273.51 432.081 1254.81 429.954C1232.13 427.375 1208.21 423.317 1183.72 417.899C1164 413.488 1144.63 408.275 1126.16 402.409C1077.18 386.879 1028.94 362.895 974.323 326.923C954.655 313.973 935.301 300.027 916.58 286.543C914.24 284.855 911.896 283.17 909.553 281.484C869.515 252.762 828.4 230.612 787.352 215.65C731.144 195.164 674.456 186.724 614.048 189.848C580.925 191.562 546.595 196.247 514.77 203.395C489.659 209.037 467.284 218.088 440.639 229.334C435.238 231.624 429.471 234.094 422.494 237.112L422.105 237.282C408.644 243.143 393.387 249.785 376.274 254.835C356.621 260.635 337.554 263.426 318.001 263.393C287.513 263.33 256.398 258.586 226.31 253.996C218.938 252.871 211.312 251.709 203.951 250.657C182.842 247.646 164.974 246.126 149.325 246.01C91.7033 245.586 40.3707 252.725 8.49163 265.593L8.125 264.956C23.7402 258.652 44.804 253.536 69.0376 250.16C93.3164 246.776 121.084 245.098 149.333 245.305C165.027 245.421 182.941 246.944 204.095 249.962C211.461 251.013 219.087 252.175 226.462 253.3C256.513 257.883 287.589 262.622 318.004 262.686C318.14 262.686 318.278 262.686 318.413 262.686C361.92 262.686 395.065 248.257 421.716 236.655L422.108 236.485C429.088 233.465 434.855 230.994 440.258 228.705C466.948 217.44 489.363 208.372 514.552 202.714C546.432 195.551 580.818 190.859 613.997 189.143C643.558 187.615 671.441 188.78 699.245 192.708C729.206 196.94 758.138 204.232 787.691 215.004C828.817 229.994 870.003 252.18 910.105 280.949C912.449 282.634 914.792 284.322 917.133 286.011C935.845 299.489 955.194 313.43 974.845 326.372C1029.39 362.298 1077.56 386.25 1126.45 401.754C1144.9 407.613 1164.24 412.816 1183.94 417.223C1208.39 422.633 1232.27 426.684 1254.93 429.259C1295.5 433.875 1335.22 437.077 1375.07 425.722C1396.7 419.559 1414.61 409.372 1429.83 394.575C1457.33 367.846 1472.35 330.809 1485.6 298.129C1491.81 282.83 1497.67 268.377 1504.28 256.233C1506.82 251.56 1509.37 246.727 1511.84 242.052C1519.56 227.434 1527.53 212.321 1537.32 198.071C1548.58 181.546 1561.31 167.57 1575.14 156.531C1590.91 143.951 1607.72 135.576 1625.1 131.644C1635.88 129.206 1646.87 128.018 1658.69 128.018C1658.95 128.018 1659.2 128.018 1659.46 128.02C1696.2 128.18 1734 142.133 1762.83 154.27C1793.55 167.202 1823.65 185.205 1849.88 206.335C1879.1 229.808 1905.52 258.157 1928.39 290.596C1948.92 319.707 1966.35 351.693 1980.2 385.672L1979.4 385.901C1958.8 335.343 1919.5 263.24 1849.29 206.847C1823.12 185.764 1793.09 167.803 1762.45 154.902C1733.7 142.798 1696.02 128.885 1659.46 128.727C1647.42 128.668 1636.26 129.852 1625.32 132.327C1593.13 139.615 1562.13 163.088 1538.05 198.423C1528.29 212.639 1520.32 227.736 1512.61 242.337C1510.15 247.014 1507.59 251.85 1505.05 256.525C1498.45 268.639 1492.6 283.073 1486.4 298.355C1473.12 331.094 1458.08 368.202 1430.47 395.034C1415.15 409.93 1397.12 420.186 1375.34 426.389C1356.89 431.645 1336.95 434.203 1314.4 434.203Z" fill="#A1A1A1"/>
<path d="M1336.97 437.521C1332.59 437.521 1328.12 437.403 1323.54 437.168C1303.5 436.137 1284.01 433.046 1264.16 429.698C1241.14 425.818 1217.9 420.626 1193.1 413.827C1173.48 408.399 1154.24 402.217 1135.91 395.448C1089.41 378.303 1043.25 353.064 986.219 313.616C972.056 303.82 957.899 293.545 944.207 283.607C936.753 278.199 929.049 272.604 921.414 267.141C880.9 238.226 838.411 217.224 795.128 204.714C737.938 188.185 679.16 185.157 615.43 195.46C581.76 200.904 547.461 209.442 516.245 220.148C491.168 228.749 469.323 240.827 446.195 253.615L444.596 254.499C440.983 256.503 437.331 258.536 433.634 260.591C431.505 261.777 429.361 262.97 427.198 264.173C413.712 271.71 399.146 279.573 382.442 285.625C363.048 292.651 343.865 296.108 323.791 296.192C290.372 296.329 256.285 289.836 223.323 283.551C218.619 282.652 213.751 281.726 209.028 280.846C186.881 276.72 169.421 274.346 154.074 273.37C97.4396 269.77 43.9919 272.307 7.43136 280.332L7.19727 279.592C43.8537 271.545 97.4114 268.999 154.145 272.606C169.534 273.585 187.039 275.966 209.228 280.099C213.955 280.981 218.822 281.907 223.529 282.805C256.088 289.013 289.744 295.429 322.72 295.429C323.075 295.429 323.43 295.429 323.789 295.426C366.441 295.247 396.802 280.238 426.693 263.536C428.856 262.334 431 261.141 433.129 259.955C436.826 257.897 440.475 255.867 444.091 253.86L445.69 252.976C468.858 240.167 490.739 228.067 515.898 219.438C547.171 208.711 581.529 200.159 615.258 194.706C679.149 184.377 738.084 187.414 795.429 203.988C838.82 216.531 881.408 237.58 922.012 266.559C929.646 272.024 937.354 277.616 944.808 283.027C958.494 292.962 972.648 303.235 986.803 313.024C1043.76 352.428 1089.86 377.631 1136.28 394.748C1154.58 401.505 1173.79 407.68 1193.39 413.098C1218.15 419.888 1241.36 425.073 1264.34 428.946C1299.23 434.829 1342.64 442.152 1385.88 430.873C1408.11 425.075 1426.14 414.824 1441.01 399.532C1468.24 371.523 1480.86 332.128 1492.01 297.374C1496.85 282.275 1501.42 268.013 1506.75 256.178C1508.83 251.566 1510.92 246.797 1512.93 242.183C1519.69 226.709 1526.67 210.71 1535.65 195.493C1545.77 178.2 1557.55 163.325 1570.66 151.282C1585.52 137.636 1601.74 128 1618.89 122.641C1629.9 119.201 1641.17 117.082 1653.37 116.16C1669.7 114.924 1687.09 116.245 1706.52 120.187C1722.96 123.525 1740.59 128.707 1760.41 136.033C1792.37 147.847 1823.48 165.193 1850.37 186.192C1880.37 209.555 1906.99 238.184 1929.5 271.281C1949.77 301.085 1966.28 333.804 1978.57 368.535L1977.69 368.752C1951.73 295.429 1906.29 230.793 1849.74 186.754C1822.93 165.81 1791.91 148.514 1760.04 136.735C1717.33 120.953 1683.47 114.656 1653.45 116.924C1641.34 117.839 1630.14 119.944 1619.21 123.358C1578.42 136.106 1551.7 169.807 1536.47 195.831C1527.52 211.009 1520.54 226.99 1513.79 242.444C1511.77 247.061 1509.69 251.833 1507.61 256.447C1502.29 268.247 1497.73 282.492 1492.89 297.572C1481.73 332.402 1469.07 371.879 1441.72 400.015C1426.73 415.427 1408.56 425.761 1386.15 431.606C1370.96 435.567 1354.77 437.521 1336.97 437.521Z" fill="#A1A1A1"/>
<path d="M1356.53 441.327C1326.7 441.327 1298.03 434.922 1273.5 429.442C1250.42 424.288 1227.19 417.847 1202.48 409.753C1182.96 403.317 1163.84 396.164 1145.65 388.489C1091.13 365.511 1042.52 332.53 998.11 300.31C989.043 293.732 979.883 286.951 971.028 280.394C958.732 271.289 946.016 261.875 933.274 252.802C892.153 223.603 848.292 203.744 802.91 193.778C744.202 180.889 683.329 183.272 616.813 201.068C582.565 210.23 548.3 222.619 517.721 236.898C494.136 247.908 474.18 261.809 453.055 276.525C451.557 277.568 450.057 278.614 448.548 279.661L447.73 280.232C442.595 283.813 437.284 287.515 431.9 291.23C419.001 300.173 404.796 309.422 388.366 316.488C369.293 324.691 350.065 328.781 329.577 328.993C293.614 329.368 256.96 320.916 221.517 312.742C219.032 312.169 216.559 311.598 214.097 311.035C190.723 305.673 173.673 302.495 158.816 300.727C103.603 294.159 48.0344 292.093 6.35802 295.062L6.27344 294.239C48.0175 291.263 103.668 293.331 158.954 299.909C173.853 301.682 190.94 304.867 214.356 310.238C216.818 310.801 219.291 311.372 221.779 311.947C257.155 320.105 293.738 328.536 329.563 328.168C374.056 327.706 405.391 308.531 431.269 290.594C436.652 286.878 441.963 283.176 447.098 279.598L447.916 279.027C449.425 277.978 450.925 276.933 452.423 275.891C473.585 261.149 493.575 247.224 517.239 236.176C547.874 221.872 582.204 209.461 616.511 200.283C648.046 191.847 677.666 186.976 707.061 185.392C739.851 183.626 772.181 186.179 803.158 192.981C848.684 202.978 892.675 222.893 933.912 252.173C946.662 261.25 959.38 270.667 971.679 279.774C980.535 286.331 989.689 293.109 998.753 299.685C1043.11 331.87 1091.67 364.816 1146.09 387.751C1164.26 395.414 1183.35 402.558 1202.83 408.985C1227.51 417.067 1250.71 423.499 1273.75 428.645C1309.13 436.548 1353.17 446.385 1396.68 436.034C1419.51 430.602 1437.66 420.287 1452.17 404.5C1479.12 375.173 1489.2 333.355 1498.1 296.457C1501.68 281.632 1505.05 267.63 1509.22 256.132C1510.76 251.878 1512.3 247.484 1513.8 243.233C1519.64 226.606 1525.69 209.412 1533.97 192.924C1542.96 174.848 1553.8 159.071 1566.16 146.035C1580.11 131.325 1595.76 120.428 1612.67 113.645C1623.65 109.241 1634.96 106.188 1647.26 104.309C1663.83 101.779 1682.22 101.864 1701.91 104.561C1719.16 106.923 1738.02 111.377 1757.97 117.802C1791.18 128.498 1823.29 145.184 1850.84 166.054C1881.62 189.308 1908.45 218.213 1930.59 251.97C1950.59 282.467 1966.19 315.922 1976.94 351.405L1975.98 351.608C1953.2 276.422 1908.52 210.741 1850.18 166.667C1822.72 145.865 1790.71 129.234 1757.61 118.573C1714.71 104.754 1678.67 100.352 1647.44 105.122C1635.23 106.987 1623.99 110.019 1613.09 114.39C1572.86 130.528 1548.35 166.177 1534.88 193.243C1526.62 209.688 1520.58 226.859 1514.74 243.464C1513.25 247.715 1511.7 252.112 1510.16 256.37C1506.01 267.83 1502.64 281.814 1499.07 296.62C1494.79 314.371 1489.94 334.489 1482.9 353.351C1474.83 374.961 1465.03 391.856 1452.95 405.003C1445.97 412.604 1437.94 419.073 1429.1 424.232C1419.58 429.779 1408.76 434.019 1396.95 436.829C1383.43 440.047 1369.86 441.327 1356.53 441.327Z" fill="#A1A1A1"/>
<path d="M1374.15 445.503C1364.29 445.503 1353.96 444.702 1343.05 443.101C1321.56 439.948 1300.99 434.229 1282.84 429.186C1259.96 422.827 1236.08 414.917 1211.85 405.677C1192.46 398.241 1173.47 390.117 1155.4 381.525C1103.55 356.894 1058.87 324.144 1010 287.001C1005.65 283.7 1001.24 280.333 996.98 277.075C980.186 264.252 962.822 250.992 945.131 238.463C903.328 208.922 858.095 190.209 810.689 182.843C750.89 173.552 686.122 181.568 618.193 206.672C583.336 219.555 549.102 235.794 519.194 253.64C496.675 267.076 478.138 282.917 458.513 299.69C456.519 301.395 454.516 303.104 452.503 304.82C447.491 309.097 442.094 313.688 436.603 318.283C425.088 327.952 411.055 338.969 394.289 347.346C375.521 356.725 356.245 361.452 335.365 361.794C297.14 362.423 258.23 351.842 220.601 341.61L219.168 341.221C200.744 336.213 181.254 331.153 163.56 328.081C109.628 318.719 53.419 312.219 5.29297 309.779L5.35783 308.897C53.5346 311.339 109.794 317.844 163.775 327.216C181.519 330.297 201.043 335.364 219.495 340.379L220.928 340.768C258.476 350.977 297.306 361.532 335.345 360.907C379.274 360.186 409.614 339.693 435.855 317.653C441.346 313.06 446.738 308.47 451.75 304.196C453.763 302.481 455.766 300.77 457.76 299.068C477.419 282.267 495.99 266.397 518.582 252.916C548.546 235.035 582.845 218.765 617.767 205.859C649.638 194.082 681.001 185.967 710.979 181.742C745.233 176.916 778.846 176.992 810.886 181.969C858.473 189.362 903.872 208.141 945.816 237.784C963.521 250.325 980.894 263.589 997.696 276.42C1001.96 279.676 1006.37 283.042 1010.71 286.343C1059.54 323.451 1104.17 356.166 1155.93 380.754C1173.97 389.331 1192.93 397.444 1212.29 404.871C1236.49 414.096 1260.33 421.995 1283.18 428.344C1318.99 438.298 1363.55 450.683 1407.49 441.193C1430.93 436.131 1449.2 425.755 1463.35 409.468C1490 378.783 1497.71 332.533 1503.91 295.368C1506.33 280.892 1508.6 267.22 1511.7 256.092C1512.67 252.584 1513.65 248.969 1514.6 245.473C1519.54 227.309 1524.65 208.526 1532.3 190.362C1544.13 162.096 1566.59 124.283 1606.45 104.66C1617.46 99.2423 1628.82 95.2531 1641.17 92.4663C1673.49 85.0703 1711.97 87.4633 1755.54 99.5747C1789.99 109.154 1823.12 125.179 1851.33 145.92C1882.89 169.063 1909.93 198.246 1931.7 232.666C1941.69 248.453 1950.51 265.315 1957.93 282.783C1965.02 299.468 1970.87 316.795 1975.32 334.282L1974.28 334.466C1954.69 257.412 1910.78 190.687 1850.63 146.582C1822.53 125.919 1789.53 109.956 1755.2 100.412C1711.84 88.3545 1673.56 85.9685 1641.45 93.3174C1629.18 96.083 1617.91 100.042 1606.99 105.419C1567.4 124.906 1545.07 162.525 1533.3 190.652C1525.66 208.768 1520.57 227.526 1515.63 245.666C1514.68 249.163 1513.7 252.779 1512.73 256.29C1509.65 267.38 1507.37 281.034 1504.96 295.489C1501.84 314.19 1498.31 335.385 1492.26 355.39C1485.32 378.378 1476.14 396.237 1464.2 409.987C1457.39 417.831 1449.42 424.447 1440.52 429.648C1430.93 435.252 1419.91 439.425 1407.76 442.047C1397.09 444.353 1385.96 445.503 1374.15 445.503Z" fill="#A1A1A1"/>
<path d="M1390.39 449.912C1378.58 449.912 1366.12 448.632 1352.8 446.064C1331.24 441.908 1310.49 435.009 1292.18 428.922C1269.13 421.259 1245.25 412.067 1221.22 401.596C1201.96 393.167 1183.09 384.072 1165.15 374.558C1115.76 348.4 1073.4 314.685 1028.55 278.994C1026.33 277.229 1024.11 275.46 1021.89 273.692C1001.03 257.113 979.472 239.968 956.992 224.124C914.461 194.207 867.858 176.638 818.477 171.904C756.451 165.955 689.531 179.538 619.574 212.27C584.582 228.641 549.456 249.278 520.668 270.377C498.93 286.308 481.496 304.233 463.038 323.213C460.853 325.46 458.661 327.714 456.453 329.972C452.042 334.492 446.794 339.851 441.3 345.333C431.125 355.511 417.261 368.445 400.211 378.175C381.741 388.716 362.423 394.089 341.151 394.596C323.666 394.962 304.37 392.705 282.159 387.695C263.089 383.395 244.642 377.774 224.23 371.408C205.597 365.526 185.932 359.45 168.289 355.438C116.029 343.55 60.827 333.141 4.2207 324.493L4.42375 323.566C61.0638 332.217 116.297 342.635 168.585 354.527C186.276 358.552 205.969 364.637 224.625 370.524C258.839 381.198 301.42 394.485 341.12 393.653C386.508 392.569 415.676 369.496 440.435 344.724C445.926 339.247 451.171 333.891 455.579 329.373C457.787 327.115 459.978 324.861 462.161 322.616C480.65 303.606 498.115 285.65 519.924 269.667C548.771 248.526 583.964 227.849 619.024 211.447C689.193 178.616 756.343 164.998 818.607 170.968C842.48 173.257 865.929 178.574 888.299 186.769C912.301 195.561 935.658 207.889 957.72 223.405C980.225 239.265 1001.8 256.42 1022.67 273.011C1024.89 274.781 1027.12 276.547 1029.33 278.313C1074.14 313.973 1116.46 347.655 1165.75 373.764C1183.67 383.263 1202.51 392.347 1221.75 400.762C1245.75 411.216 1269.58 420.396 1292.6 428.047C1328.77 440.071 1373.79 455.035 1418.3 446.357C1442.41 441.656 1460.8 431.216 1474.51 414.443C1500.93 382.407 1505.63 333.469 1509.42 294.147C1510.77 280.084 1512.05 266.8 1514.17 256.059C1514.6 253.843 1515.04 251.615 1515.48 249.375C1519.43 229.144 1523.52 208.222 1530.63 187.804C1540.78 158.437 1561.09 118.615 1600.23 95.68C1611.15 89.2812 1622.54 84.3584 1635.07 80.6285C1652.47 75.3968 1671.86 72.9378 1692.71 73.315C1711.74 73.6592 1732.06 76.3635 1753.1 81.35C1788.8 89.807 1822.93 105.172 1851.81 125.783C1884.15 148.813 1911.4 178.279 1932.8 213.359C1942.62 229.455 1951.12 246.664 1958.07 264.506C1964.72 281.595 1969.98 299.311 1973.69 317.161L1972.57 317.321C1956.43 239.539 1912.14 169.987 1851.08 126.5C1822.32 105.978 1788.33 90.677 1752.79 82.253C1708.96 71.865 1668.38 71.6104 1635.44 81.5127C1623.02 85.2142 1611.71 90.0993 1600.87 96.4486C1562 119.226 1541.81 158.842 1531.71 188.063C1524.62 208.427 1520.54 229.318 1516.59 249.523C1516.15 251.763 1515.71 253.994 1515.28 256.21C1513.16 266.911 1511.89 280.178 1510.54 294.22C1506.75 333.655 1502.03 382.735 1475.44 414.976C1468.83 423.061 1460.93 429.827 1451.95 435.082C1442.29 440.736 1431.06 444.838 1418.56 447.276C1409.53 449.03 1400.19 449.912 1390.39 449.912Z" fill="#A1A1A1"/>
<path d="M1405.66 454.503C1392.19 454.503 1377.93 452.683 1362.56 449.028C1340.81 443.858 1319.93 435.783 1301.51 428.66C1278.23 419.659 1254.37 409.179 1230.59 397.518C1211.47 388.111 1192.73 378.041 1174.88 367.594C1130.96 341.877 1093.41 310.371 1053.66 277.014C1047.16 271.561 1040.44 265.924 1033.78 260.381C1010.34 240.906 990.328 224.848 968.847 209.785C925.557 179.472 877.586 163.046 826.262 160.962C761.771 158.343 692.691 177.487 620.946 217.862C585.305 237.922 550.211 262.512 522.13 287.108C500.976 305.637 484.439 325.807 466.931 347.16C464.763 349.805 462.586 352.46 460.394 355.117C456.491 359.859 451.325 366.106 445.992 372.371C423.549 398.796 394.228 426.001 346.931 427.392C345.456 427.432 343.975 427.451 342.497 427.451C305.565 427.451 267.859 415.231 229.285 401.587L226.877 400.729C207.77 393.911 189.721 387.472 173.014 382.785C110.054 365.121 49.1641 350.211 3.15039 339.196L3.48036 338.232C49.5054 349.251 110.412 364.164 173.395 381.835C190.147 386.533 208.216 392.982 227.347 399.807L229.753 400.665C269.74 414.809 308.791 427.425 346.888 426.392C393.661 425.015 422.737 398.02 445.013 371.793C450.343 365.533 455.504 359.29 459.407 354.551C461.598 351.892 463.773 349.24 465.942 346.594C483.477 325.208 500.04 305.005 521.262 286.417C549.399 261.77 584.563 237.129 620.275 217.03C653.42 198.376 686.577 184.053 718.822 174.455C755.82 163.442 791.989 158.567 826.319 159.96C877.908 162.054 926.121 178.56 969.614 209.014C991.126 224.101 1011.16 240.176 1034.62 259.667C1041.29 265.209 1048.01 270.849 1054.51 276.302C1094.22 309.626 1131.73 341.101 1175.57 366.767C1193.39 377.202 1212.1 387.255 1231.19 396.648C1254.94 408.295 1278.77 418.758 1302.01 427.746C1338.5 441.856 1383.91 459.416 1429.1 451.511C1453.81 447.189 1472.31 436.688 1485.67 419.409C1511.76 385.913 1513.33 334.221 1514.59 292.686C1515 279.134 1515.39 266.332 1516.63 256.017L1516.66 255.781C1519.45 232.683 1522.33 208.8 1528.95 185.235C1534.68 164.68 1542.65 146.201 1552.66 130.305C1563.94 112.385 1577.85 97.7103 1594 86.6882C1604.81 79.3133 1616.24 73.4545 1628.95 68.7792C1663.29 56.0737 1705.37 54.1121 1750.65 63.1113C1768.87 66.7327 1786.84 72.2191 1804.07 79.4147C1821.4 86.6528 1837.63 95.4776 1852.29 105.639C1885.41 128.558 1912.87 158.303 1933.89 194.048C1952.79 226.176 1965.99 262.826 1972.05 300.032L1970.87 300.167C1957.89 220.534 1914.39 149.912 1851.52 106.41C1822.12 86.0351 1787.14 71.3986 1750.38 64.0921C1705.36 55.1447 1663.54 57.0851 1629.44 69.7034C1616.83 74.3433 1605.49 80.155 1594.76 87.4709C1564.6 108.051 1542.25 141.938 1530.12 185.468C1523.52 208.972 1520.64 232.822 1517.86 255.887L1517.83 256.123C1516.59 266.4 1516.2 279.183 1515.79 292.717C1514.52 334.379 1512.95 386.227 1486.68 419.958C1480.24 428.29 1472.39 435.203 1463.36 440.503C1453.62 446.218 1442.18 450.252 1429.35 452.499C1421.71 453.833 1413.83 454.503 1405.66 454.503Z" fill="#A1A1A1"/>
<path d="M347.809 460.275C331.294 460.275 313.31 457.585 293.013 452.092C272.846 446.634 252.902 439.098 234.351 431.771C230.992 430.436 227.659 429.104 224.348 427.782C207.867 421.197 192.3 414.977 177.75 410.132C119.737 390.82 64.4393 373.463 10.9606 356.681L2.09961 353.899L2.54518 352.906L11.4061 355.688C64.8877 372.475 120.194 389.832 178.219 409.149C192.807 414.006 208.394 420.232 224.895 426.827C228.203 428.149 231.537 429.482 234.893 430.814C272.973 445.856 313.431 460.433 352.671 459.134C400.907 457.455 429.814 426.042 449.605 398.865C454.676 391.914 459.561 384.987 463.249 379.73C465.286 376.832 467.308 373.937 469.324 371.049C486.048 347.106 501.843 324.492 522.617 303.169C550.037 275.027 585.168 246.419 621.542 222.618C655.288 200.536 689.342 183.09 722.761 170.764C761.092 156.625 798.533 149.288 834.041 148.955C887.472 148.29 937.098 163.658 981.522 194.626C1006.15 211.813 1028.23 230.406 1046.58 246.327C1056.57 254.992 1066.55 263.873 1076.21 272.462C1110.4 302.869 1145.75 334.309 1185.4 359.774C1203.11 371.152 1221.7 382.177 1240.65 392.539C1264.1 405.334 1287.92 417.08 1311.44 427.449C1348.2 443.656 1393.95 463.826 1439.92 456.668C1465.22 452.728 1483.84 442.166 1496.85 424.377C1522.58 389.363 1520.85 334.839 1519.45 291.029C1519.04 278.074 1518.64 265.835 1519.11 255.982C1520.17 233.77 1521.77 207.956 1527.28 182.672C1531.94 161.248 1538.96 141.866 1548.16 125.065C1558.56 106.059 1571.9 90.1262 1587.79 77.7059C1598.31 69.4753 1610.11 62.4895 1622.85 56.9395C1641.03 48.9941 1661.43 43.9982 1683.48 42.0932C1704.14 40.3084 1725.92 41.2468 1748.21 44.8799C1767.01 47.9449 1785.54 52.9856 1803.29 59.8654C1821.15 66.7875 1837.8 75.4119 1852.77 85.4981C1870.04 97.112 1885.91 110.827 1899.95 126.262C1913.26 140.887 1925.05 157.198 1935 174.739C1953.62 207.555 1965.87 244.962 1970.43 282.909L1969.17 283.015C1959.38 201.527 1916.66 129.837 1851.98 86.3256C1822.35 66.3749 1785.42 52.0261 1747.97 45.922C1701.66 38.3751 1658.6 42.5105 1623.44 57.8802C1610.8 63.3854 1599.1 70.317 1588.65 78.4816C1558.71 101.884 1538.48 137.002 1528.53 182.863C1523.02 208.079 1521.44 233.848 1520.38 256.024C1519.91 265.842 1520.3 278.062 1520.72 291.001C1521.4 312.614 1522.19 337.112 1519.57 360.795C1516.53 388.276 1509.45 409.255 1497.93 424.931C1491.66 433.508 1483.87 440.57 1474.78 445.917C1464.97 451.693 1453.31 455.661 1440.15 457.71C1433.51 458.745 1426.87 459.214 1420.28 459.214C1380.77 459.214 1342.5 442.338 1310.85 428.385C1287.29 418 1263.44 406.237 1239.96 393.423C1220.98 383.047 1202.37 372.006 1184.63 360.611C1144.9 335.094 1109.51 303.621 1075.29 273.186C1065.63 264.599 1055.65 255.72 1045.67 247.061C1027.34 231.158 1005.29 212.591 980.712 195.437C936.529 164.634 887.193 149.356 834.061 150.011C750.621 150.794 672.863 190.377 622.326 223.448C586.025 247.202 550.965 275.749 523.604 303.834C502.892 325.093 487.119 347.672 470.421 371.577C468.405 374.465 466.38 377.36 464.344 380.26C460.652 385.52 455.765 392.452 450.691 399.409C442.383 410.818 429.34 427.426 412.063 439.874C403.674 445.919 394.745 450.67 385.526 453.997C375.246 457.705 364.208 459.789 352.725 460.188C351.097 460.247 349.459 460.275 347.809 460.275Z" fill="#A1A1A1"/>
<path d="M353.111 493.099C336.577 493.099 318.629 490.201 298.44 484.288C277.537 478.167 256.87 469.562 239.414 461.949C234.05 459.605 228.697 457.229 223.519 454.93C209.046 448.505 195.374 442.434 182.483 437.479C136.19 419.678 90.1989 402.3 45.7193 385.492C31.0065 379.932 15.7946 374.184 1.05078 368.601L1.60352 367.58C16.3473 373.163 31.5593 378.911 46.2721 384.471C90.7516 401.279 136.748 418.66 183.044 436.462C195.969 441.432 209.658 447.508 224.148 453.942C229.323 456.241 234.676 458.615 240.034 460.959C276.239 476.741 318.234 493.448 358.447 491.875C407.819 489.899 435.55 455.597 454.197 425.935C458.977 418.337 463.599 410.707 467.091 404.91C468.884 401.934 470.667 398.961 472.446 395.995C488.442 369.318 503.55 344.121 523.973 319.925C550.537 288.454 585.639 255.883 622.809 228.211C674.573 189.84 754.578 143.035 841.76 137.959C897.205 134.644 948.236 148.87 993.429 180.246C1013.73 194.35 1033.81 210.618 1058.54 232.999C1071.04 244.309 1083.44 256.031 1095.43 267.365C1126.63 296.852 1158.88 327.344 1195.23 352.795C1212.84 365.128 1231.31 377.122 1250.11 388.444C1272.88 402.139 1296.69 415.168 1320.86 427.168C1357.99 445.49 1404.21 468.296 1450.73 461.84C1476.23 458.375 1495.5 447.447 1508.01 429.363C1533.4 392.765 1527.95 332.889 1523.97 289.171C1522.85 276.902 1521.8 265.314 1521.59 255.965C1521.13 235.189 1521.17 207.796 1525.62 180.128C1533.29 132.185 1552.12 94.707 1581.57 68.7419C1591.89 59.5941 1603.73 51.6464 1616.75 45.1179C1635.27 35.8192 1656.17 29.5643 1678.87 26.53C1700.26 23.6725 1722.76 23.7173 1745.77 26.6644C1765.18 29.2059 1784.27 33.8129 1802.5 40.3531C1820.91 46.9593 1837.99 55.3762 1853.26 65.3704C1870.91 76.9183 1887.04 90.6801 1901.18 106.276C1914.59 121.056 1926.34 137.598 1936.11 155.446C1954.44 188.953 1965.75 227.114 1968.81 265.804L1967.47 265.877C1960.88 182.528 1918.95 109.768 1852.44 66.2545C1822.28 46.5137 1784.32 32.8462 1745.57 27.7725C1697.79 21.6543 1653.49 27.9847 1617.45 46.0799C1604.53 52.5541 1592.79 60.4381 1582.55 69.5129C1553.29 95.3059 1534.59 132.571 1526.95 180.279C1522.51 207.871 1522.48 235.211 1522.94 255.947C1523.15 265.262 1524.2 276.836 1525.31 289.088C1527.37 311.687 1529.7 337.303 1528.37 362.311C1526.81 391.431 1520.54 413.548 1509.18 429.927C1503.07 438.761 1495.34 445.976 1486.2 451.37C1476.3 457.219 1464.44 461.114 1450.95 462.949C1430.02 465.851 1407.5 463.243 1382.09 454.975C1360.01 447.786 1338.85 437.347 1320.18 428.137C1295.97 416.12 1272.14 403.073 1249.33 389.358C1230.5 378.02 1212.01 366.01 1194.38 353.661C1157.95 328.158 1125.66 297.633 1094.43 268.115C1082.44 256.784 1070.04 245.068 1057.56 233.768C1032.87 211.426 1012.83 195.189 992.574 181.118C947.649 149.922 896.943 135.78 841.851 139.074C755.043 144.131 675.303 190.792 623.694 229.048C586.598 256.663 551.569 289.166 525.062 320.571C504.695 344.699 489.61 369.86 473.639 396.497C471.86 399.466 470.077 402.439 468.284 405.414C464.79 411.216 460.164 418.853 455.379 426.459C436.568 456.385 408.558 490.993 358.506 492.995C356.727 493.063 354.925 493.099 353.111 493.099Z" fill="#A1A1A1"/>
<path d="M358.518 525.926C313.34 525.926 265.935 502.729 223.912 482.163C210.999 475.844 198.802 469.875 187.211 464.827L0 383.305L0.651474 382.261L187.862 463.782C199.484 468.842 211.695 474.819 224.626 481.147C268.273 502.507 317.747 526.718 364.221 524.62C414.682 522.345 441.265 485.155 458.786 453.013C464.517 442.5 470.05 431.803 475.403 421.457C490.042 393.165 505.178 363.909 525.322 336.68C541.318 315.06 561.189 292.386 582.786 271.113C606.478 247.774 631.846 226.362 658.177 207.472C687.211 186.646 716.732 169.419 745.918 156.27C778.201 141.728 810.004 132.234 840.45 128.049C901.442 119.667 956.914 132.387 1005.32 165.859C1045.55 193.672 1079.74 228.066 1112.81 261.328C1141.59 290.281 1171.35 320.216 1205.05 345.806C1243.98 375.362 1286.11 402.638 1330.28 426.873C1367.49 447.293 1413.8 472.709 1461.53 466.996C1501.85 462.172 1525.15 439.623 1532.79 398.057C1539.28 362.702 1533.1 320.761 1528.14 287.063C1526.45 275.578 1524.85 264.731 1524.07 255.934C1519.74 207.441 1522.5 167.41 1532.5 133.556C1538.74 112.434 1547.94 93.6053 1559.86 77.5943C1573.16 59.709 1590.25 44.799 1610.64 33.2793C1628.28 23.3134 1648.16 16.0753 1669.73 11.7655C1690.27 7.66314 1711.89 6.28862 1733.99 7.67965C1777.46 10.4146 1819.99 23.7496 1853.73 45.2257C1871.77 56.7053 1888.14 70.5166 1902.4 86.273C1915.92 101.207 1927.62 117.981 1937.2 136.136C1955.24 170.334 1965.6 209.252 1967.16 248.679L1965.75 248.72C1962.43 164.758 1920.23 89.0361 1852.87 46.1664C1781.34 0.639609 1679.8 -4.37046 1611.43 34.2578C1543.7 72.523 1515.58 145.005 1525.47 255.847C1526.25 264.615 1527.85 275.449 1529.54 286.919C1534.51 320.69 1540.7 362.72 1534.18 398.237C1530.62 417.581 1523.48 433.128 1512.95 444.447C1507.03 450.811 1499.89 456.012 1491.73 459.902C1483.05 464.042 1472.96 466.822 1461.73 468.165C1457.14 468.715 1452.48 468.991 1447.73 468.991C1430.43 468.991 1412.01 465.334 1391.82 457.926C1369.08 449.58 1347.13 437.537 1329.5 427.861C1285.27 403.591 1243.08 376.28 1204.1 346.681C1170.32 321.037 1140.53 291.066 1111.72 262.083C1078.69 228.863 1044.55 194.512 1004.42 166.769C956.333 133.526 901.241 120.888 840.67 129.213C718.145 146.052 591.932 248.885 526.513 337.302C506.422 364.456 491.306 393.672 476.686 421.927C471.331 432.277 465.795 442.981 460.058 453.503C448.425 474.842 436.936 490.123 423.901 501.586C415.765 508.739 406.938 514.378 397.665 518.346C387.355 522.758 376.125 525.266 364.286 525.801C362.374 525.884 360.447 525.926 358.518 525.926Z" fill="#A1A1A1"/>
</g>
</svg>
