<svg width="286" height="286" viewBox="0 0 286 286" fill="none" xmlns="http://www.w3.org/2000/svg">
<path d="M253.109 74.7045C244.864 78.3575 236.117 80.7541 227.161 81.8144C236.594 76.17 243.654 67.2879 247.023 56.8238C238.156 62.0877 228.453 65.7945 218.335 67.7833C214.107 63.2743 208.999 59.6815 203.326 57.2276C197.653 54.7737 191.537 53.5109 185.356 53.5176C160.405 53.5176 140.174 73.7435 140.174 98.6999C140.174 102.238 140.574 105.69 141.346 108.999C103.795 107.114 70.5042 89.1246 48.219 61.7859C44.2009 68.6815 42.0896 76.5219 42.1015 84.5028C42.0956 91.9417 43.9273 99.2669 47.4338 105.827C50.9404 112.388 56.0132 117.981 62.2016 122.109C55.0279 121.881 48.0122 119.944 41.7383 116.458C41.7326 116.646 41.7326 116.832 41.7326 117.027C41.7326 138.911 57.3053 157.173 77.9716 161.328C71.3171 163.13 64.34 163.394 57.5684 162.1C63.317 180.047 80.0022 193.114 99.7734 193.48C83.7686 206.04 64.0049 212.853 43.6602 212.822C40.0137 212.822 36.4187 212.611 32.8809 212.19C53.5396 225.464 77.5831 232.51 102.139 232.485C185.244 232.485 230.69 163.642 230.69 103.942C230.69 101.986 230.644 100.033 230.558 98.0907C239.409 91.7012 247.046 83.7812 253.109 74.7045V74.7045Z" fill="white"/>
</svg>
