<svg width="287" height="286" viewBox="0 0 287 286" fill="none" xmlns="http://www.w3.org/2000/svg">
<path d="M235.449 40.0312H52.2602C49.2458 40.0312 46.3549 41.2287 44.2234 43.3602C42.092 45.4916 40.8945 48.3825 40.8945 51.3969V234.588C40.8953 237.602 42.0931 240.492 44.2245 242.623C46.3558 244.754 49.2463 245.951 52.2602 245.951H150.882V166.209H124.046V135.132H150.882V112.212C150.882 85.6139 167.126 71.1337 190.853 71.1337C202.219 71.1337 211.985 71.9774 214.834 72.3578V100.154L198.378 100.163C185.473 100.163 182.976 106.295 182.976 115.292V135.135H213.75L209.743 166.212H182.976V245.951H235.452C238.466 245.95 241.356 244.753 243.487 242.621C245.617 240.49 246.815 237.599 246.815 234.586V51.3969C246.815 48.3825 245.617 45.4916 243.486 43.3602C241.354 41.2287 238.463 40.0313 235.449 40.0312V40.0312Z" fill="white"/>
</svg>
