<svg width="287" height="286" viewBox="0 0 287 286" fill="none" xmlns="http://www.w3.org/2000/svg">
<path d="M231.423 40.0312H55.9568C47.5655 40.0312 40.7559 46.6807 40.7559 54.8689V231.094C40.7559 239.293 47.5655 245.951 55.9568 245.951H231.423C239.82 245.951 246.676 239.293 246.676 231.094V54.8689C246.676 46.6807 239.82 40.0312 231.423 40.0312ZM101.828 215.504H71.2721V117.237H101.828V215.504ZM86.5502 103.801C84.2244 103.801 81.9214 103.342 79.7727 102.452C77.6241 101.562 75.672 100.257 74.0279 98.6114C72.3839 96.9663 71.0801 95.0133 70.1911 92.8641C69.3021 90.7149 68.8453 88.4116 68.8468 86.0858C68.8468 81.391 70.7118 76.8884 74.0316 73.5686C77.3513 70.2489 81.8539 68.3839 86.5487 68.3839C91.2436 68.3839 95.7462 70.2489 99.0659 73.5686C102.386 76.8884 104.251 81.391 104.251 86.0858C104.251 90.7816 102.386 95.2853 99.0672 98.6071C95.7481 101.929 91.246 103.797 86.5502 103.801V103.801ZM216.217 215.504H185.709V167.719C185.709 156.319 185.486 141.661 169.833 141.661C153.937 141.661 151.515 154.077 151.515 166.892V215.507H120.985V117.237H150.285V130.656H150.703C154.781 122.934 164.745 114.786 179.606 114.786C210.511 114.786 216.22 135.132 216.22 161.601V215.504H216.217Z" fill="white"/>
</svg>
