<svg width="1301" height="876" viewBox="0 0 1301 876" fill="none" xmlns="http://www.w3.org/2000/svg">
<g clip-path="url(#clip0_587_2511)">
<path d="M-18.3131 0.347656V879.655H1300.65V0.347656H-18.3131Z" fill="url(#paint0_radial_587_2511)"/>
<path d="M68.3149 723.137L114.461 879.653" stroke="url(#paint1_linear_587_2511)" stroke-width="0.879308" stroke-miterlimit="10" stroke-linecap="round" stroke-linejoin="round"/>
<path d="M68.3177 723.138L-15.6738 638.724L68.3177 515.621L151.395 652.793L251.636 684.448L343.523 677.414L184.808 879.654L151.395 652.793V879.654L68.3177 723.138ZM68.3177 723.138L151.395 652.793L-15.6738 700.276L68.3177 723.138ZM68.3177 723.138L-15.6738 879.654" stroke="url(#paint2_linear_587_2511)" stroke-width="0.879308" stroke-miterlimit="10" stroke-linecap="round" stroke-linejoin="round"/>
<path d="M68.3152 515.621L251.633 684.448L184.806 879.654L344.84 801.396L343.521 677.414L68.3152 515.621Z" stroke="url(#paint3_linear_587_2511)" stroke-width="0.879308" stroke-miterlimit="10" stroke-linecap="round" stroke-linejoin="round"/>
<path d="M68.3145 515.621L-15.677 403.07L26.3187 279.967L68.3145 515.621Z" stroke="url(#paint4_linear_587_2511)" stroke-width="0.879308" stroke-miterlimit="10" stroke-linecap="round" stroke-linejoin="round"/>
<path d="M-15.6754 403.069L274.496 318.655L26.3203 279.966L-15.6754 218.414" stroke="url(#paint5_linear_587_2511)" stroke-width="0.879308" stroke-miterlimit="10" stroke-linecap="round" stroke-linejoin="round"/>
<path d="M68.3152 515.621L274.495 318.656L206.578 482.207L357.52 498.035L251.633 684.448L206.578 482.207L68.3152 515.621ZM68.3152 515.621L-15.6763 596.517" stroke="url(#paint6_linear_587_2511)" stroke-width="0.879308" stroke-miterlimit="10" stroke-linecap="round" stroke-linejoin="round"/>
<path d="M357.519 498.035L465.059 582.449L343.521 677.414L451.974 816.345L344.84 801.396" stroke="url(#paint7_linear_587_2511)" stroke-width="0.879308" stroke-miterlimit="10" stroke-linecap="round" stroke-linejoin="round"/>
<path d="M26.3204 279.966L83.4754 127.846L138.872 249.19L316.879 236.001L274.496 318.655" stroke="url(#paint8_linear_587_2511)" stroke-width="0.879308" stroke-miterlimit="10" stroke-linecap="round" stroke-linejoin="round"/>
<path d="M-15.6756 24.9668L83.4751 127.846L-15.6756 142.794L26.3201 279.966L138.872 249.19L274.496 318.656L357.52 498.034L343.522 677.413L573.461 697.637L451.975 816.344L620.943 838.467L573.461 697.637L465.06 582.448L668.426 633.448L620.943 838.467" stroke="url(#paint9_linear_587_2511)" stroke-width="0.879308" stroke-miterlimit="10" stroke-linecap="round" stroke-linejoin="round"/>
<path d="M573.461 697.637L668.426 633.447L784.495 801.395L620.943 838.467L763.022 770.32L890.293 811.067L784.495 801.395L691.288 879.653L620.943 838.467L578.737 879.653L573.461 697.637Z" stroke="url(#paint10_linear_587_2511)" stroke-width="0.879308" stroke-miterlimit="10" stroke-linecap="round" stroke-linejoin="round"/>
<path d="M784.495 801.396L863.633 879.655" stroke="url(#paint11_linear_587_2511)" stroke-width="0.879308" stroke-miterlimit="10" stroke-linecap="round" stroke-linejoin="round"/>
<path d="M523.287 476.931L472.797 533.206L465.059 418.896L523.287 476.931Z" stroke="url(#paint12_linear_587_2511)" stroke-width="0.879308" stroke-miterlimit="10"/>
<path d="M824.062 524.414L775.7 622.897L833.734 768.862L763.39 723.138" stroke="url(#paint13_linear_587_2511)" stroke-width="0.879308" stroke-miterlimit="10"/>
<path d="M740.529 550.793L733.495 657.189L680.736 612.345L740.529 550.793Z" stroke="url(#paint14_linear_587_2511)" stroke-width="0.879308" stroke-miterlimit="10"/>
<path d="M668.426 431.717L636.771 476.052L624.46 431.717H668.426Z" stroke="url(#paint15_linear_587_2511)" stroke-width="0.879308" stroke-miterlimit="10"/>
<path d="M536.496 292.277L448.126 250.07L380.225 403.07L300.877 326.57" stroke="url(#paint16_linear_587_2511)" stroke-width="0.879308" stroke-miterlimit="10"/>
<path d="M151.393 206.104L214.703 97.0703L129.41 142.794L151.393 206.104Z" stroke="url(#paint17_linear_587_2511)" stroke-width="0.879308" stroke-miterlimit="10"/>
<path d="M463.142 46.0703L523.287 151.587L406.216 127.846L463.142 46.0703Z" stroke="url(#paint18_linear_587_2511)" stroke-width="0.879308" stroke-miterlimit="10"/>
<g opacity="0.8">
<path d="M334.359 489.997C330.965 489.997 330.965 484.721 334.359 484.721C337.753 484.721 337.753 489.997 334.359 489.997Z" fill="white"/>
<path d="M286.156 663.237C282.761 663.237 282.761 657.961 286.156 657.961C289.55 657.961 289.55 663.237 286.156 663.237Z" fill="white"/>
<path d="M105.089 522.549C101.695 522.549 101.695 517.273 105.089 517.273C108.483 517.273 108.483 522.549 105.089 522.549Z" fill="white"/>
<path d="M94.6595 445.698C91.2654 445.698 91.2654 440.422 94.6595 440.422C98.0536 440.422 98.0536 445.698 94.6595 445.698Z" fill="white"/>
<path d="M75.1185 456.125C71.7243 456.125 71.7243 450.85 75.1185 450.85C78.5126 450.85 78.5126 456.125 75.1185 456.125Z" fill="white"/>
<path d="M360.403 796.12C357.009 796.12 357.009 790.844 360.403 790.844C363.797 790.844 363.815 796.12 360.403 796.12Z" fill="white"/>
<path d="M377.341 796.12C373.947 796.12 373.947 790.844 377.341 790.844C380.735 790.844 380.735 796.12 377.341 796.12Z" fill="white"/>
<path d="M785.077 824.784C781.683 824.784 781.683 819.508 785.077 819.508C788.471 819.508 788.488 824.784 785.077 824.784Z" fill="white"/>
<path d="M769.44 840.418C766.046 840.418 766.046 835.143 769.44 835.143C772.834 835.143 772.852 840.418 769.44 840.418Z" fill="white"/>
<path d="M9.98296 866.463C6.58883 866.463 6.58883 861.188 9.98296 861.188C13.3771 861.188 13.3947 866.463 9.98296 866.463Z" fill="white"/>
<path d="M29.522 849.528C26.1279 849.528 26.1279 844.252 29.522 844.252C32.9162 844.252 32.9337 849.528 29.522 849.528Z" fill="white"/>
<path d="M92.0579 721.87C88.6638 721.87 88.6638 716.594 92.0579 716.594C95.452 716.594 95.452 721.87 92.0579 721.87Z" fill="white"/>
<path d="M65.9947 749.217C62.6006 749.217 62.6006 743.941 65.9947 743.941C69.3888 743.941 69.4064 749.217 65.9947 749.217Z" fill="white"/>
<path d="M101.167 736.202C97.7724 736.202 97.7724 730.926 101.167 730.926C104.561 730.926 104.578 736.202 101.167 736.202Z" fill="white"/>
<path d="M482.857 570.752C479.463 570.752 479.463 565.477 482.857 565.477C486.251 565.477 486.251 570.752 482.857 570.752Z" fill="white"/>
<path d="M471.127 569.452C467.733 569.452 467.733 564.176 471.127 564.176C474.522 564.176 474.539 569.452 471.127 569.452Z" fill="white"/>
<path d="M680.86 615.051C677.466 615.051 677.466 609.775 680.86 609.775C684.254 609.775 684.272 615.051 680.86 615.051Z" fill="white"/>
<path d="M534.966 294.579C531.572 294.579 531.572 289.303 534.966 289.303C538.36 289.303 538.36 294.579 534.966 294.579Z" fill="white"/>
<path d="M150.672 209.92C147.278 209.92 147.278 204.645 150.672 204.645C154.067 204.645 154.084 209.92 150.672 209.92Z" fill="white"/>
<path d="M404.702 130.448C401.308 130.448 401.308 125.172 404.702 125.172C408.097 125.172 408.097 130.448 404.702 130.448Z" fill="white"/>
<path d="M9.98296 384.479C6.58883 384.479 6.58883 379.203 9.98296 379.203C13.3771 379.203 13.3947 384.479 9.98296 384.479Z" fill="white"/>
<path d="M21.7142 375.352C18.32 375.352 18.32 370.076 21.7142 370.076C25.1083 370.076 25.1083 375.352 21.7142 375.352Z" fill="white"/>
<path d="M459.15 736.327C455.756 736.327 455.756 731.051 459.15 731.051C462.544 731.051 462.544 736.327 459.15 736.327Z" fill="white"/>
<path d="M445.083 743.36C441.689 743.36 441.689 738.084 445.083 738.084C448.477 738.084 448.477 743.36 445.083 743.36Z" fill="white"/>
<path d="M295.601 500.67C292.207 500.67 292.207 495.395 295.601 495.395C298.995 495.395 298.995 500.67 295.601 500.67Z" fill="white"/>
<path d="M269.22 537.602C265.826 537.602 265.826 532.326 269.22 532.326C272.614 532.326 272.614 537.602 269.22 537.602Z" fill="white"/>
<path d="M207.669 484.844C204.275 484.844 204.275 479.568 207.669 479.568C211.063 479.568 211.063 484.844 207.669 484.844Z" fill="white"/>
<path d="M677.218 588.602C673.824 588.602 673.824 583.326 677.218 583.326C680.612 583.326 680.612 588.602 677.218 588.602Z" fill="white"/>
<path d="M775.704 627.291C772.31 627.291 772.31 622.016 775.704 622.016C779.099 622.016 779.099 627.291 775.704 627.291Z" fill="white"/>
<path d="M710.632 724.016C707.238 724.016 707.238 718.74 710.632 718.74C714.026 718.74 714.026 724.016 710.632 724.016Z" fill="white"/>
<path d="M682.493 725.774C679.099 725.774 679.099 720.498 682.493 720.498C685.888 720.498 685.888 725.774 682.493 725.774Z" fill="white"/>
<path d="M714.15 759.188C710.756 759.188 710.756 753.912 714.15 753.912C717.544 753.912 717.544 759.188 714.15 759.188Z" fill="white"/>
<path d="M668.427 636.084C665.033 636.084 665.033 630.809 668.427 630.809C671.821 630.809 671.821 636.084 668.427 636.084Z" fill="white"/>
<path d="M316.704 238.637C313.31 238.637 313.31 233.361 316.704 233.361C320.099 233.361 320.099 238.637 316.704 238.637Z" fill="white"/>
</g>
<g opacity="0.8">
<path d="M353.704 485.811C350.31 485.811 350.31 480.535 353.704 480.535C357.099 480.535 357.099 485.811 353.704 485.811Z" fill="white"/>
<path d="M305.501 312.571C302.107 312.571 302.107 307.295 305.501 307.295C308.895 307.295 308.895 312.571 305.501 312.571Z" fill="white"/>
<path d="M124.433 453.258C121.039 453.258 121.039 447.982 124.433 447.982C127.827 447.982 127.827 453.258 124.433 453.258Z" fill="white"/>
<path d="M114.007 530.112C110.613 530.112 110.613 524.836 114.007 524.836C117.401 524.836 117.401 530.112 114.007 530.112Z" fill="white"/>
<path d="M94.4661 519.682C91.072 519.682 91.072 514.406 94.4661 514.406C97.8603 514.406 97.8603 519.682 94.4661 519.682Z" fill="white"/>
<path d="M379.749 179.688C376.354 179.688 376.354 174.412 379.749 174.412C383.143 174.412 383.16 179.688 379.749 179.688Z" fill="white"/>
<path d="M396.682 179.69C393.288 179.69 393.288 174.414 396.682 174.414C400.076 174.414 400.094 179.69 396.682 179.69Z" fill="white"/>
<path d="M804.42 151.024C801.026 151.024 801.026 145.748 804.42 145.748C807.815 145.748 807.832 151.024 804.42 151.024Z" fill="white"/>
<path d="M788.785 135.407C785.391 135.407 785.391 130.131 788.785 130.131C792.197 130.131 792.197 135.407 788.785 135.407Z" fill="white"/>
<path d="M29.3267 109.344C25.9326 109.344 25.9326 104.068 29.3267 104.068C32.7208 104.068 32.7384 109.344 29.3267 109.344Z" fill="white"/>
<path d="M48.8677 126.28C45.4736 126.28 45.4736 121.004 48.8677 121.004C52.2619 121.004 52.2794 126.28 48.8677 126.28Z" fill="white"/>
<path d="M111.402 253.938C108.008 253.938 108.008 248.662 111.402 248.662C114.796 248.662 114.796 253.938 111.402 253.938Z" fill="white"/>
<path d="M85.3397 226.59C81.9455 226.59 81.9455 221.314 85.3397 221.314C88.7514 221.314 88.7514 226.59 85.3397 226.59Z" fill="white"/>
<path d="M120.512 239.606C117.117 239.606 117.117 234.33 120.512 234.33C123.923 234.33 123.923 239.606 120.512 239.606Z" fill="white"/>
<path d="M502.202 405.055C498.808 405.055 498.808 399.779 502.202 399.779C505.596 399.779 505.613 405.055 502.202 405.055Z" fill="white"/>
<path d="M490.49 406.356C487.095 406.356 487.095 401.08 490.49 401.08C493.884 401.08 493.884 406.356 490.49 406.356Z" fill="white"/>
<path d="M700.202 360.756C696.808 360.756 696.808 355.48 700.202 355.48C703.596 355.48 703.613 360.756 700.202 360.756Z" fill="white"/>
<path d="M554.311 681.229C550.917 681.229 550.917 675.953 554.311 675.953C557.705 675.953 557.723 681.229 554.311 681.229Z" fill="white"/>
<path d="M182.327 765.887C178.933 765.887 178.933 760.611 182.327 760.611C185.721 760.611 185.738 765.887 182.327 765.887Z" fill="white"/>
<path d="M424.048 845.36C420.654 845.36 420.654 840.084 424.048 840.084C427.442 840.084 427.442 845.36 424.048 845.36Z" fill="white"/>
<path d="M29.3267 591.329C25.9326 591.329 25.9326 586.053 29.3267 586.053C32.7208 586.053 32.7384 591.329 29.3267 591.329Z" fill="white"/>
<path d="M41.056 600.456C37.6618 600.456 37.6618 595.18 41.056 595.18C44.4501 595.18 44.4501 600.456 41.056 600.456Z" fill="white"/>
<path d="M478.497 239.481C475.103 239.481 475.103 234.205 478.497 234.205C481.892 234.205 481.892 239.481 478.497 239.481Z" fill="white"/>
<path d="M464.427 232.448C461.033 232.448 461.033 227.172 464.427 227.172C467.821 227.172 467.821 232.448 464.427 232.448Z" fill="white"/>
<path d="M314.945 475.137C311.551 475.137 311.551 469.861 314.945 469.861C318.339 469.861 318.339 475.137 314.945 475.137Z" fill="white"/>
<path d="M288.564 438.206C285.17 438.206 285.17 432.93 288.564 432.93C291.958 432.93 291.958 438.206 288.564 438.206Z" fill="white"/>
<path d="M227.013 490.963C223.619 490.963 223.619 485.688 227.013 485.688C230.407 485.688 230.407 490.963 227.013 490.963Z" fill="white"/>
<path d="M696.564 387.206C693.17 387.206 693.17 381.93 696.564 381.93C699.958 381.93 699.958 387.206 696.564 387.206Z" fill="white"/>
<path d="M795.048 348.516C791.654 348.516 791.654 343.24 795.048 343.24C798.442 343.24 798.442 348.516 795.048 348.516Z" fill="white"/>
<path d="M729.978 251.791C726.584 251.791 726.584 246.516 729.978 246.516C733.372 246.516 733.372 251.791 729.978 251.791Z" fill="white"/>
<path d="M701.841 250.034C698.447 250.034 698.447 244.758 701.841 244.758C705.235 244.758 705.235 250.034 701.841 250.034Z" fill="white"/>
<path d="M733.495 216.62C730.101 216.62 730.101 211.344 733.495 211.344C736.89 211.344 736.89 216.62 733.495 216.62Z" fill="white"/>
<path d="M687.773 339.723C684.379 339.723 684.379 334.447 687.773 334.447C691.167 334.447 691.167 339.723 687.773 339.723Z" fill="white"/>
<path d="M978.505 472.288C975.111 472.288 975.111 467.012 978.505 467.012C981.899 467.012 981.899 472.288 978.505 472.288Z" fill="white"/>
<path d="M963.099 488.151C959.705 488.151 959.705 482.875 963.099 482.875C966.493 482.875 966.493 488.151 963.099 488.151Z" fill="white"/>
<path d="M1189.73 573.426C1186.34 573.426 1186.34 568.15 1189.73 568.15C1193.13 568.15 1193.13 573.426 1189.73 573.426Z" fill="white"/>
<path d="M1071.71 796.893C1068.32 796.893 1068.32 791.617 1071.71 791.617C1075.11 791.617 1075.11 796.893 1071.71 796.893Z" fill="white"/>
<path d="M1216.24 576.678C1212.84 576.678 1212.84 571.402 1216.24 571.402C1219.63 571.402 1219.63 576.678 1216.24 576.678Z" fill="white"/>
<path d="M1176.1 478.776C1172.71 478.776 1172.71 473.5 1176.1 473.5C1179.5 473.5 1179.5 478.776 1176.1 478.776Z" fill="white"/>
<path d="M1080.35 545.252C1076.95 545.252 1076.95 539.977 1080.35 539.977C1083.74 539.977 1083.74 545.252 1080.35 545.252Z" fill="white"/>
<path d="M1078.99 573.409C1075.6 573.409 1075.6 568.133 1078.99 568.133C1082.39 568.133 1082.39 573.409 1078.99 573.409Z" fill="white"/>
<path d="M1045.12 542.245C1041.73 542.245 1041.73 536.969 1045.12 536.969C1048.51 536.969 1048.51 542.245 1045.12 542.245Z" fill="white"/>
<path d="M1168.88 586.176C1165.48 586.176 1165.48 580.9 1168.88 580.9C1172.27 580.9 1172.29 586.176 1168.88 586.176Z" fill="white"/>
<path d="M881.853 694.12C878.459 694.12 878.459 688.844 881.853 688.844C885.247 688.844 885.247 694.12 881.853 694.12Z" fill="white"/>
<path d="M902.693 677.43C899.299 677.43 899.299 672.154 902.693 672.154C906.087 672.154 906.087 677.43 902.693 677.43Z" fill="white"/>
<path d="M785.286 752.733C781.892 752.733 781.892 747.457 785.286 747.457C788.681 747.457 788.681 752.733 785.286 752.733Z" fill="white"/>
<path d="M804.492 773.362C801.097 773.362 801.097 768.086 804.492 768.086C807.886 768.086 807.886 773.362 804.492 773.362Z" fill="white"/>
<path d="M758.538 775.842C755.144 775.842 755.144 770.566 758.538 770.566C761.933 770.566 761.933 775.842 758.538 775.842Z" fill="white"/>
<path d="M876.399 717.948C873.005 717.948 873.005 712.672 876.399 712.672C879.793 712.672 879.811 717.948 876.399 717.948Z" fill="white"/>
<path d="M336.048 737.17C332.654 737.17 332.654 731.895 336.048 731.895C339.442 731.895 339.442 737.17 336.048 737.17Z" fill="white"/>
</g>
<g opacity="0.5">
<path d="M86.8512 416.593C85.7257 416.593 85.7257 414.834 86.8512 414.834C87.9767 414.834 87.9767 416.593 86.8512 416.593Z" fill="white"/>
<path d="M82.9298 434.829C81.8043 434.829 81.8043 433.07 82.9298 433.07C84.0729 433.07 84.0729 434.829 82.9298 434.829Z" fill="white"/>
<path d="M77.7235 425.702C76.598 425.702 76.598 423.943 77.7235 423.943C78.849 423.943 78.8666 425.702 77.7235 425.702Z" fill="white"/>
<path d="M334.355 472.604C333.23 472.604 333.23 470.846 334.355 470.846C335.481 470.846 335.481 472.604 334.355 472.604Z" fill="white"/>
<path d="M321.326 471.304C320.2 471.304 320.2 469.545 321.326 469.545C322.451 469.545 322.451 471.304 321.326 471.304Z" fill="white"/>
<path d="M459.414 549.456C458.288 549.456 458.288 547.697 459.414 547.697C460.539 547.697 460.539 549.456 459.414 549.456Z" fill="white"/>
<path d="M437.273 588.532C436.148 588.532 436.148 586.773 437.273 586.773C438.399 586.773 438.399 588.532 437.273 588.532Z" fill="white"/>
<path d="M430.746 576.819C429.621 576.819 429.621 575.061 430.746 575.061C431.889 575.061 431.889 576.819 430.746 576.819Z" fill="white"/>
<path d="M419.035 583.327C417.909 583.327 417.909 581.568 419.035 581.568C420.16 581.568 420.16 583.327 419.035 583.327Z" fill="white"/>
<path d="M787.674 839.962C786.548 839.962 786.548 838.203 787.674 838.203C788.817 838.203 788.817 839.962 787.674 839.962Z" fill="white"/>
<path d="M811.136 841.263C810.011 841.263 810.011 839.504 811.136 839.504C812.262 839.504 812.262 841.263 811.136 841.263Z" fill="white"/>
<path d="M454.209 761.79C453.083 761.79 453.083 760.031 454.209 760.031C455.334 760.031 455.334 761.79 454.209 761.79Z" fill="white"/>
<path d="M475.046 731.823C473.921 731.823 473.921 730.064 475.046 730.064C476.172 730.064 476.172 731.823 475.046 731.823Z" fill="white"/>
<path d="M424.242 729.222C423.116 729.222 423.116 727.463 424.242 727.463C425.367 727.463 425.367 729.222 424.242 729.222Z" fill="white"/>
<path d="M435.953 661.479C434.828 661.479 434.828 659.721 435.953 659.721C437.096 659.721 437.096 661.479 435.953 661.479Z" fill="white"/>
<path d="M484.154 653.671C483.029 653.671 483.029 651.912 484.154 651.912C485.297 651.912 485.297 653.671 484.154 653.671Z" fill="white"/>
<path d="M454.209 640.639C453.083 640.639 453.083 638.881 454.209 638.881C455.334 638.881 455.334 640.639 454.209 640.639Z" fill="white"/>
<path d="M605.309 644.544C604.184 644.544 604.184 642.785 605.309 642.785C606.435 642.785 606.453 644.544 605.309 644.544Z" fill="white"/>
<path d="M598.8 660.179C597.675 660.179 597.675 658.42 598.8 658.42C599.926 658.42 599.926 660.179 598.8 660.179Z" fill="white"/>
<path d="M583.166 635.434C582.04 635.434 582.04 633.676 583.166 633.676C584.291 633.676 584.291 635.434 583.166 635.434Z" fill="white"/>
<path d="M721.254 591.136C720.128 591.136 720.128 589.377 721.254 589.377C722.379 589.377 722.379 591.136 721.254 591.136Z" fill="white"/>
<path d="M704.316 605.468C703.191 605.468 703.191 603.709 704.316 603.709C705.442 603.709 705.442 605.468 704.316 605.468Z" fill="white"/>
<path d="M697.795 576.819C696.67 576.819 696.67 575.061 697.795 575.061C698.938 575.061 698.938 576.819 697.795 576.819Z" fill="white"/>
<path d="M264.015 268.077C262.89 268.077 262.89 266.318 264.015 266.318C265.141 266.318 265.141 268.077 264.015 268.077Z" fill="white"/>
<path d="M256.188 514.284C255.062 514.284 255.062 512.525 256.188 512.525C257.331 512.525 257.331 514.284 256.188 514.284Z" fill="white"/>
<path d="M92.0563 632.831C90.9307 632.831 90.9307 631.072 92.0563 631.072C93.1818 631.072 93.1818 632.831 92.0563 632.831Z" fill="white"/>
<path d="M81.6271 606.768C80.5015 606.768 80.5015 605.01 81.6271 605.01C82.7701 605.01 82.7701 606.768 81.6271 606.768Z" fill="white"/>
<path d="M52.9801 619.8C51.8546 619.8 51.8546 618.041 52.9801 618.041C54.1056 618.041 54.1056 619.8 52.9801 619.8Z" fill="white"/>
<path d="M76.4234 622.403C75.2979 622.403 75.2979 620.645 76.4234 620.645C77.549 620.645 77.549 622.403 76.4234 622.403Z" fill="white"/>
<path d="M-0.430073 514.284C-1.55559 514.284 -1.55559 512.525 -0.430073 512.525C0.695441 512.525 0.695441 514.284 -0.430073 514.284Z" fill="white"/>
<path d="M17.8063 516.886C16.6807 516.886 16.6807 515.127 17.8063 515.127C18.9318 515.127 18.9318 516.886 17.8063 516.886Z" fill="white"/>
<path d="M163.703 386.626C162.577 386.626 162.577 384.867 163.703 384.867C164.828 384.867 164.828 386.626 163.703 386.626Z" fill="white"/>
<path d="M145.464 387.927C144.339 387.927 144.339 386.168 145.464 386.168C146.59 386.168 146.59 387.927 145.464 387.927Z" fill="white"/>
<path d="M183.241 364.485C182.116 364.485 182.116 362.727 183.241 362.727C184.367 362.727 184.384 364.485 183.241 364.485Z" fill="white"/>
<path d="M73.8199 309.757C72.6944 309.757 72.6944 307.998 73.8199 307.998C74.9454 307.998 74.9454 309.757 73.8199 309.757Z" fill="white"/>
<path d="M62.0899 308.454C60.9644 308.454 60.9644 306.695 62.0899 306.695C63.233 306.695 63.233 308.454 62.0899 308.454Z" fill="white"/>
<path d="M58.1852 295.442C57.0596 295.442 57.0596 293.684 58.1852 293.684C59.3107 293.684 59.3107 295.442 58.1852 295.442Z" fill="white"/>
<path d="M50.3766 329.311C49.2511 329.311 49.2511 327.553 50.3766 327.553C51.5021 327.553 51.5021 329.311 50.3766 329.311Z" fill="white"/>
<path d="M33.441 200.335C32.3155 200.335 32.3155 198.576 33.441 198.576C34.5665 198.576 34.5665 200.335 33.441 200.335Z" fill="white"/>
<path d="M54.2809 154.753C53.1554 154.753 53.1554 152.994 54.2809 152.994C55.4064 152.994 55.4064 154.753 54.2809 154.753Z" fill="white"/>
<path d="M321.976 607.946C320.851 607.946 320.851 606.188 321.976 606.188C323.102 606.188 323.102 607.946 321.976 607.946Z" fill="white"/>
<path d="M302.632 607.946C301.507 607.946 301.507 606.188 302.632 606.188C303.758 606.188 303.758 607.946 302.632 607.946Z" fill="white"/>
<path d="M174.254 476.052C173.128 476.052 173.128 474.293 174.254 474.293C175.379 474.293 175.379 476.052 174.254 476.052Z" fill="white"/>
<path d="M147.875 479.567C146.749 479.567 146.749 477.809 147.875 477.809C149 477.809 149 479.567 147.875 479.567Z" fill="white"/>
<path d="M188.324 451.43C187.198 451.43 187.198 449.672 188.324 449.672C189.449 449.672 189.449 451.43 188.324 451.43Z" fill="white"/>
<path d="M74.0113 217.534C72.8858 217.534 72.8858 215.775 74.0113 215.775C75.1368 215.775 75.1368 217.534 74.0113 217.534Z" fill="white"/>
<path d="M248.115 736.327C246.989 736.327 246.989 734.568 248.115 734.568C249.24 734.568 249.24 736.327 248.115 736.327Z" fill="white"/>
<path d="M212.943 755.671C211.817 755.671 211.817 753.912 212.943 753.912C214.068 753.912 214.068 755.671 212.943 755.671Z" fill="white"/>
<path d="M216.461 708.188C215.335 708.188 215.335 706.43 216.461 706.43C217.586 706.43 217.586 708.188 216.461 708.188Z" fill="white"/>
<path d="M223.494 736.325C222.368 736.325 222.368 734.566 223.494 734.566C224.619 734.566 224.619 736.325 223.494 736.325Z" fill="white"/>
<path d="M293.839 815.464C292.714 815.464 292.714 813.705 293.839 813.705C294.965 813.705 294.965 815.464 293.839 815.464Z" fill="white"/>
<path d="M260.425 857.671C259.3 857.671 259.3 855.912 260.425 855.912C261.551 855.912 261.551 857.671 260.425 857.671Z" fill="white"/>
<path d="M133.804 764.464C132.679 764.464 132.679 762.705 133.804 762.705C134.93 762.705 134.93 764.464 133.804 764.464Z" fill="white"/>
<path d="M511.91 351.19C510.784 351.19 510.784 349.432 511.91 349.432C513.035 349.432 513.035 351.19 511.91 351.19Z" fill="white"/>
<path d="M471.459 354.706C470.333 354.706 470.333 352.947 471.459 352.947C472.584 352.947 472.584 354.706 471.459 354.706Z" fill="white"/>
<path d="M601.597 252.708C600.472 252.708 600.472 250.949 601.597 250.949C602.723 250.949 602.723 252.708 601.597 252.708Z" fill="white"/>
<path d="M619.183 124.327C618.058 124.327 618.058 122.568 619.183 122.568C620.309 122.568 620.309 124.327 619.183 124.327Z" fill="white"/>
<path d="M578.734 180.604C577.608 180.604 577.608 178.846 578.734 178.846C579.86 178.846 579.86 180.604 578.734 180.604Z" fill="white"/>
<path d="M620.941 106.741C619.816 106.741 619.816 104.982 620.941 104.982C622.067 104.982 622.067 106.741 620.941 106.741Z" fill="white"/>
<path d="M606.875 104.983C605.749 104.983 605.749 103.225 606.875 103.225C608 103.225 608 104.983 606.875 104.983Z" fill="white"/>
<path d="M715.906 161.259C714.78 161.259 714.78 159.5 715.906 159.5C717.031 159.5 717.031 161.259 715.906 161.259Z" fill="white"/>
<path d="M659.632 231.604C658.507 231.604 658.507 229.846 659.632 229.846C660.758 229.846 660.758 231.604 659.632 231.604Z" fill="white"/>
<path d="M761.632 208.741C760.507 208.741 760.507 206.982 761.632 206.982C762.758 206.982 762.758 208.741 761.632 208.741Z" fill="white"/>
<path d="M761.632 414.499C760.507 414.499 760.507 412.74 761.632 412.74C762.758 412.74 762.758 414.499 761.632 414.499Z" fill="white"/>
<path d="M717.668 509.464C716.542 509.464 716.542 507.705 717.668 507.705C718.793 507.705 718.793 509.464 717.668 509.464Z" fill="white"/>
<path d="M262.187 447.913C261.062 447.913 261.062 446.154 262.187 446.154C263.313 446.154 263.313 447.913 262.187 447.913Z" fill="white"/>
<path d="M239.322 460.223C238.196 460.223 238.196 458.465 239.322 458.465C240.447 458.465 240.447 460.223 239.322 460.223Z" fill="white"/>
<path d="M256.91 474.292C255.784 474.292 255.784 472.533 256.91 472.533C258.035 472.533 258.035 474.292 256.91 474.292Z" fill="white"/>
<path d="M357.15 760.946C356.024 760.946 356.024 759.188 357.15 759.188C358.276 759.188 358.276 760.946 357.15 760.946Z" fill="white"/>
<path d="M295.599 782.05C294.474 782.05 294.474 780.291 295.599 780.291C296.725 780.291 296.725 782.05 295.599 782.05Z" fill="white"/>
<path d="M265.701 811.946C264.575 811.946 264.575 810.188 265.701 810.188C266.826 810.188 266.826 811.946 265.701 811.946Z" fill="white"/>
<path d="M533.011 783.809C531.886 783.809 531.886 782.051 533.011 782.051C534.137 782.051 534.137 783.809 533.011 783.809Z" fill="white"/>
</g>
<path d="M572.776 879.653C572.776 883.047 575.537 885.808 578.931 885.808C582.325 885.808 585.086 883.047 585.086 879.653C585.086 876.259 582.325 873.498 578.931 873.498C575.519 873.498 572.776 876.259 572.776 879.653Z" stroke="#29EFBB" stroke-width="0.879308" stroke-miterlimit="10"/>
<path d="M459.925 582.588C459.925 585.42 462.229 587.723 465.06 587.723C467.892 587.723 470.195 585.42 470.195 582.588C470.195 579.757 467.892 577.453 465.06 577.453C462.229 577.453 459.925 579.757 459.925 582.588Z" stroke="#29EFBB" stroke-width="0.879308" stroke-miterlimit="10"/>
<path d="M462.353 582.589C462.353 584.084 463.566 585.315 465.079 585.315C466.574 585.315 467.805 584.102 467.805 582.589C467.805 581.094 466.591 579.863 465.079 579.863C463.566 579.881 462.353 581.094 462.353 582.589Z" fill="white"/>
<path d="M245.479 684.448C245.479 687.842 248.24 690.603 251.634 690.603C255.028 690.603 257.789 687.842 257.789 684.448C257.789 681.054 255.028 678.293 251.634 678.293C248.24 678.293 245.479 681.054 245.479 684.448Z" stroke="#29EFBB" stroke-width="0.879308" stroke-miterlimit="10"/>
<path d="M248.38 684.449C248.38 686.243 249.839 687.702 251.633 687.702C253.427 687.702 254.887 686.243 254.887 684.449C254.887 682.655 253.427 681.195 251.633 681.195C249.839 681.195 248.38 682.655 248.38 684.449Z" fill="white"/>
<path d="M567.307 697.638C567.307 701.032 570.068 703.793 573.462 703.793C576.856 703.793 579.617 701.032 579.617 697.638C579.617 694.243 576.856 691.482 573.462 691.482C570.068 691.482 567.307 694.243 567.307 697.638Z" stroke="#29EFBB" stroke-width="0.879308" stroke-miterlimit="10"/>
<path d="M573.461 700.892C571.665 700.892 570.208 699.435 570.208 697.638C570.208 695.841 571.665 694.385 573.461 694.385C575.258 694.385 576.715 695.841 576.715 697.638C576.715 699.435 575.258 700.892 573.461 700.892Z" fill="white"/>
<path d="M458.608 418.897C458.608 422.291 461.369 425.052 464.763 425.052C468.157 425.052 470.918 422.291 470.918 418.897C470.918 415.503 468.157 412.742 464.763 412.742C461.351 412.742 458.608 415.503 458.608 418.897Z" stroke="#29EFBB" stroke-width="0.879308" stroke-miterlimit="10"/>
<path d="M461.493 418.898C461.493 420.692 462.953 422.151 464.747 422.151C466.54 422.151 468 420.692 468 418.898C468 417.104 466.54 415.645 464.747 415.645C462.953 415.645 461.493 417.104 461.493 418.898Z" fill="white"/>
<path d="M351.365 498.034C351.365 501.428 354.126 504.189 357.521 504.189C360.915 504.189 363.676 501.428 363.676 498.034C363.676 494.64 360.915 491.879 357.521 491.879C354.126 491.879 351.365 494.64 351.365 498.034Z" stroke="#29EFBB" stroke-width="0.879308" stroke-miterlimit="10"/>
<path d="M354.251 498.035C354.251 499.828 355.711 501.288 357.504 501.288C359.298 501.288 360.758 499.828 360.758 498.035C360.758 496.241 359.298 494.781 357.504 494.781C355.711 494.781 354.251 496.241 354.251 498.035Z" fill="white"/>
<path d="M612.926 838.466C612.926 842.881 616.496 846.451 620.91 846.451C625.325 846.451 628.895 842.881 628.895 838.466C628.895 834.052 625.325 830.482 620.91 830.482C616.496 830.482 612.926 834.052 612.926 838.466Z" stroke="#29EFBB" stroke-width="0.879308" stroke-miterlimit="10"/>
<path d="M616.672 838.467C616.672 840.806 618.571 842.705 620.91 842.705C623.249 842.705 625.148 840.806 625.148 838.467C625.148 836.128 623.249 834.229 620.91 834.229C618.571 834.229 616.672 836.128 616.672 838.467Z" fill="white"/>
<path d="M776.508 801.396C776.508 805.81 780.078 809.38 784.492 809.38C788.907 809.38 792.477 805.81 792.477 801.396C792.477 796.982 788.907 793.412 784.492 793.412C780.078 793.412 776.508 796.982 776.508 801.396Z" stroke="#29EFBB" stroke-width="0.879308" stroke-miterlimit="10"/>
<path d="M780.256 801.396C780.256 803.735 782.155 805.635 784.494 805.635C786.833 805.635 788.732 803.735 788.732 801.396C788.732 799.058 786.833 797.158 784.494 797.158C782.155 797.158 780.256 799.058 780.256 801.396Z" fill="white"/>
<path d="M266.512 318.656C266.512 323.07 270.082 326.64 274.496 326.64C278.91 326.64 282.48 323.07 282.48 318.656C282.48 314.242 278.91 310.672 274.496 310.672C270.082 310.672 266.512 314.242 266.512 318.656Z" stroke="#29EFBB" stroke-width="0.879308" stroke-miterlimit="10"/>
<path d="M270.258 318.656C270.258 320.995 272.157 322.895 274.496 322.895C276.835 322.895 278.734 320.995 278.734 318.656C278.734 316.317 276.835 314.418 274.496 314.418C272.157 314.418 270.258 316.317 270.258 318.656Z" fill="white"/>
<path d="M60.3307 723.136C60.3307 727.551 63.9006 731.121 68.3148 731.121C72.7289 731.121 76.2988 727.551 76.2988 723.136C76.2988 718.722 72.7289 715.152 68.3148 715.152C63.9006 715.152 60.3307 718.722 60.3307 723.136Z" stroke="#29EFBB" stroke-width="0.879308" stroke-miterlimit="10"/>
<path d="M64.0783 723.137C64.0783 725.476 65.9775 727.375 68.3165 727.375C70.6554 727.375 72.5547 725.476 72.5547 723.137C72.5547 720.798 70.6554 718.898 68.3165 718.898C65.9775 718.898 64.0783 720.798 64.0783 723.137Z" fill="white"/>
<path d="M56.8684 515.62C56.8684 521.951 61.986 527.069 68.317 527.069C74.648 527.069 79.7656 521.951 79.7656 515.62C79.7656 509.289 74.648 504.172 68.317 504.172C61.986 504.172 56.8684 509.289 56.8684 515.62Z" stroke="#29EFBB" stroke-width="0.879308" stroke-miterlimit="10"/>
<path d="M62.2483 515.62C62.2483 518.961 64.9566 521.687 68.3156 521.687C71.6569 521.687 74.3828 518.979 74.3828 515.62C74.3828 512.261 71.6745 509.553 68.3156 509.553C64.9742 509.553 62.2483 512.279 62.2483 515.62Z" fill="white"/>
<path d="M332.073 678.292C332.073 684.623 337.191 689.741 343.522 689.741C349.853 689.741 354.971 684.623 354.971 678.292C354.971 671.961 349.853 666.844 343.522 666.844C337.209 666.844 332.073 671.961 332.073 678.292Z" stroke="#29EFBB" stroke-width="0.879308" stroke-miterlimit="10"/>
<path d="M337.471 678.292C337.471 681.633 340.179 684.359 343.538 684.359C346.88 684.359 349.605 681.651 349.605 678.292C349.605 674.933 346.897 672.225 343.538 672.225C340.179 672.225 337.471 674.95 337.471 678.292Z" fill="white"/>
<path d="M14.8723 279.966C14.8723 286.297 19.9899 291.415 26.3209 291.415C32.6519 291.415 37.7695 286.297 37.7695 279.966C37.7695 273.635 32.6519 268.518 26.3209 268.518C19.9899 268.518 14.8723 273.635 14.8723 279.966Z" stroke="#29EFBB" stroke-width="0.879308" stroke-miterlimit="10"/>
<path d="M20.2542 279.966C20.2542 283.307 22.9625 286.033 26.3214 286.033C29.6628 286.033 32.3887 283.325 32.3887 279.966C32.3887 276.607 29.6804 273.898 26.3214 273.898C22.9801 273.898 20.2542 276.624 20.2542 279.966Z" fill="white"/>
<path d="M172.06 879.654C172.06 885.985 177.177 891.102 183.508 891.102C189.839 891.102 194.957 885.985 194.957 879.654C194.957 873.323 189.839 868.205 183.508 868.205C177.177 868.205 172.06 873.323 172.06 879.654Z" stroke="#29EFBB" stroke-width="0.879308" stroke-miterlimit="10"/>
<path d="M177.44 879.653C177.44 882.995 180.148 885.72 183.507 885.72C186.848 885.72 189.574 883.012 189.574 879.653C189.574 876.294 186.866 873.586 183.507 873.586C180.166 873.586 177.44 876.312 177.44 879.653Z" fill="white"/>
<path d="M890.294 811.067L1041.54 718.898L863.634 879.653" stroke="url(#paint19_linear_587_2511)" stroke-width="0.879308" stroke-miterlimit="10"/>
<path d="M1041.53 718.898L1131.8 811.067L863.633 879.653L890.294 811.067" stroke="url(#paint20_linear_587_2511)" stroke-width="0.879308" stroke-miterlimit="10"/>
<path d="M1300.65 879.654L1211.54 760.912L1131.8 811.068L1300.65 879.654Z" stroke="url(#paint21_linear_587_2511)" stroke-width="0.879308" stroke-miterlimit="10"/>
<path d="M966.495 879.654L1131.8 811.068" stroke="url(#paint22_linear_587_2511)" stroke-width="0.879308" stroke-miterlimit="10"/>
<path d="M1171.67 644.053L1125.95 712.533L1109.54 675.602L1171.67 644.053Z" stroke="url(#paint23_linear_587_2511)" stroke-width="0.879308" stroke-miterlimit="10"/>
<path d="M997.569 563.561L1033.92 654.481L945.989 661.252L997.569 563.561Z" stroke="url(#paint24_linear_587_2511)" stroke-width="0.879308" stroke-miterlimit="10"/>
<path d="M1259.6 678.592L1239.68 715.153L1259.6 733.566V678.592Z" stroke="url(#paint25_linear_587_2511)" stroke-width="0.879308" stroke-miterlimit="10"/>
</g>
<defs>
<radialGradient id="paint0_radial_587_2511" cx="0" cy="0" r="1" gradientUnits="userSpaceOnUse" gradientTransform="translate(-15.6754 876.138) rotate(90) scale(1238.56 1857.84)">
<stop stop-color="#29EFBB"/>
<stop offset="0.2107" stop-color="#2BB7B1"/>
<stop offset="0.4893" stop-color="#2E74A6"/>
<stop offset="0.7233" stop-color="#2F439D"/>
<stop offset="0.9005" stop-color="#312498"/>
<stop offset="1" stop-color="#311996"/>
</radialGradient>
<linearGradient id="paint1_linear_587_2511" x1="114.9" y1="801.395" x2="67.8749" y2="801.395" gradientUnits="userSpaceOnUse">
<stop stop-color="#29EFBB"/>
<stop offset="0.1601" stop-color="#4EF1C7"/>
<stop offset="0.5723" stop-color="#A9F6E3"/>
<stop offset="0.8615" stop-color="#E3FAF5"/>
<stop offset="1" stop-color="#F9FBFC"/>
</linearGradient>
<linearGradient id="paint2_linear_587_2511" x1="343.971" y1="697.638" x2="-16.1138" y2="697.638" gradientUnits="userSpaceOnUse">
<stop stop-color="#29EFBB"/>
<stop offset="0.1601" stop-color="#4EF1C7"/>
<stop offset="0.5723" stop-color="#A9F6E3"/>
<stop offset="0.8615" stop-color="#E3FAF5"/>
<stop offset="1" stop-color="#F9FBFC"/>
</linearGradient>
<linearGradient id="paint3_linear_587_2511" x1="345.272" y1="697.638" x2="67.8752" y2="697.638" gradientUnits="userSpaceOnUse">
<stop stop-color="#29EFBB"/>
<stop offset="0.1601" stop-color="#4EF1C7"/>
<stop offset="0.5723" stop-color="#A9F6E3"/>
<stop offset="0.8615" stop-color="#E3FAF5"/>
<stop offset="1" stop-color="#F9FBFC"/>
</linearGradient>
<linearGradient id="paint4_linear_587_2511" x1="68.7538" y1="397.794" x2="-16.117" y2="397.794" gradientUnits="userSpaceOnUse">
<stop stop-color="#29EFBB"/>
<stop offset="0.1601" stop-color="#4EF1C7"/>
<stop offset="0.5723" stop-color="#A9F6E3"/>
<stop offset="0.8615" stop-color="#E3FAF5"/>
<stop offset="1" stop-color="#F9FBFC"/>
</linearGradient>
<linearGradient id="paint5_linear_587_2511" x1="274.935" y1="310.741" x2="-16.1154" y2="310.741" gradientUnits="userSpaceOnUse">
<stop stop-color="#29EFBB"/>
<stop offset="0.1601" stop-color="#4EF1C7"/>
<stop offset="0.5723" stop-color="#A9F6E3"/>
<stop offset="0.8615" stop-color="#E3FAF5"/>
<stop offset="1" stop-color="#F9FBFC"/>
</linearGradient>
<linearGradient id="paint6_linear_587_2511" x1="357.956" y1="501.552" x2="-16.1163" y2="501.552" gradientUnits="userSpaceOnUse">
<stop stop-color="#29EFBB"/>
<stop offset="0.1601" stop-color="#4EF1C7"/>
<stop offset="0.5723" stop-color="#A9F6E3"/>
<stop offset="0.8615" stop-color="#E3FAF5"/>
<stop offset="1" stop-color="#F9FBFC"/>
</linearGradient>
<linearGradient id="paint7_linear_587_2511" x1="465.505" y1="657.19" x2="343.089" y2="657.19" gradientUnits="userSpaceOnUse">
<stop stop-color="#29EFBB"/>
<stop offset="0.1601" stop-color="#4EF1C7"/>
<stop offset="0.5723" stop-color="#A9F6E3"/>
<stop offset="0.8615" stop-color="#E3FAF5"/>
<stop offset="1" stop-color="#F9FBFC"/>
</linearGradient>
<linearGradient id="paint8_linear_587_2511" x1="317.321" y1="223.251" x2="25.8804" y2="223.251" gradientUnits="userSpaceOnUse">
<stop stop-color="#29EFBB"/>
<stop offset="0.1601" stop-color="#4EF1C7"/>
<stop offset="0.5723" stop-color="#A9F6E3"/>
<stop offset="0.8615" stop-color="#E3FAF5"/>
<stop offset="1" stop-color="#F9FBFC"/>
</linearGradient>
<linearGradient id="paint9_linear_587_2511" x1="668.865" y1="431.719" x2="-16.1156" y2="431.719" gradientUnits="userSpaceOnUse">
<stop stop-color="#29EFBB"/>
<stop offset="0.1601" stop-color="#4EF1C7"/>
<stop offset="0.5723" stop-color="#A9F6E3"/>
<stop offset="0.8615" stop-color="#E3FAF5"/>
<stop offset="1" stop-color="#F9FBFC"/>
</linearGradient>
<linearGradient id="paint10_linear_587_2511" x1="890.733" y1="756.55" x2="573.021" y2="756.55" gradientUnits="userSpaceOnUse">
<stop stop-color="#29EFBB"/>
<stop offset="0.1601" stop-color="#4EF1C7"/>
<stop offset="0.5723" stop-color="#A9F6E3"/>
<stop offset="0.8615" stop-color="#E3FAF5"/>
<stop offset="1" stop-color="#F9FBFC"/>
</linearGradient>
<linearGradient id="paint11_linear_587_2511" x1="864.072" y1="840.526" x2="784.055" y2="840.526" gradientUnits="userSpaceOnUse">
<stop stop-color="#29EFBB"/>
<stop offset="0.1601" stop-color="#4EF1C7"/>
<stop offset="0.5723" stop-color="#A9F6E3"/>
<stop offset="0.8615" stop-color="#E3FAF5"/>
<stop offset="1" stop-color="#F9FBFC"/>
</linearGradient>
<linearGradient id="paint12_linear_587_2511" x1="523.889" y1="476.018" x2="464.549" y2="476.018" gradientUnits="userSpaceOnUse">
<stop stop-color="#29EFBB"/>
<stop offset="0.1601" stop-color="#4EF1C7"/>
<stop offset="0.5723" stop-color="#A9F6E3"/>
<stop offset="0.8615" stop-color="#E3FAF5"/>
<stop offset="1" stop-color="#F9FBFC"/>
</linearGradient>
<linearGradient id="paint13_linear_587_2511" x1="834.653" y1="647.102" x2="763.15" y2="647.102" gradientUnits="userSpaceOnUse">
<stop stop-color="#29EFBB"/>
<stop offset="0.1601" stop-color="#4EF1C7"/>
<stop offset="0.5723" stop-color="#A9F6E3"/>
<stop offset="0.8615" stop-color="#E3FAF5"/>
<stop offset="1" stop-color="#F9FBFC"/>
</linearGradient>
<linearGradient id="paint14_linear_587_2511" x1="741.047" y1="603.86" x2="680.093" y2="603.86" gradientUnits="userSpaceOnUse">
<stop stop-color="#29EFBB"/>
<stop offset="0.1601" stop-color="#4EF1C7"/>
<stop offset="0.5723" stop-color="#A9F6E3"/>
<stop offset="0.8615" stop-color="#E3FAF5"/>
<stop offset="1" stop-color="#F9FBFC"/>
</linearGradient>
<linearGradient id="paint15_linear_587_2511" x1="669.28" y1="454.168" x2="623.882" y2="454.168" gradientUnits="userSpaceOnUse">
<stop stop-color="#29EFBB"/>
<stop offset="0.1601" stop-color="#4EF1C7"/>
<stop offset="0.5723" stop-color="#A9F6E3"/>
<stop offset="0.8615" stop-color="#E3FAF5"/>
<stop offset="1" stop-color="#F9FBFC"/>
</linearGradient>
<linearGradient id="paint16_linear_587_2511" x1="536.688" y1="326.651" x2="300.571" y2="326.651" gradientUnits="userSpaceOnUse">
<stop stop-color="#29EFBB"/>
<stop offset="0.1601" stop-color="#4EF1C7"/>
<stop offset="0.5723" stop-color="#A9F6E3"/>
<stop offset="0.8615" stop-color="#E3FAF5"/>
<stop offset="1" stop-color="#F9FBFC"/>
</linearGradient>
<linearGradient id="paint17_linear_587_2511" x1="215.862" y1="151.552" x2="128.872" y2="151.552" gradientUnits="userSpaceOnUse">
<stop stop-color="#29EFBB"/>
<stop offset="0.1601" stop-color="#4EF1C7"/>
<stop offset="0.5723" stop-color="#A9F6E3"/>
<stop offset="0.8615" stop-color="#E3FAF5"/>
<stop offset="1" stop-color="#F9FBFC"/>
</linearGradient>
<linearGradient id="paint18_linear_587_2511" x1="524.144" y1="98.7291" x2="405.481" y2="98.7291" gradientUnits="userSpaceOnUse">
<stop stop-color="#29EFBB"/>
<stop offset="0.1601" stop-color="#4EF1C7"/>
<stop offset="0.5723" stop-color="#A9F6E3"/>
<stop offset="0.8615" stop-color="#E3FAF5"/>
<stop offset="1" stop-color="#F9FBFC"/>
</linearGradient>
<linearGradient id="paint19_linear_587_2511" x1="1041.83" y1="799.255" x2="863.339" y2="799.255" gradientUnits="userSpaceOnUse">
<stop stop-color="#29EFBB"/>
<stop offset="0.1601" stop-color="#4EF1C7"/>
<stop offset="0.5723" stop-color="#A9F6E3"/>
<stop offset="0.8615" stop-color="#E3FAF5"/>
<stop offset="1" stop-color="#F9FBFC"/>
</linearGradient>
<linearGradient id="paint20_linear_587_2511" x1="1132.66" y1="799.445" x2="862.913" y2="799.445" gradientUnits="userSpaceOnUse">
<stop stop-color="#29EFBB"/>
<stop offset="0.1601" stop-color="#4EF1C7"/>
<stop offset="0.5723" stop-color="#A9F6E3"/>
<stop offset="0.8615" stop-color="#E3FAF5"/>
<stop offset="1" stop-color="#F9FBFC"/>
</linearGradient>
<linearGradient id="paint21_linear_587_2511" x1="1301" y1="820.194" x2="1130.85" y2="820.194" gradientUnits="userSpaceOnUse">
<stop stop-color="#29EFBB"/>
<stop offset="0.1601" stop-color="#4EF1C7"/>
<stop offset="0.5723" stop-color="#A9F6E3"/>
<stop offset="0.8615" stop-color="#E3FAF5"/>
<stop offset="1" stop-color="#F9FBFC"/>
</linearGradient>
<linearGradient id="paint22_linear_587_2511" x1="1131.98" y1="845.361" x2="966.332" y2="845.361" gradientUnits="userSpaceOnUse">
<stop stop-color="#29EFBB"/>
<stop offset="0.1601" stop-color="#4EF1C7"/>
<stop offset="0.5723" stop-color="#A9F6E3"/>
<stop offset="0.8615" stop-color="#E3FAF5"/>
<stop offset="1" stop-color="#F9FBFC"/>
</linearGradient>
<linearGradient id="paint23_linear_587_2511" x1="1172.97" y1="678.171" x2="1108.96" y2="678.171" gradientUnits="userSpaceOnUse">
<stop stop-color="#29EFBB"/>
<stop offset="0.1601" stop-color="#4EF1C7"/>
<stop offset="0.5723" stop-color="#A9F6E3"/>
<stop offset="0.8615" stop-color="#E3FAF5"/>
<stop offset="1" stop-color="#F9FBFC"/>
</linearGradient>
<linearGradient id="paint24_linear_587_2511" x1="1034.54" y1="612.136" x2="945.223" y2="612.136" gradientUnits="userSpaceOnUse">
<stop stop-color="#29EFBB"/>
<stop offset="0.1601" stop-color="#4EF1C7"/>
<stop offset="0.5723" stop-color="#A9F6E3"/>
<stop offset="0.8615" stop-color="#E3FAF5"/>
<stop offset="1" stop-color="#F9FBFC"/>
</linearGradient>
<linearGradient id="paint25_linear_587_2511" x1="1260.04" y1="705.711" x2="1239.12" y2="705.711" gradientUnits="userSpaceOnUse">
<stop stop-color="#29EFBB"/>
<stop offset="0.1601" stop-color="#4EF1C7"/>
<stop offset="0.5723" stop-color="#A9F6E3"/>
<stop offset="0.8615" stop-color="#E3FAF5"/>
<stop offset="1" stop-color="#F9FBFC"/>
</linearGradient>
<clipPath id="clip0_587_2511">
<path d="M1301 0H0V866C0 871.523 4.47715 876 10 876H1291C1296.52 876 1301 871.523 1301 866V0Z" fill="white"/>
</clipPath>
</defs>
</svg>
