<svg width="921" height="197" viewBox="0 0 921 197" fill="none" xmlns="http://www.w3.org/2000/svg">
<path d="M203.584 106.08C175.128 106.08 160.9 117.885 160.9 144.501C160.9 171.118 175.128 183.034 203.584 183.034C231.952 183.034 246.267 171.118 246.267 144.501C246.267 117.885 231.952 106.08 203.584 106.08ZM203.584 163.656C185.428 163.656 178.881 160.538 178.881 144.501C178.881 128.465 185.428 125.458 203.584 125.458C221.739 125.458 228.286 128.465 228.286 144.501C228.286 160.538 221.739 163.656 203.584 163.656Z" fill="white"/>
<path d="M329.235 167.331C325.219 162.097 323.037 159.424 321.03 157.531C330.631 155.081 336.305 145.504 336.305 133.922C336.305 112.651 319.546 107.305 306.278 107.305H268.745L256.961 126.683H307.762C313.959 126.683 317.713 129.578 317.713 135.369C317.713 140.492 313.348 143.722 307.762 143.722H256.961V181.809H275.03V162.097H302.787L315.792 181.809H339.971L329.235 167.331Z" fill="white"/>
<path d="M379.201 113.987C377.106 109.087 373.964 106.08 369.337 106.08C364.798 106.08 360.696 109.421 359.125 116.326L344.024 181.809H361.743L367.242 155.861C368.988 147.508 370.298 141.272 371.17 135.369C373.003 140.381 375.098 145.615 379.375 155.861L387.231 174.682C390.286 182.032 393.254 183.034 397.618 183.034C401.983 183.034 404.95 182.032 408.005 174.682L415.861 155.972C419.876 146.283 422.058 140.604 423.979 135.369C424.939 141.383 426.161 147.397 427.994 155.861L433.493 181.809H451.474L436.723 116.326C435.151 109.421 431.136 106.08 426.597 106.08C421.884 106.08 418.742 109.198 416.647 113.987L407.307 135.147C402.157 146.617 399.888 152.074 397.967 157.308C395.96 152.074 393.69 146.506 388.54 135.035L379.201 113.987Z" fill="white"/>
<path d="M565.872 107.305H547.891V133.699H513.151V107.305H494.995V181.809H513.151V153.077H547.891V181.809H565.872V107.305Z" fill="white"/>
<path d="M619.593 106.08C591.137 106.08 576.91 117.885 576.91 144.501C576.91 171.118 591.137 183.034 619.593 183.034C647.961 183.034 662.276 171.118 662.276 144.501C662.276 117.885 647.961 106.08 619.593 106.08ZM619.593 163.656C601.437 163.656 594.891 160.538 594.891 144.501C594.891 128.465 601.437 125.458 619.593 125.458C637.748 125.458 644.295 128.465 644.295 144.501C644.295 160.538 637.748 163.656 619.593 163.656Z" fill="white"/>
<path d="M748.997 107.305H730.842V149.29C730.842 159.758 726.477 163.879 712.599 163.879C694.007 163.879 690.341 160.315 690.341 149.29V107.305H672.36V149.29C672.36 171.786 684.492 183.034 712.599 183.034C736.864 183.034 748.997 171.786 748.997 149.29V107.305Z" fill="white"/>
<path d="M783.329 137.04C779.14 137.04 777.132 135.592 777.132 131.806C777.132 128.019 779.14 126.683 783.329 126.683H823.83L835.44 107.305H784.726C767.007 107.305 759.675 116.437 759.675 130.469C759.675 143.276 766.57 151.852 781.584 151.852H813.356C817.633 151.852 819.553 153.411 819.553 157.197C819.553 161.095 817.633 162.654 813.356 162.654H769.189L757.58 181.809H811.959C829.766 181.809 837.011 172.677 837.011 157.42C837.011 143.833 829.329 137.04 815.102 137.04H783.329Z" fill="white"/>
<path d="M864.933 162.654V152.52H900.808L911.195 135.592H864.933V126.683H902.728L914.424 107.305H846.777V181.809H902.99L914.599 162.654H864.933Z" fill="white"/>
<g filter="url(#filter0_d_587_1183)">
<mask id="path-2-inside-1_587_1183" fill="white">
<path d="M208.228 103.259C179.773 103.259 165.545 115.064 165.545 141.68C165.545 168.297 179.773 180.213 208.228 180.213C236.596 180.213 250.911 168.297 250.911 141.68C250.911 115.064 236.596 103.259 208.228 103.259ZM208.228 160.835C190.072 160.835 183.526 157.717 183.526 141.68C183.526 125.643 190.072 122.636 208.228 122.636C226.384 122.636 232.93 125.643 232.93 141.68C232.93 157.717 226.384 160.835 208.228 160.835Z"/>
<path d="M333.879 164.51C329.864 159.276 327.682 156.603 325.674 154.71C335.276 152.26 340.949 142.682 340.949 131.1C340.949 109.829 324.19 104.484 310.923 104.484H273.39L261.606 123.861H312.407C318.604 123.861 322.357 126.757 322.357 132.548C322.357 137.671 317.993 140.901 312.407 140.901H261.606V178.988H279.674V159.276H307.431L320.437 178.988H344.615L333.879 164.51Z"/>
<path d="M383.845 111.166C381.75 106.266 378.608 103.259 373.982 103.259C369.443 103.259 365.34 106.6 363.769 113.504L348.669 178.988H366.388L371.887 153.039C373.633 144.687 374.942 138.45 375.815 132.548C377.648 137.56 379.743 142.794 384.02 153.039L391.876 171.86C394.931 179.21 397.898 180.213 402.263 180.213C406.627 180.213 409.595 179.21 412.65 171.86L420.506 153.151C424.521 143.462 426.703 137.782 428.623 132.548C429.583 138.562 430.805 144.576 432.638 153.039L438.138 178.988H456.119L441.367 113.504C439.796 106.6 435.781 103.259 431.242 103.259C426.528 103.259 423.386 106.377 421.291 111.166L411.952 132.325C406.802 143.796 404.532 149.253 402.612 154.487C400.604 149.253 398.335 143.685 393.185 132.214L383.845 111.166Z"/>
<path d="M570.516 104.484H552.535V130.878H517.795V104.484H499.64V178.988H517.795V150.255H552.535V178.988H570.516V104.484Z"/>
<path d="M624.237 103.259C595.782 103.259 581.554 115.064 581.554 141.68C581.554 168.297 595.782 180.213 624.237 180.213C652.605 180.213 666.92 168.297 666.92 141.68C666.92 115.064 652.605 103.259 624.237 103.259ZM624.237 160.835C606.082 160.835 599.535 157.717 599.535 141.68C599.535 125.643 606.082 122.636 624.237 122.636C642.393 122.636 648.939 125.643 648.939 141.68C648.939 157.717 642.393 160.835 624.237 160.835Z"/>
<path d="M753.642 104.484H735.486V146.469C735.486 156.937 731.122 161.058 717.243 161.058C698.651 161.058 694.985 157.494 694.985 146.469V104.484H677.004V146.469C677.004 168.965 689.137 180.213 717.243 180.213C741.509 180.213 753.642 168.965 753.642 146.469V104.484Z"/>
<path d="M787.974 134.219C783.784 134.219 781.777 132.771 781.777 128.984C781.777 125.198 783.784 123.861 787.974 123.861H828.475L840.084 104.484H789.371C771.651 104.484 764.319 113.616 764.319 127.648C764.319 140.455 771.215 149.03 786.228 149.03H818.001C822.278 149.03 824.198 150.589 824.198 154.376C824.198 158.274 822.278 159.833 818.001 159.833H773.834L762.224 178.988H816.604C834.41 178.988 841.655 169.856 841.655 154.599C841.655 141.012 833.974 134.219 819.746 134.219H787.974Z"/>
<path d="M869.577 159.833V149.698H905.452L915.839 132.771H869.577V123.861H907.372L919.069 104.484H851.422V178.988H907.634L919.243 159.833H869.577Z"/>
</mask>
<path d="M208.228 103.259C179.773 103.259 165.545 115.064 165.545 141.68C165.545 168.297 179.773 180.213 208.228 180.213C236.596 180.213 250.911 168.297 250.911 141.68C250.911 115.064 236.596 103.259 208.228 103.259ZM208.228 160.835C190.072 160.835 183.526 157.717 183.526 141.68C183.526 125.643 190.072 122.636 208.228 122.636C226.384 122.636 232.93 125.643 232.93 141.68C232.93 157.717 226.384 160.835 208.228 160.835Z" fill="#241E92"/>
<path d="M333.879 164.51C329.864 159.276 327.682 156.603 325.674 154.71C335.276 152.26 340.949 142.682 340.949 131.1C340.949 109.829 324.19 104.484 310.923 104.484H273.39L261.606 123.861H312.407C318.604 123.861 322.357 126.757 322.357 132.548C322.357 137.671 317.993 140.901 312.407 140.901H261.606V178.988H279.674V159.276H307.431L320.437 178.988H344.615L333.879 164.51Z" fill="#241E92"/>
<path d="M383.845 111.166C381.75 106.266 378.608 103.259 373.982 103.259C369.443 103.259 365.34 106.6 363.769 113.504L348.669 178.988H366.388L371.887 153.039C373.633 144.687 374.942 138.45 375.815 132.548C377.648 137.56 379.743 142.794 384.02 153.039L391.876 171.86C394.931 179.21 397.898 180.213 402.263 180.213C406.627 180.213 409.595 179.21 412.65 171.86L420.506 153.151C424.521 143.462 426.703 137.782 428.623 132.548C429.583 138.562 430.805 144.576 432.638 153.039L438.138 178.988H456.119L441.367 113.504C439.796 106.6 435.781 103.259 431.242 103.259C426.528 103.259 423.386 106.377 421.291 111.166L411.952 132.325C406.802 143.796 404.532 149.253 402.612 154.487C400.604 149.253 398.335 143.685 393.185 132.214L383.845 111.166Z" fill="#241E92"/>
<path d="M570.516 104.484H552.535V130.878H517.795V104.484H499.64V178.988H517.795V150.255H552.535V178.988H570.516V104.484Z" fill="#241E92"/>
<path d="M624.237 103.259C595.782 103.259 581.554 115.064 581.554 141.68C581.554 168.297 595.782 180.213 624.237 180.213C652.605 180.213 666.92 168.297 666.92 141.68C666.92 115.064 652.605 103.259 624.237 103.259ZM624.237 160.835C606.082 160.835 599.535 157.717 599.535 141.68C599.535 125.643 606.082 122.636 624.237 122.636C642.393 122.636 648.939 125.643 648.939 141.68C648.939 157.717 642.393 160.835 624.237 160.835Z" fill="#241E92"/>
<path d="M753.642 104.484H735.486V146.469C735.486 156.937 731.122 161.058 717.243 161.058C698.651 161.058 694.985 157.494 694.985 146.469V104.484H677.004V146.469C677.004 168.965 689.137 180.213 717.243 180.213C741.509 180.213 753.642 168.965 753.642 146.469V104.484Z" fill="#241E92"/>
<path d="M787.974 134.219C783.784 134.219 781.777 132.771 781.777 128.984C781.777 125.198 783.784 123.861 787.974 123.861H828.475L840.084 104.484H789.371C771.651 104.484 764.319 113.616 764.319 127.648C764.319 140.455 771.215 149.03 786.228 149.03H818.001C822.278 149.03 824.198 150.589 824.198 154.376C824.198 158.274 822.278 159.833 818.001 159.833H773.834L762.224 178.988H816.604C834.41 178.988 841.655 169.856 841.655 154.599C841.655 141.012 833.974 134.219 819.746 134.219H787.974Z" fill="#241E92"/>
<path d="M869.577 159.833V149.698H905.452L915.839 132.771H869.577V123.861H907.372L919.069 104.484H851.422V178.988H907.634L919.243 159.833H869.577Z" fill="#241E92"/>
<path d="M208.228 103.259C179.773 103.259 165.545 115.064 165.545 141.68C165.545 168.297 179.773 180.213 208.228 180.213C236.596 180.213 250.911 168.297 250.911 141.68C250.911 115.064 236.596 103.259 208.228 103.259ZM208.228 160.835C190.072 160.835 183.526 157.717 183.526 141.68C183.526 125.643 190.072 122.636 208.228 122.636C226.384 122.636 232.93 125.643 232.93 141.68C232.93 157.717 226.384 160.835 208.228 160.835Z" stroke="#CFFFDC" stroke-width="2.2569" mask="url(#path-2-inside-1_587_1183)"/>
<path d="M333.879 164.51C329.864 159.276 327.682 156.603 325.674 154.71C335.276 152.26 340.949 142.682 340.949 131.1C340.949 109.829 324.19 104.484 310.923 104.484H273.39L261.606 123.861H312.407C318.604 123.861 322.357 126.757 322.357 132.548C322.357 137.671 317.993 140.901 312.407 140.901H261.606V178.988H279.674V159.276H307.431L320.437 178.988H344.615L333.879 164.51Z" stroke="#CFFFDC" stroke-width="2.2569" mask="url(#path-2-inside-1_587_1183)"/>
<path d="M383.845 111.166C381.75 106.266 378.608 103.259 373.982 103.259C369.443 103.259 365.34 106.6 363.769 113.504L348.669 178.988H366.388L371.887 153.039C373.633 144.687 374.942 138.45 375.815 132.548C377.648 137.56 379.743 142.794 384.02 153.039L391.876 171.86C394.931 179.21 397.898 180.213 402.263 180.213C406.627 180.213 409.595 179.21 412.65 171.86L420.506 153.151C424.521 143.462 426.703 137.782 428.623 132.548C429.583 138.562 430.805 144.576 432.638 153.039L438.138 178.988H456.119L441.367 113.504C439.796 106.6 435.781 103.259 431.242 103.259C426.528 103.259 423.386 106.377 421.291 111.166L411.952 132.325C406.802 143.796 404.532 149.253 402.612 154.487C400.604 149.253 398.335 143.685 393.185 132.214L383.845 111.166Z" stroke="#CFFFDC" stroke-width="2.2569" mask="url(#path-2-inside-1_587_1183)"/>
<path d="M570.516 104.484H552.535V130.878H517.795V104.484H499.64V178.988H517.795V150.255H552.535V178.988H570.516V104.484Z" stroke="#CFFFDC" stroke-width="2.2569" mask="url(#path-2-inside-1_587_1183)"/>
<path d="M624.237 103.259C595.782 103.259 581.554 115.064 581.554 141.68C581.554 168.297 595.782 180.213 624.237 180.213C652.605 180.213 666.92 168.297 666.92 141.68C666.92 115.064 652.605 103.259 624.237 103.259ZM624.237 160.835C606.082 160.835 599.535 157.717 599.535 141.68C599.535 125.643 606.082 122.636 624.237 122.636C642.393 122.636 648.939 125.643 648.939 141.68C648.939 157.717 642.393 160.835 624.237 160.835Z" stroke="#CFFFDC" stroke-width="2.2569" mask="url(#path-2-inside-1_587_1183)"/>
<path d="M753.642 104.484H735.486V146.469C735.486 156.937 731.122 161.058 717.243 161.058C698.651 161.058 694.985 157.494 694.985 146.469V104.484H677.004V146.469C677.004 168.965 689.137 180.213 717.243 180.213C741.509 180.213 753.642 168.965 753.642 146.469V104.484Z" stroke="#CFFFDC" stroke-width="2.2569" mask="url(#path-2-inside-1_587_1183)"/>
<path d="M787.974 134.219C783.784 134.219 781.777 132.771 781.777 128.984C781.777 125.198 783.784 123.861 787.974 123.861H828.475L840.084 104.484H789.371C771.651 104.484 764.319 113.616 764.319 127.648C764.319 140.455 771.215 149.03 786.228 149.03H818.001C822.278 149.03 824.198 150.589 824.198 154.376C824.198 158.274 822.278 159.833 818.001 159.833H773.834L762.224 178.988H816.604C834.41 178.988 841.655 169.856 841.655 154.599C841.655 141.012 833.974 134.219 819.746 134.219H787.974Z" stroke="#CFFFDC" stroke-width="2.2569" mask="url(#path-2-inside-1_587_1183)"/>
<path d="M869.577 159.833V149.698H905.452L915.839 132.771H869.577V123.861H907.372L919.069 104.484H851.422V178.988H907.634L919.243 159.833H869.577Z" stroke="#CFFFDC" stroke-width="2.2569" mask="url(#path-2-inside-1_587_1183)"/>
</g>
<g clip-path="url(#clip0_587_1183)">
<path d="M81.0702 194.562L81.0703 194.562C81.2501 195.041 81.4123 195.367 81.6184 195.605C81.8227 195.605 82.0261 195.605 82.2296 195.603C82.416 195.431 82.567 195.194 82.7059 194.848C83.2948 193.377 83.9073 191.911 84.5161 190.453C84.749 189.896 84.9814 189.339 85.2117 188.785L85.2118 188.784C85.3961 188.341 85.5804 187.897 85.7647 187.453C89.5705 178.292 93.363 169.163 96.6643 159.843L96.6644 159.843C97.2181 158.281 97.9493 156.765 98.9551 155.374L98.9553 155.373C100.298 153.517 102.097 152.26 104.407 151.798C105.775 151.523 107.142 151.511 108.471 151.662C108.472 151.662 108.472 151.662 108.472 151.662L108.346 152.774C111.71 153.155 115.086 153.339 118.466 153.393L81.0702 194.562ZM81.0702 194.562C76.7352 183.029 72.3862 171.502 68.032 159.977L68.032 159.977M81.0702 194.562L68.032 159.977M68.032 159.977C67.4257 158.373 67.3823 156.808 67.9467 155.242M68.032 159.977L67.9467 155.242M86.8733 108.425L86.8731 108.425C86.5594 109.185 86.2648 109.928 85.967 110.678C85.7336 111.267 85.4982 111.86 85.2503 112.47L86.8733 108.425ZM86.8733 108.425C87.236 107.544 87.6821 106.747 88.2614 106.055C89.0687 105.093 90.0776 104.582 91.3276 104.49L91.3293 104.49M86.8733 108.425L91.3293 104.49M91.3293 104.49C91.9014 104.447 92.4893 104.448 93.0799 104.483C98.2873 104.795 103.495 104.92 108.691 104.983C108.691 104.983 108.691 104.983 108.691 104.983C108.692 104.983 108.692 104.983 108.692 104.983L117.425 105.093C117.425 105.093 117.426 105.093 117.426 105.093C117.493 105.094 117.558 105.094 117.615 105.094H117.618C117.677 105.094 117.726 105.094 117.774 105.095C118.136 105.103 118.32 105.256 118.413 105.407C118.519 105.58 118.56 105.84 118.448 106.122L118.448 106.123M91.3293 104.49L118.448 106.123M118.448 106.123C117.687 108.034 116.958 109.962 116.233 111.88C115.929 112.686 115.625 113.489 115.32 114.289L115.32 114.29C115.193 114.622 115.062 114.96 114.93 115.302C114.713 115.863 114.493 116.432 114.285 116.994L114.284 116.995C113.936 117.933 113.947 118.947 114.5 119.768C115.054 120.59 115.991 120.978 116.992 121L118.448 106.123ZM67.9467 155.242C68.4739 153.78 69.0593 152.337 69.6546 150.87M67.9467 155.242L69.6546 150.87M69.6546 150.87C69.6872 150.79 69.7199 150.71 69.7525 150.629M69.6546 150.87L69.7525 150.629M69.7525 150.629C73.5238 141.337 77.298 132.046 81.0722 122.755M69.7525 150.629L81.0722 122.755M81.0722 122.755C82.4649 119.327 83.8577 115.898 85.2503 112.47L81.0722 122.755ZM116.993 121C119.411 121.053 121.828 121.103 124.245 121.154L124.248 121.154L124.252 121.154C126.669 121.204 129.086 121.255 131.502 121.307C133.06 121.341 134.62 121.38 136.182 121.418C139.974 121.51 143.776 121.603 147.573 121.641C147.958 121.645 148.202 121.81 148.318 121.979C148.424 122.131 148.497 122.388 148.33 122.77L148.33 122.77C146.575 126.775 144.867 130.8 143.179 134.829C141.632 138.52 140.101 142.219 138.571 145.915C137.937 147.444 137.305 148.973 136.671 150.501C136.655 150.539 136.639 150.576 136.624 150.613C136.53 150.837 136.447 151.036 136.356 151.231C136.134 151.7 135.87 151.984 135.591 152.157L116.993 121Z" fill="#241E92" stroke="#CFFFDC" stroke-width="2.23864"/>
<path d="M186.29 65.2743L186.29 65.2742C186.196 65.1977 186.105 65.1209 186.025 65.053L186.012 65.0417C185.935 64.9758 185.867 64.9185 185.8 64.8633L185.796 64.8602C183.968 63.3529 182.14 61.8452 180.312 60.3377C174.311 55.3872 168.31 50.4375 162.299 45.501L162.299 45.5008C161.967 45.2286 161.666 44.9039 161.46 44.4808C161.252 44.0545 161.181 43.611 161.181 43.1618V43.1601C161.197 33.2018 161.197 23.2434 161.195 13.2821C161.195 12.5265 160.575 11.9186 159.819 11.9337L186.29 65.2743ZM186.29 65.2743C186.684 65.5922 186.947 66.1756 186.988 66.8842C187.031 67.6129 186.823 68.1852 186.622 68.4176C185.502 69.6948 184.61 71.1479 183.776 72.5043C183.567 72.8453 183.361 73.1801 183.157 73.5045L184.104 74.1016L183.157 73.5046C179.755 78.9011 176.368 84.3077 172.985 89.7148L172.984 89.7161M186.29 65.2743L172.984 89.7161M138.382 25.7243L138.079 25.4883C137.971 25.4044 137.872 25.3285 137.78 25.2583C137.625 25.1396 137.492 25.0373 137.374 24.9406L137.373 24.9395C135.001 22.9889 132.631 21.0375 130.26 19.086C128.786 17.8717 127.311 16.6574 125.835 15.4433C124.522 14.3622 123.209 13.2808 121.897 12.1998C118.494 9.39734 115.095 6.59672 111.684 3.80652C109.618 2.1216 107.24 1.18256 104.578 0.98528L104.578 0.985267C101.042 0.722616 97.9171 1.72972 95.1704 3.99044L95.1704 3.99048C89.9463 8.2898 84.7256 12.5927 79.5046 16.8958L79.5044 16.896C65.235 28.6524 50.9655 40.4105 36.696 52.1686C34.9445 53.612 33.1928 55.0545 31.4413 56.4968C28.0061 59.3256 24.5718 62.1538 21.1409 64.9861L20.5052 64.2161L21.1409 64.9862C20.4325 65.5709 20.1176 66.2043 20.0608 66.787C20.0039 67.3701 20.1913 68.0494 20.7666 68.7529L20.7669 68.7533C21.0977 69.1581 21.4297 69.5634 21.7622 69.9693C22.7251 71.1449 23.6923 72.3256 24.6465 73.5154L24.6466 73.5155C25.2734 74.2973 25.9513 75.0901 26.6426 75.8984C27.9539 77.4318 29.313 79.0212 30.4616 80.6975C30.7956 81.1849 31.1162 81.6785 31.4284 82.1604L31.4774 82.236C31.7747 82.695 32.0647 83.1427 32.3633 83.5833C33.1498 84.7421 33.9403 85.8935 34.733 87.0481C35.2024 87.7318 35.6725 88.4166 36.143 89.1046C37.2808 90.7686 38.4217 92.4322 39.5631 94.0965C42.3049 98.0944 45.0495 102.097 47.7612 106.118C49.8926 109.277 51.8123 112.562 53.6649 115.852L53.665 115.852C55.3001 118.758 57.7604 120.306 61.0431 120.409L61.0432 120.409C62.9848 120.47 64.6233 120.066 65.9825 119.259C67.3424 118.452 68.4894 117.201 69.3842 115.463L69.3842 115.462C72.355 109.691 75.2252 103.877 77.9241 97.9804C78.1781 97.4246 78.468 96.8912 78.7644 96.3863C78.7645 96.3862 78.7645 96.3862 78.7645 96.3862L79.7298 96.9528L138.382 25.7243ZM138.382 25.7243H138.766M138.382 25.7243H138.766M138.766 25.7243H138.766H138.767H138.768L138.771 25.7243L138.785 25.7242C138.796 25.724 138.816 25.7235 138.842 25.7219C138.883 25.7191 138.991 25.7103 139.122 25.6669C139.259 25.6214 139.476 25.5189 139.652 25.2924C139.837 25.0559 139.889 24.7977 139.889 24.6033V23.5889V23.5683V23.5477V23.5271V23.5065V23.4859V23.4653V23.4447V23.4241V23.4034V23.3828V23.3622V23.3416V23.321V23.3004V23.2798V23.2592V23.2386V23.218V23.1974V23.1768V23.1562V23.1355V23.1149V23.0943V23.0737V23.0531V23.0325V23.0119V22.9913V22.9707V22.9501V22.9295V22.9089V22.8883V22.8676V22.847V22.8264V22.8058V22.7852V22.7646V22.744V22.7234V22.7028V22.6822V22.6616V22.6409V22.6203V22.5997V22.5791V22.5585V22.5379V22.5173V22.4967V22.4761V22.4555V22.4349V22.4143V22.3936V22.373V22.3524V22.3318V22.3112V22.2906V22.27V22.2494V22.2288V22.2082V22.1876V22.1669V22.1463V22.1257V22.1051V22.0845V22.0639V22.0433V22.0227V22.0021V21.9815V21.9608V21.9402V21.9196V21.899V21.8784V21.8578V21.8372V21.8166V21.796V21.7754V21.7547V21.7341V21.7135V21.6929V21.6723V21.6517V21.6311V21.6105V21.5899V21.5693V21.5487V21.528V21.5074V21.4868V21.4662V21.4456V21.425V21.4044V21.3838V21.3632V21.3425V21.3219V21.3013V21.2807V21.2601V21.2395V21.2189V21.1983V21.1777V21.1571V21.1364V21.1158V21.0952V21.0746V21.054V21.0334V21.0128V20.9922V20.9716V20.9509V20.9303V20.9097V20.8891V20.8685V20.8479V20.8273V20.8067V20.7861V20.7654V20.7448V20.7242V20.7036V20.683V20.6624V20.6418V20.6212V20.6006V20.5799V20.5593V20.5387V20.5181V20.4975V20.4769V20.4563V20.4357V20.4151V20.3944V20.3738V20.3532V20.3326V20.312V20.2914V20.2708V20.2502V20.2296V20.2089V20.1883V20.1677V20.1471V20.1265V20.1059V20.0853V20.0647V20.0441V20.0234V20.0028V19.9822V19.9616V19.941V19.9204V19.8998V19.8792V19.8585V19.8379V19.8173V19.7967V19.7761V19.7555V19.7349V19.7143V19.6937V19.673V19.6524V19.6318V19.6112V19.5906V19.57V19.5494V19.5288V19.5082V19.4875V19.4669V19.4463V19.4257V19.4051V19.3845V19.3639V19.3433V19.3226V19.302V19.2814V19.2608V19.2402V19.2196V19.199V19.1784V19.1577V19.1371V19.1165V19.0959V19.0753V19.0547V19.0341V19.0135V18.9929V18.9722V18.9516V18.931V18.9104V18.8898V18.8692V18.8486V18.828V18.8073V18.7867V18.7661V18.7455V18.7249V18.7043V18.6837V18.6631V18.6424V18.6218V18.6012V18.5806V18.56V18.5394V18.5188V18.4982V18.4776V18.4569V18.4363V18.4157V18.3951V18.3745V18.3539V18.3333V18.3127V18.292V18.2714V18.2508V18.2302V18.2096V18.189V18.1684V18.1478V18.1271V18.1065V18.0859V18.0653V18.0447V18.0241V18.0035V17.9829V17.9622V17.9416V17.921V17.9004V17.8798V17.8592V17.8386V17.818V17.7974V17.7767V17.7561V17.7355V17.7149V17.6943V17.6737V17.6531V17.6325V17.6118V17.5912V17.5706V17.55V17.5294V17.5088V17.4882V17.4676V17.4469V17.4263V17.4057V17.3851V17.3645V17.3439V17.3233V17.3027V17.2821V17.2614V17.2408V17.2202V17.1996V17.179V17.1584V17.1378V17.1172V17.0965V17.0759V17.0553V17.0347V17.0141V16.9935V16.9729V16.9523V16.9317V16.911V16.8904V16.8698V16.8492V16.8286V16.808V16.7874V16.7668V16.7461V16.7255V16.7049V16.6843V16.6637V16.6431V16.6225V16.6019V16.5813V16.5606V16.54V16.5194V16.4988V16.4782V16.4576V16.437V16.4164V16.3958V16.3751V16.3545V16.3339V16.3133V16.2927V16.2721V16.2515V16.2309V16.2103V16.1896V16.169V16.1484V16.1278V16.1072V16.0866V16.066V16.0454V16.0247V16.0041V15.9835V15.9629V15.9423V15.9217V15.9011V15.8805V15.8599V15.8393V15.8186V15.798V15.7774V15.7568V15.7362V15.7156V15.695V15.6744V15.6538V15.6331V15.6125V15.5919V15.5713V15.5507V15.5301V15.5095V15.4889V15.4683V15.4476V15.427V15.4064V15.3858V15.3652V15.3446V15.324V15.3034V15.2828V15.2622V15.2415V15.2209V15.2003V15.1797V15.1591V15.1385V15.1179V15.0973V15.0767V15.056V15.0354V15.0148V14.9942V14.9736V14.953V14.9324V14.9118V14.8912V14.8706V14.8499V14.8293V14.8087V14.7881V14.7675V14.7469V14.7263V14.7057V14.6851V14.6645V14.6439V14.6232V14.6026V14.582V14.5614V14.5408V14.5202V14.4996V14.479V14.4584V14.4378V14.4171V14.3965V14.3759V14.3553V14.3347V14.3141V14.2935V14.2729V14.2523V14.2317V14.2111V14.1904V14.1698V14.1492V14.1286V14.108V14.0874V14.0668V14.0462V14.0256V14.005V13.9844V13.9638V13.9431V13.9225V13.9019V13.8813V13.8607V13.8401V13.8195V13.7989V13.7783V13.7577V13.7371V13.7165V13.6958V13.6752V13.6546V13.634V13.6134V13.5928V13.5722V13.5516V13.531V13.5104V13.4898V13.4692V13.4485V13.4279V13.4073V13.3867V13.3661V13.3455V13.3249V13.3043V13.2837V13.2631V13.2425V13.2219V13.2013V13.1807V13.16V13.1394V13.1188V13.0982V13.0776V13.057V13.038C139.89 12.4221 140.392 11.926 141.007 11.9321C145.307 11.9778 149.616 12.02 153.927 12.0024M138.766 25.7243L153.927 12.0024M172.984 89.7161C172.643 90.2622 172.335 90.8267 172.045 91.3575C172.012 91.4171 171.98 91.4762 171.948 91.5348L172.984 89.7161ZM153.927 12.0024C155.888 11.9953 157.853 11.9742 159.819 11.9337L153.927 12.0024ZM86.0043 92.3713C85.3858 92.3875 84.7817 92.4737 84.2221 92.5775L168.727 92.5012C168.294 92.4888 167.849 92.4711 167.397 92.4532C166.503 92.4179 165.583 92.3815 164.683 92.3815H164.683C156.94 92.3838 149.197 92.3898 141.455 92.3959C131.602 92.4036 121.75 92.4113 111.896 92.4113C107.156 92.4113 102.419 92.3905 97.6787 92.3697C95.1378 92.3585 92.5961 92.3473 90.0524 92.3394H90.0518C88.7112 92.3358 87.3593 92.3375 86.0057 92.3713L86.0043 92.3713ZM137.65 24.6033C137.65 24.6027 137.65 24.6022 137.65 24.6016V24.6033ZM44.9871 68.0676L45.2485 68.8144L46.0398 68.8171C84.4492 68.947 122.856 68.9522 161.273 68.9084L162.391 68.9071V67.789V67.7873V67.4134L162.166 67.1146C161.916 66.7814 161.657 66.5489 161.432 66.3633L161.432 66.3626C160.132 65.2894 158.83 64.2171 157.529 63.1455C157.126 62.813 156.722 62.4806 156.319 62.1483C141.495 49.9316 126.67 37.7167 111.845 25.5018L111.827 25.4873L111.826 25.4868C111.272 25.0308 110.717 24.5715 110.16 24.1111C108.968 23.1249 107.769 22.1337 106.562 21.1595L106.562 21.1595C104.804 19.7407 102.299 19.748 100.543 21.1547C100.378 21.2867 100.211 21.4243 100.053 21.5551C99.9934 21.6044 99.9349 21.6528 99.8781 21.6996L99.8774 21.7002C91.365 28.7138 82.853 35.7279 74.3411 42.742C65.8291 49.7561 57.3172 56.7702 48.8049 63.7838C47.6298 64.7519 46.4566 65.7217 45.2842 66.6908L45.2795 66.6947L44.6644 67.2031L44.9446 67.9504L44.9665 68.0091L44.9871 68.0676Z" fill="#241E92" stroke="#CFFFDC" stroke-width="2.23864"/>
<path d="M108.754 44.7028C108.12 44.7028 107.488 44.7134 106.855 44.7011C105.723 44.6783 105.023 43.9763 105.014 42.8426C105.003 41.5527 105.003 40.2628 105.014 38.9729C105.023 37.8322 105.719 37.1197 106.846 37.1092C108.159 37.0951 109.471 37.0951 110.784 37.1092C111.832 37.1214 112.574 37.8199 112.599 38.8588C112.63 40.2189 112.628 41.579 112.599 42.9391C112.576 43.978 111.841 44.6642 110.793 44.7028C110.745 44.7046 110.7 44.7046 110.652 44.7046C110.019 44.7028 109.387 44.7028 108.754 44.7028Z" fill="#241E92"/>
<path d="M98.3149 44.7024C97.6568 44.7024 96.9986 44.7147 96.3423 44.7006C95.2455 44.6778 94.5382 43.9934 94.5154 42.8895C94.4891 41.5733 94.4908 40.2571 94.5136 38.9409C94.5329 37.7984 95.2455 37.1157 96.3879 37.107C97.6796 37.0964 98.9712 37.0947 100.265 37.1087C101.361 37.121 102.067 37.8142 102.084 38.9163C102.104 40.2553 102.106 41.5961 102.083 42.9352C102.063 43.9899 101.353 44.6743 100.291 44.7006C99.6311 44.7147 98.973 44.7024 98.3149 44.7024Z" fill="#241E92"/>
<path d="M98.3184 46.6452C98.9765 46.6452 99.6328 46.6346 100.291 46.6469C101.379 46.668 102.063 47.3173 102.083 48.3949C102.107 49.7567 102.107 51.1203 102.083 52.4821C102.065 53.4544 101.439 54.1599 100.472 54.1967C99.0414 54.2529 97.6076 54.2494 96.1774 54.202C95.2034 54.1686 94.5505 53.493 94.5242 52.5225C94.4856 51.115 94.4821 49.7023 94.526 48.2948C94.5558 47.3033 95.27 46.6715 96.2756 46.6487C96.9566 46.6329 97.6375 46.6452 98.3184 46.6452Z" fill="#241E92"/>
<path d="M108.834 46.6395C109.492 46.6395 110.15 46.6624 110.806 46.6343C111.829 46.5922 112.605 47.4644 112.605 48.405C112.607 49.744 112.624 51.0848 112.6 52.4239C112.582 53.4452 111.907 54.1683 110.882 54.2016C109.497 54.2472 108.109 54.2472 106.724 54.2016C105.657 54.1665 105.02 53.44 105.013 52.3607C105.004 51.069 105.003 49.7756 105.013 48.484C105.022 47.3345 105.705 46.6588 106.859 46.6431C107.517 46.6325 108.176 46.6395 108.834 46.6395Z" fill="#241E92"/>
</g>
<defs>
<filter id="filter0_d_587_1183" x="164.04" y="103.259" width="756.708" height="79.9633" filterUnits="userSpaceOnUse" color-interpolation-filters="sRGB">
<feFlood flood-opacity="0" result="BackgroundImageFix"/>
<feColorMatrix in="SourceAlpha" type="matrix" values="0 0 0 0 0 0 0 0 0 0 0 0 0 0 0 0 0 0 127 0" result="hardAlpha"/>
<feOffset dy="1.5046"/>
<feGaussianBlur stdDeviation="0.752301"/>
<feComposite in2="hardAlpha" operator="out"/>
<feColorMatrix type="matrix" values="0 0 0 0 0 0 0 0 0 0 0 0 0 0 0 0 0 0 0.25 0"/>
<feBlend mode="normal" in2="BackgroundImageFix" result="effect1_dropShadow_587_1183"/>
<feBlend mode="normal" in="SourceGraphic" in2="effect1_dropShadow_587_1183" result="shape"/>
</filter>
<clipPath id="clip0_587_1183">
<rect width="188.183" height="197" fill="white"/>
</clipPath>
</defs>
</svg>
