<svg width="947" height="919" viewBox="0 0 947 919" fill="none" xmlns="http://www.w3.org/2000/svg">
<g opacity="0.6">
<path d="M141.505 354.186C141.505 360.483 146.356 365.583 152.346 365.583C158.336 365.583 163.188 360.483 163.188 354.186C163.188 347.889 158.336 342.789 152.346 342.789C146.356 342.789 141.505 347.889 141.505 354.186Z" fill="#9A9DA3"/>
<path d="M54.2538 375.524C54.2538 378.594 56.63 381.092 59.5508 381.092C62.4715 381.092 64.8477 378.594 64.8477 375.524C64.8477 372.453 62.4715 369.955 59.5508 369.955C56.63 369.929 54.2538 372.427 54.2538 375.524Z" fill="#9A9DA3"/>
<path d="M282.568 613.66C282.568 615.689 284.128 617.355 286.083 617.355C288.014 617.355 289.598 615.715 289.598 613.66C289.598 611.63 288.038 609.965 286.083 609.965C284.128 609.965 282.568 611.63 282.568 613.66Z" fill="#9A9DA3"/>
<path d="M44.056 484.573C41.1032 484.573 38.7095 482.056 38.7095 478.952C38.7095 475.848 41.1032 473.332 44.056 473.332C47.0087 473.332 49.4023 475.848 49.4023 478.952C49.4023 482.056 47.0087 484.573 44.056 484.573Z" fill="#9A9DA3"/>
<path d="M173.485 141.966C169.548 141.966 166.356 138.611 166.356 134.472C166.356 130.334 169.548 126.979 173.485 126.979C177.422 126.979 180.613 130.334 180.613 134.472C180.613 138.611 177.422 141.966 173.485 141.966Z" fill="#9A9DA3"/>
<path d="M698.054 747.741C696.305 747.741 694.886 746.25 694.886 744.411C694.886 742.571 696.305 741.08 698.054 741.08C699.804 741.08 701.223 742.571 701.223 744.411C701.223 746.25 699.804 747.741 698.054 747.741Z" fill="#9A9DA3"/>
<path d="M525.779 656.645C525.779 660.678 528.873 663.931 532.71 663.931C536.547 663.931 539.641 660.678 539.641 656.645C539.641 652.612 536.547 649.359 532.71 649.359C528.873 649.359 525.779 652.612 525.779 656.645Z" fill="#9A9DA3"/>
<path d="M63.8322 276.282C58.3095 276.282 53.8324 271.576 53.8324 265.77C53.8324 259.964 58.3095 255.258 63.8322 255.258C69.3549 255.258 73.832 259.964 73.832 265.77C73.832 271.576 69.3549 276.282 63.8322 276.282Z" fill="#DBDBDB"/>
<path d="M346.326 338.913C346.326 343.648 349.989 347.499 354.494 347.499C358.999 347.499 362.662 343.648 362.662 338.913C362.662 334.177 358.999 330.326 354.494 330.326C349.989 330.326 346.326 334.177 346.326 338.913Z" fill="#DBDBDB"/>
<path d="M352.687 804.465C352.687 806.443 354.197 808.03 356.078 808.03C357.959 808.03 359.469 806.443 359.469 804.465C359.469 802.488 357.959 800.9 356.078 800.9C354.221 800.926 352.687 802.514 352.687 804.465Z" fill="#DBDBDB"/>
<path d="M756.245 803.504C756.245 808.005 759.711 811.648 763.993 811.648C768.275 811.648 771.74 808.005 771.74 803.504C771.74 799.002 768.275 795.359 763.993 795.359C759.711 795.359 756.245 799.002 756.245 803.504Z" fill="#DBDBDB"/>
<path d="M117.942 754.532C114.415 754.532 111.556 751.526 111.556 747.819C111.556 744.111 114.415 741.105 117.942 741.105C121.469 741.105 124.328 744.111 124.328 747.819C124.328 751.526 121.469 754.532 117.942 754.532Z" fill="#DBDBDB"/>
<path d="M398.876 509.891C398.876 512.623 400.979 514.835 403.578 514.835C406.177 514.835 408.281 512.623 408.281 509.891C408.281 507.159 406.177 504.947 403.578 504.947C400.979 504.947 398.876 507.159 398.876 509.891Z" fill="#DBDBDB"/>
<path d="M938.445 799.808C938.445 802.201 940.277 804.127 942.554 804.127C944.831 804.127 946.663 802.201 946.663 799.808C946.663 797.414 944.831 795.488 942.554 795.488C940.277 795.488 938.445 797.414 938.445 799.808Z" fill="#DBDBDB"/>
<path d="M424.842 416.011C424.842 417.963 426.352 419.55 428.208 419.55C430.064 419.55 431.574 417.963 431.574 416.011C431.574 414.06 430.064 412.473 428.208 412.473C426.352 412.473 424.842 414.06 424.842 416.011Z" fill="#5432D3"/>
<path d="M166.851 496.336C161.383 496.336 156.95 491.676 156.95 485.928C156.95 480.179 161.383 475.52 166.851 475.52C172.319 475.52 176.752 480.179 176.752 485.928C176.752 491.676 172.319 496.336 166.851 496.336Z" fill="#5432D3"/>
<path d="M520.854 508.252C520.854 513.612 524.988 517.931 530.062 517.931C535.161 517.931 539.27 513.586 539.27 508.252C539.27 502.892 535.136 498.572 530.062 498.572C524.988 498.572 520.854 502.892 520.854 508.252Z" fill="#5432D3"/>
<path d="M764.983 646.212C764.983 648.814 766.988 650.921 769.463 650.921C771.938 650.921 773.943 648.814 773.943 646.212C773.943 643.61 771.938 641.502 769.463 641.502C766.988 641.502 764.983 643.61 764.983 646.212Z" fill="#5432D3"/>
<path d="M252.171 748.003C252.171 754.039 256.825 758.931 262.567 758.931C268.31 758.931 272.963 754.039 272.963 748.003C272.963 741.966 268.31 737.074 262.567 737.074C256.825 737.074 252.171 741.966 252.171 748.003Z" fill="#5432D3"/>
<path d="M30.6892 611.656C30.6892 615.559 33.709 618.733 37.4218 618.733C41.1346 618.733 44.1543 615.559 44.1543 611.656C44.1543 607.753 41.1346 604.578 37.4218 604.578C33.709 604.552 30.6892 607.727 30.6892 611.656Z" fill="#5432D3"/>
<path d="M133.806 618.317C133.806 621.283 136.083 623.677 138.905 623.677C141.727 623.677 144.004 621.283 144.004 618.317C144.004 615.351 141.727 612.957 138.905 612.957C136.083 612.957 133.806 615.351 133.806 618.317Z" fill="#241E92"/>
<path d="M421.572 616.392C418.223 616.392 415.508 613.538 415.508 610.018C415.508 606.497 418.223 603.643 421.572 603.643C424.922 603.643 427.637 606.497 427.637 610.018C427.637 613.538 424.922 616.392 421.572 616.392Z" fill="#241E92"/>
<path d="M862.011 772.356C857.103 772.356 853.125 768.174 853.125 763.015C853.125 757.856 857.103 753.674 862.011 753.674C866.918 753.674 870.896 757.856 870.896 763.015C870.896 768.174 866.918 772.356 862.011 772.356Z" fill="#241E92"/>
<path d="M461.648 788.41C459.529 788.41 457.811 786.604 457.811 784.377C457.811 782.149 459.529 780.344 461.648 780.344C463.767 780.344 465.484 782.149 465.484 784.377C465.484 786.604 463.767 788.41 461.648 788.41Z" fill="#241E92"/>
<path d="M97.9661 162.314C97.9661 164.629 99.7483 166.477 101.926 166.477C104.129 166.477 105.887 164.603 105.887 162.314C105.887 159.998 104.105 158.15 101.926 158.15C99.7483 158.15 97.9661 159.998 97.9661 162.314Z" fill="#241E92"/>
<path d="M343.433 239.333C340.603 239.333 338.309 236.921 338.309 233.947C338.309 230.972 340.603 228.561 343.433 228.561C346.263 228.561 348.557 230.972 348.557 233.947C348.557 236.921 346.263 239.333 343.433 239.333Z" fill="#241E92"/>
<path d="M627.262 791.43C627.262 797.051 631.594 801.63 636.965 801.63C642.336 801.63 646.668 797.077 646.668 791.43C646.668 785.81 642.336 781.23 636.965 781.23C631.594 781.23 627.262 785.784 627.262 791.43Z" fill="#241E92"/>
<path d="M646.148 641.891C644.193 641.891 642.608 640.225 642.608 638.17C642.608 636.115 644.193 634.449 646.148 634.449C648.103 634.449 649.688 636.115 649.688 638.17C649.688 640.225 648.103 641.891 646.148 641.891Z" fill="#E5A5FF"/>
<path d="M638.725 519.831C638.725 522.615 640.854 524.852 643.502 524.852C646.151 524.852 648.279 522.615 648.279 519.831C648.279 517.046 646.151 514.809 643.502 514.809C640.854 514.809 638.725 517.072 638.725 519.831Z" fill="#E5A5FF"/>
<path d="M501.768 376.616C498.282 376.616 495.457 373.645 495.457 369.981C495.457 366.316 498.282 363.346 501.768 363.346C505.254 363.346 508.08 366.316 508.08 369.981C508.08 373.645 505.254 376.616 501.768 376.616Z" fill="#E5A5FF"/>
<path d="M381.177 704.105C381.177 708.477 384.544 712.016 388.702 712.016C392.86 712.016 396.227 708.477 396.227 704.105C396.227 699.734 392.86 696.195 388.702 696.195C384.544 696.195 381.177 699.734 381.177 704.105Z" fill="#E5A5FF"/>
<path d="M213.608 235.301C213.608 236.914 214.846 238.215 216.38 238.215C217.915 238.215 219.152 236.914 219.152 235.301C219.152 233.688 217.915 232.387 216.38 232.387C214.846 232.387 213.608 233.688 213.608 235.301Z" fill="#E5A5FF"/>
<path d="M559.889 769.233C559.889 772.59 562.488 775.322 565.681 775.322C568.874 775.322 571.473 772.59 571.473 769.233C571.473 765.877 568.874 763.145 565.681 763.145C562.488 763.145 559.889 765.877 559.889 769.233Z" fill="#E5A5FF"/>
<path d="M288.21 493.811C285.175 493.811 282.715 491.225 282.715 488.034C282.715 484.844 285.175 482.258 288.21 482.258C291.245 482.258 293.705 484.844 293.705 488.034C293.705 491.225 291.245 493.811 288.21 493.811Z" fill="#E5A5FF"/>
<path d="M67.8693 127.265C67.894 127.265 67.9187 127.265 67.9187 127.265L184.476 104.445C184.6 104.419 184.699 104.341 184.723 104.211C184.748 104.081 184.724 103.951 184.625 103.873L69.5524 0.598646C69.4534 0.520586 69.3296 0.494565 69.2306 0.546606C69.1316 0.598646 69.0574 0.702727 69.0574 0.832828L67.5722 126.901C67.5722 127.005 67.6218 127.083 67.6713 127.161C67.7208 127.239 67.795 127.265 67.8693 127.265ZM183.733 103.951L68.191 126.562L69.6514 1.58741L183.733 103.951Z" fill="#C7C7C7"/>
<path d="M296.824 251.511C296.923 251.511 297.022 251.459 297.072 251.381C297.146 251.277 297.146 251.147 297.096 251.042L253.929 155.626C253.879 155.522 253.78 155.444 253.681 155.444C253.582 155.444 253.459 155.47 253.409 155.574L196.331 234.65C196.257 234.728 196.257 234.858 196.281 234.962C196.331 235.066 196.405 235.144 196.529 235.17L296.775 251.537C296.775 251.511 296.799 251.511 296.824 251.511ZM253.582 156.381L296.28 250.782L197.123 234.598L253.582 156.381Z" fill="#C7C7C7"/>
<path d="M196.581 235.171C196.655 235.171 196.729 235.145 196.803 235.067C196.878 234.989 196.902 234.911 196.902 234.806L184.749 104.107C184.724 103.977 184.65 103.873 184.526 103.821C184.403 103.795 184.279 103.821 184.205 103.925L97.4488 222.473C97.3745 222.577 97.3745 222.681 97.3992 222.785C97.4487 222.889 97.5478 222.967 97.6468 222.993L196.556 235.145C196.556 235.171 196.556 235.171 196.581 235.171ZM184.18 104.992L196.234 234.468L98.2408 222.421L184.18 104.992Z" fill="#C7C7C7"/>
<path d="M196.58 235.17C196.679 235.17 196.778 235.118 196.828 235.04L253.906 155.965C253.955 155.887 253.98 155.808 253.955 155.73C253.93 155.652 253.906 155.574 253.831 155.522L184.6 103.898C184.501 103.82 184.377 103.82 184.278 103.872C184.179 103.924 184.105 104.054 184.13 104.184L196.283 234.884C196.308 235.014 196.382 235.118 196.506 235.17C196.53 235.17 196.555 235.17 196.58 235.17ZM253.213 155.834L196.803 233.973L184.798 104.809L253.213 155.834Z" fill="#C7C7C7"/>
<path d="M20.7168 231.345H20.7416L97.6708 223.019C97.7698 223.019 97.8441 222.967 97.8936 222.863C97.9431 222.785 97.9678 222.681 97.9183 222.577L68.1416 126.848C68.0921 126.718 67.9931 126.64 67.8694 126.614C67.7456 126.614 67.6218 126.666 67.5723 126.796L20.4198 230.877C20.3703 230.981 20.3703 231.111 20.4446 231.215C20.5188 231.293 20.6178 231.345 20.7168 231.345ZM97.25 222.394L21.2365 230.617L67.8199 127.811L97.25 222.394Z" fill="#C7C7C7"/>
<path d="M97.6445 223.019C97.7435 223.019 97.8425 222.967 97.892 222.889L184.648 104.341C184.722 104.237 184.722 104.081 184.673 103.977C184.598 103.873 184.475 103.794 184.351 103.82L67.7935 126.64C67.6945 126.666 67.6203 126.718 67.5956 126.796C67.5461 126.874 67.546 126.978 67.5708 127.056L97.3474 222.785C97.3722 222.889 97.4712 222.993 97.595 222.993C97.6197 223.019 97.6445 223.019 97.6445 223.019ZM183.682 104.601L97.7682 221.978L68.2886 127.187L183.682 104.601Z" fill="#C7C7C7"/>
<path d="M261.282 300.351C261.307 300.351 261.332 300.351 261.356 300.351L347.171 281.773C347.295 281.747 347.394 281.643 347.419 281.513C347.444 281.383 347.37 281.253 347.271 281.174L296.999 250.913C296.875 250.835 296.702 250.861 296.603 250.991L261.059 299.831C260.985 299.935 260.985 300.091 261.035 300.195C261.084 300.299 261.183 300.351 261.282 300.351ZM346.231 281.331L262.025 299.545L296.9 251.616L346.231 281.331Z" fill="#C7C7C7"/>
<path d="M261.283 300.351C261.407 300.351 261.506 300.272 261.555 300.168C261.605 300.038 261.58 299.882 261.481 299.804L196.779 234.598C196.705 234.52 196.606 234.494 196.507 234.52C196.408 234.546 196.334 234.624 196.284 234.728L176.359 287.913C176.334 288.017 176.334 288.121 176.384 288.199C176.433 288.277 176.507 288.355 176.606 288.355L261.234 300.377C261.258 300.351 261.258 300.351 261.283 300.351ZM196.705 235.404L260.392 299.57L177.101 287.757L196.705 235.404Z" fill="#C7C7C7"/>
<path d="M261.279 300.35C261.279 300.35 261.304 300.35 261.279 300.35C261.403 300.35 261.477 300.298 261.527 300.22L297.07 251.38C297.145 251.302 297.145 251.172 297.12 251.068C297.07 250.964 296.996 250.886 296.872 250.86L196.627 234.493C196.503 234.467 196.355 234.545 196.305 234.675C196.256 234.806 196.28 234.962 196.379 235.066L261.081 300.272C261.131 300.324 261.205 300.35 261.279 300.35ZM296.254 251.432L261.254 299.544L197.518 235.3L296.254 251.432Z" fill="#C7C7C7"/>
<path d="M147.67 301.002C147.719 301.002 147.744 301.002 147.794 300.976L176.778 288.304C176.877 288.252 176.951 288.174 176.976 288.044C177.001 287.94 176.951 287.81 176.852 287.732L97.8687 222.395C97.7449 222.291 97.5717 222.291 97.4727 222.421C97.3489 222.525 97.3489 222.708 97.4232 222.838L147.447 300.846C147.472 300.95 147.571 301.002 147.67 301.002ZM176.036 287.94L147.769 300.3L99.0073 224.243L176.036 287.94Z" fill="#C7C7C7"/>
<path d="M176.653 288.357C176.678 288.357 176.703 288.357 176.728 288.357C176.827 288.331 176.901 288.253 176.926 288.175L196.851 234.989C196.876 234.885 196.876 234.781 196.826 234.703C196.777 234.625 196.702 234.547 196.603 234.547L97.6944 222.396C97.5458 222.37 97.4221 222.448 97.3726 222.604C97.3231 222.734 97.3478 222.89 97.4716 222.994L176.455 288.331C176.505 288.331 176.579 288.357 176.653 288.357ZM196.133 235.119L176.505 287.498L98.7092 223.15L196.133 235.119Z" fill="#C7C7C7"/>
<path d="M147.671 301.002C147.82 301.002 147.944 300.897 147.968 300.767C147.993 300.611 147.944 300.481 147.82 300.403L20.8669 230.747C20.7431 230.695 20.5946 230.695 20.5203 230.799C20.4213 230.903 20.3966 231.033 20.4462 231.163L50.4456 298.998C50.4951 299.102 50.5941 299.18 50.7178 299.18L147.671 301.002ZM21.3866 231.762L146.36 300.351L50.9159 298.556L21.3866 231.762Z" fill="#C7C7C7"/>
<path d="M147.668 301.001C147.743 301.001 147.842 300.975 147.891 300.897C147.99 300.793 147.99 300.611 147.916 300.507L97.892 222.498C97.8178 222.394 97.7188 222.342 97.595 222.368L20.6657 230.694C20.542 230.72 20.4183 230.825 20.3935 230.955C20.3688 231.085 20.443 231.241 20.542 231.293L147.495 300.949C147.569 301.001 147.619 301.001 147.668 301.001ZM97.496 223.018L146.728 299.804L21.7796 231.241L97.496 223.018Z" fill="#C7C7C7"/>
<path d="M387.417 418.325C387.442 418.325 387.491 418.325 387.516 418.299L475.46 383.25C475.559 383.198 475.633 383.12 475.658 382.99C475.683 382.86 475.633 382.756 475.534 382.678L347.269 281.199C347.17 281.121 347.022 281.121 346.898 281.199C346.799 281.277 346.749 281.433 346.774 281.563L387.095 418.091C387.12 418.169 387.169 418.247 387.244 418.299C387.318 418.299 387.367 418.325 387.417 418.325ZM474.717 382.834L387.59 417.545L347.665 282.318L474.717 382.834Z" fill="#C7C7C7"/>
<path d="M387.416 418.326C387.515 418.326 387.639 418.274 387.689 418.17C387.763 418.04 387.738 417.858 387.614 417.754L261.478 299.804C261.379 299.7 261.206 299.7 261.082 299.778C260.958 299.882 260.934 300.039 261.008 300.195L304.596 390.381C304.621 390.459 304.695 390.511 304.769 390.537L387.317 418.3C387.342 418.3 387.392 418.326 387.416 418.326ZM262.295 301.418L386.105 417.207L305.066 389.938L262.295 301.418Z" fill="#C7C7C7"/>
<path d="M387.418 418.327C387.468 418.327 387.542 418.301 387.592 418.275C387.715 418.197 387.765 418.041 387.715 417.91L347.394 281.383C347.345 281.227 347.196 281.122 347.048 281.149L261.233 299.727C261.109 299.753 261.035 299.831 260.985 299.961C260.96 300.091 260.985 300.195 261.084 300.299L387.22 418.249C387.27 418.301 387.344 418.327 387.418 418.327ZM346.875 281.851L386.775 416.974L261.926 300.221L346.875 281.851Z" fill="#C7C7C7"/>
<path d="M215.69 398.005H215.714L304.871 390.563C304.995 390.563 305.119 390.459 305.143 390.329C305.168 390.199 305.143 390.068 305.044 389.99L176.829 287.783C176.73 287.705 176.557 287.705 176.458 287.783C176.359 287.861 176.309 288.017 176.359 288.147L215.417 397.796C215.467 397.927 215.566 398.005 215.69 398.005ZM304.03 389.964L215.912 397.328L177.324 288.954L304.03 389.964Z" fill="#C7C7C7"/>
<path d="M304.87 390.536C304.944 390.536 305.018 390.51 305.068 390.458C305.167 390.354 305.216 390.198 305.142 390.068L261.554 299.882C261.504 299.778 261.43 299.726 261.331 299.7L176.704 287.679C176.555 287.653 176.432 287.731 176.382 287.887C176.333 288.017 176.357 288.173 176.481 288.277L304.696 390.484C304.721 390.536 304.795 390.536 304.87 390.536ZM261.083 300.325L303.979 389.105L177.768 288.511L261.083 300.325Z" fill="#C7C7C7"/>
<path d="M164.847 434.198C164.897 434.198 164.971 434.172 165.021 434.146L215.886 397.952C215.96 397.9 216.01 397.822 216.01 397.744C216.035 397.666 216.01 397.562 215.96 397.484L147.917 300.481C147.843 300.351 147.694 300.325 147.546 300.377C147.422 300.429 147.348 300.585 147.348 300.715L164.526 433.912C164.55 434.016 164.6 434.12 164.699 434.172C164.748 434.198 164.798 434.198 164.847 434.198ZM215.267 397.588L165.095 433.314L148.165 301.886L215.267 397.588Z" fill="#C7C7C7"/>
<path d="M215.687 398.004C215.737 398.004 215.786 398.004 215.836 397.952C215.96 397.874 216.034 397.692 215.984 397.562L176.926 287.913C176.901 287.835 176.827 287.756 176.753 287.73C176.678 287.704 176.579 287.704 176.505 287.73L147.52 300.402C147.421 300.428 147.372 300.506 147.347 300.61C147.322 300.715 147.347 300.819 147.397 300.897L215.44 397.9C215.514 397.952 215.613 398.004 215.687 398.004ZM176.456 288.459L214.623 395.61L148.139 300.819L176.456 288.459Z" fill="#C7C7C7"/>
<path d="M164.848 434.199C164.947 434.199 165.046 434.147 165.096 434.043C165.17 433.913 165.17 433.757 165.071 433.653L50.9639 298.634C50.8897 298.556 50.8155 298.504 50.7165 298.53C50.6175 298.53 50.5431 298.582 50.4689 298.686L0.346051 377.814C0.296547 377.892 0.271922 377.996 0.321426 378.1C0.346178 378.204 0.420325 378.282 0.519333 378.308L164.774 434.199C164.774 434.199 164.798 434.199 164.848 434.199ZM50.766 299.389L163.858 433.211L1.08873 377.814L50.766 299.389Z" fill="#C7C7C7"/>
<path d="M164.851 434.199C164.9 434.199 164.95 434.199 164.974 434.173C165.098 434.121 165.172 433.965 165.148 433.835L147.97 300.638C147.945 300.481 147.821 300.351 147.673 300.351L50.7191 298.504C50.6201 298.504 50.4963 298.582 50.4221 298.686C50.3726 298.816 50.3972 298.946 50.4715 299.05L164.578 434.069C164.677 434.173 164.752 434.199 164.851 434.199ZM147.4 301.002L164.405 432.872L51.4368 299.18L147.4 301.002Z" fill="#C7C7C7"/>
<path d="M569.073 552.72C569.147 552.72 569.222 552.694 569.296 552.616C569.395 552.512 569.42 552.356 569.346 552.226L475.634 382.756C475.56 382.626 475.412 382.574 475.263 382.6C475.115 382.652 475.04 382.782 475.04 382.939L485.189 502.423C485.189 502.527 485.263 502.631 485.337 502.683L568.925 552.668C568.974 552.72 569.024 552.72 569.073 552.72ZM475.783 384.37L568.232 551.523L485.783 502.241L475.783 384.37Z" fill="#C7C7C7"/>
<path d="M407.07 533.725C407.095 533.725 407.144 533.725 407.169 533.699L485.608 502.735C485.707 502.683 485.781 502.605 485.806 502.475C485.831 502.371 485.781 502.241 485.707 502.163L387.615 417.727C387.516 417.649 387.367 417.623 387.268 417.701C387.145 417.779 387.095 417.91 387.12 418.04L406.773 533.465C406.798 533.569 406.847 533.647 406.921 533.699C406.971 533.725 407.02 533.725 407.07 533.725ZM484.89 502.319L407.317 532.971L387.887 418.82L484.89 502.319Z" fill="#C7C7C7"/>
<path d="M485.51 502.762C485.56 502.762 485.609 502.762 485.659 502.736C485.758 502.684 485.832 502.554 485.832 502.424L475.684 382.939C475.684 382.835 475.634 382.757 475.535 382.705C475.461 382.653 475.362 382.653 475.263 382.679L387.319 417.728C387.22 417.78 387.146 417.858 387.121 417.989C387.096 418.093 387.146 418.223 387.22 418.301L485.312 502.736C485.362 502.736 485.436 502.762 485.51 502.762ZM475.09 383.382L485.114 501.669L388.012 418.093L475.09 383.382Z" fill="#C7C7C7"/>
<path d="M407.07 533.725C407.144 533.725 407.218 533.699 407.292 533.621C407.416 533.517 407.416 533.335 407.317 533.205L305.116 390.016C305.017 389.886 304.869 389.86 304.72 389.912C304.596 389.99 304.522 390.146 304.572 390.302L331.056 469.95C331.081 470.002 331.106 470.054 331.155 470.106L406.896 533.647C406.921 533.699 406.995 533.725 407.07 533.725ZM305.809 392.098L405.362 531.566L331.601 469.69L305.809 392.098Z" fill="#C7C7C7"/>
<path d="M407.069 533.727C407.119 533.727 407.144 533.727 407.193 533.701C407.317 533.649 407.391 533.492 407.366 533.336L387.713 417.911C387.688 417.781 387.614 417.703 387.515 417.651L304.967 389.887C304.844 389.835 304.695 389.887 304.621 390.017C304.546 390.121 304.546 390.277 304.621 390.408L406.822 533.596C406.871 533.675 406.97 533.727 407.069 533.727ZM387.144 418.249L406.525 532.113L305.685 390.85L387.144 418.249Z" fill="#C7C7C7"/>
<path d="M190.788 472.709L331.33 470.185C331.478 470.185 331.577 470.081 331.627 469.951C331.651 469.821 331.602 469.664 331.478 469.586L215.837 397.406C215.762 397.354 215.663 397.354 215.564 397.38C215.465 397.406 215.416 397.484 215.366 397.589L190.466 472.292C190.441 472.397 190.441 472.501 190.515 472.579C190.59 472.657 190.689 472.709 190.788 472.709ZM330.241 469.56L191.233 472.058L215.861 398.161L330.241 469.56Z" fill="#C7C7C7"/>
<path d="M331.33 470.185C331.404 470.185 331.479 470.159 331.528 470.107C331.627 470.029 331.677 469.873 331.627 469.743L305.142 390.095C305.093 389.965 304.969 389.861 304.821 389.887L215.664 397.329C215.54 397.329 215.416 397.433 215.392 397.589C215.367 397.719 215.416 397.875 215.54 397.953L331.182 470.133C331.231 470.185 331.281 470.185 331.33 470.185ZM304.647 390.563L330.761 469.118L216.704 397.901L304.647 390.563Z" fill="#C7C7C7"/>
<path d="M129.451 479.057H129.476L190.811 472.709C190.91 472.709 191.009 472.63 191.059 472.526C191.108 472.422 191.084 472.292 191.034 472.214L165.094 433.704C165.045 433.626 164.946 433.574 164.847 433.574C164.748 433.574 164.649 433.626 164.599 433.704L129.204 478.537C129.129 478.641 129.105 478.771 129.179 478.901C129.228 478.979 129.327 479.057 129.451 479.057ZM190.217 472.11L130.144 478.329L164.797 434.407L190.217 472.11Z" fill="#C7C7C7"/>
<path d="M190.789 472.708C190.814 472.708 190.814 472.708 190.838 472.708C190.962 472.682 191.061 472.604 191.086 472.5L215.986 397.796C216.036 397.666 215.986 397.51 215.887 397.432C215.788 397.354 215.64 397.328 215.516 397.432L164.651 433.626C164.577 433.678 164.527 433.756 164.527 433.834C164.502 433.912 164.527 434.016 164.577 434.068L190.517 472.578C190.591 472.656 190.69 472.708 190.789 472.708ZM215.095 398.499L190.69 471.694L165.27 433.964L215.095 398.499Z" fill="#C7C7C7"/>
<path d="M129.45 479.057C129.574 479.057 129.673 478.979 129.722 478.875C129.772 478.744 129.747 478.562 129.623 478.484L0.764234 377.734C0.640473 377.63 0.467125 377.656 0.368117 377.76C0.269109 377.864 0.244459 378.046 0.318715 378.177L54.0552 464.329C54.1047 464.407 54.179 464.459 54.2533 464.459L129.351 479.057C129.4 479.057 129.425 479.057 129.45 479.057ZM1.80378 379.347L128.188 478.172L54.5255 463.861L1.80378 379.347Z" fill="#C7C7C7"/>
<path d="M129.452 479.056C129.551 479.056 129.625 479.004 129.699 478.926L165.095 434.093C165.169 434.015 165.194 433.911 165.144 433.807C165.119 433.703 165.045 433.625 164.946 433.599L0.691795 377.708C0.543283 377.656 0.394861 377.734 0.320605 377.864C0.246349 377.994 0.295799 378.176 0.419559 378.28L129.279 479.03C129.303 479.03 129.378 479.056 129.452 479.056ZM164.303 434.041L129.378 478.276L2.27596 378.905L164.303 434.041Z" fill="#C7C7C7"/>
<path d="M660.852 616.704C660.976 616.704 661.099 616.626 661.149 616.496C661.198 616.365 661.149 616.183 661.025 616.105L569.245 552.122C569.121 552.044 568.972 552.044 568.849 552.174L526.597 596.122C526.523 596.2 526.473 596.33 526.523 596.46C526.548 596.564 526.647 596.668 526.77 596.668L660.802 616.704C660.827 616.704 660.827 616.704 660.852 616.704ZM569.121 552.824L659.54 615.871L527.488 596.122L569.121 552.824Z" fill="#C7C7C7"/>
<path d="M526.82 596.669C526.919 596.669 526.993 596.617 527.067 596.565C527.142 596.46 527.166 596.33 527.117 596.226L485.806 502.293C485.756 502.163 485.632 502.111 485.509 502.111C485.385 502.111 485.261 502.215 485.236 502.346L465.262 578.455C465.212 578.637 465.311 578.819 465.484 578.845L526.77 596.669C526.746 596.669 526.795 596.669 526.82 596.669ZM485.583 503.36L526.251 595.836L465.905 578.298L485.583 503.36Z" fill="#C7C7C7"/>
<path d="M526.821 596.669C526.895 596.669 526.97 596.643 527.044 596.565L569.296 552.617C569.37 552.539 569.395 552.435 569.395 552.331C569.395 552.227 569.32 552.149 569.246 552.097L485.659 502.112C485.535 502.034 485.386 502.06 485.287 502.164C485.188 502.268 485.163 502.424 485.213 502.528L526.524 596.461C526.574 596.565 526.648 596.617 526.747 596.643C526.772 596.669 526.796 596.669 526.821 596.669ZM568.578 552.461L526.92 595.784L486.178 503.205L568.578 552.461Z" fill="#C7C7C7"/>
<path d="M361.377 600.935C361.402 600.935 361.427 600.935 361.427 600.935L465.559 578.844C465.682 578.818 465.781 578.714 465.806 578.584C465.831 578.454 465.781 578.324 465.682 578.246L407.218 533.127C407.144 533.075 407.07 533.049 406.995 533.075C406.921 533.101 406.847 533.127 406.797 533.205L361.105 600.415C361.031 600.519 361.031 600.675 361.105 600.779C361.179 600.883 361.278 600.935 361.377 600.935ZM464.767 578.35L362.07 600.129L407.119 533.855L464.767 578.35Z" fill="#C7C7C7"/>
<path d="M465.534 578.845C465.558 578.845 465.608 578.845 465.633 578.819C465.732 578.793 465.806 578.688 465.831 578.61L485.806 502.501C485.83 502.371 485.806 502.267 485.706 502.163C485.632 502.085 485.484 502.059 485.385 502.111L406.97 533.101C406.871 533.153 406.797 533.231 406.772 533.361C406.748 533.491 406.797 533.595 406.896 533.674L465.36 578.792C465.385 578.819 465.459 578.845 465.534 578.845ZM485.038 502.944L465.336 577.96L407.713 533.465L485.038 502.944Z" fill="#C7C7C7"/>
<path d="M361.376 600.936C361.45 600.936 361.525 600.91 361.574 600.858C361.648 600.78 361.698 600.65 361.673 600.546L331.624 469.795C331.575 469.639 331.426 469.508 331.278 469.56C331.105 469.587 331.005 469.743 331.03 469.925L343.654 594.301C343.679 594.431 343.753 594.535 343.852 594.561L361.277 600.936C361.302 600.936 361.351 600.936 361.376 600.936ZM332.144 474.765L360.955 600.104L344.248 593.989L332.144 474.765Z" fill="#C7C7C7"/>
<path d="M361.378 600.936C361.477 600.936 361.576 600.884 361.626 600.806L407.318 533.596C407.417 533.466 407.392 533.258 407.268 533.153L331.527 469.612C331.428 469.534 331.28 469.508 331.156 469.586C331.057 469.664 330.983 469.794 331.032 469.924L361.081 600.676C361.106 600.806 361.205 600.884 361.329 600.91C361.353 600.936 361.353 600.936 361.378 600.936ZM406.649 533.466L361.527 599.843L331.849 470.705L406.649 533.466Z" fill="#C7C7C7"/>
<path d="M208.979 607.467H209.004L343.977 594.561C344.1 594.561 344.199 594.457 344.249 594.327C344.274 594.197 344.249 594.067 344.15 593.989L190.984 472.137C190.885 472.058 190.737 472.058 190.638 472.11C190.539 472.189 190.465 472.319 190.489 472.449L208.682 607.207C208.682 607.363 208.806 607.467 208.979 607.467ZM343.135 593.989L209.251 606.791L191.207 473.099L343.135 593.989Z" fill="#C7C7C7"/>
<path d="M343.954 594.56C344.004 594.56 344.053 594.534 344.103 594.508C344.202 594.456 344.276 594.326 344.251 594.196L331.628 469.819C331.603 469.663 331.479 469.533 331.306 469.533L190.764 472.057C190.64 472.057 190.516 472.161 190.467 472.291C190.417 472.421 190.467 472.578 190.566 472.656L343.731 594.508C343.83 594.534 343.88 594.56 343.954 594.56ZM331.058 470.184L343.558 593.519L191.68 472.682L331.058 470.184Z" fill="#C7C7C7"/>
<path d="M208.982 607.467C209.081 607.467 209.18 607.415 209.254 607.311C209.303 607.207 209.303 607.076 209.254 606.972L129.726 478.537C129.651 478.407 129.503 478.355 129.354 478.407C129.231 478.459 129.132 478.589 129.156 478.745L139.478 601.482C139.503 601.638 139.602 601.768 139.75 601.768L208.982 607.467C208.957 607.467 208.957 607.467 208.982 607.467ZM129.849 479.994L208.363 606.764L140.047 601.17L129.849 479.994Z" fill="#C7C7C7"/>
<path d="M208.978 607.468C209.003 607.468 209.053 607.468 209.077 607.442C209.201 607.389 209.3 607.233 209.275 607.103L191.083 472.345C191.058 472.163 190.91 472.059 190.736 472.059L129.401 478.407C129.302 478.407 129.203 478.486 129.153 478.59C129.104 478.694 129.104 478.824 129.178 478.902L208.706 607.337C208.78 607.415 208.879 607.468 208.978 607.468ZM190.513 472.735L208.459 605.75L129.97 479.006L190.513 472.735Z" fill="#C7C7C7"/>
<path d="M47.5476 623.209C47.5723 623.209 47.5971 623.209 47.6219 623.209L139.848 601.821C139.947 601.795 140.021 601.717 140.071 601.639C140.12 601.534 140.095 601.43 140.046 601.326L54.602 463.992C54.5277 463.862 54.3792 463.81 54.2554 463.862C54.1317 463.888 54.0326 464.018 54.0326 464.148L47.2506 622.871C47.2506 622.975 47.2754 623.079 47.3497 623.131C47.3992 623.183 47.4733 623.209 47.5476 623.209ZM139.254 601.248L47.8694 622.455L54.602 465.163L139.254 601.248Z" fill="#C7C7C7"/>
<path d="M139.773 601.794C139.798 601.794 139.848 601.794 139.872 601.768C139.996 601.716 140.095 601.586 140.07 601.43L129.749 478.693C129.749 478.537 129.625 478.433 129.501 478.407L54.4036 463.809C54.2799 463.783 54.1561 463.835 54.0818 463.939C54.0076 464.044 54.0076 464.2 54.0818 464.304L139.526 601.638C139.575 601.742 139.674 601.794 139.773 601.794ZM129.155 479.005L139.353 600.207L54.9977 464.59L129.155 479.005Z" fill="#C7C7C7"/>
<path d="M717.461 702.336C717.56 702.336 717.659 702.284 717.733 702.179C717.808 702.075 717.808 701.919 717.733 701.815L661.125 616.183C661.076 616.105 660.952 616.053 660.853 616.053C660.754 616.053 660.655 616.105 660.606 616.209L619.418 684.928C619.369 685.032 619.344 685.136 619.394 685.24C619.443 685.344 619.517 685.422 619.616 685.422L717.412 702.336C717.436 702.336 717.461 702.336 717.461 702.336ZM660.853 616.963L716.793 701.555L620.186 684.824L660.853 616.963Z" fill="#C7C7C7"/>
<path d="M572.364 687.87L619.69 685.399C619.814 685.399 619.913 685.32 619.962 685.19C620.012 685.06 619.962 684.93 619.888 684.852L527.044 596.097C526.944 595.993 526.771 595.993 526.647 596.071C526.524 596.175 526.499 596.331 526.573 596.488L572.117 687.688C572.142 687.818 572.241 687.87 572.364 687.87ZM618.898 684.8L572.538 687.22L527.91 597.815L618.898 684.8Z" fill="#C7C7C7"/>
<path d="M619.664 685.424C619.689 685.424 619.689 685.424 619.714 685.424C619.813 685.424 619.887 685.346 619.937 685.268L661.124 616.549C661.174 616.444 661.198 616.34 661.149 616.236C661.099 616.132 661.025 616.054 660.901 616.054L526.869 596.019C526.745 595.993 526.597 596.071 526.547 596.201C526.498 596.331 526.523 596.487 526.622 596.591L619.466 685.346C619.516 685.398 619.59 685.424 619.664 685.424ZM660.332 616.627L619.59 684.591L527.76 596.825L660.332 616.627Z" fill="#C7C7C7"/>
<path d="M572.366 687.87C572.465 687.87 572.589 687.818 572.638 687.688C572.713 687.558 572.688 687.402 572.589 687.298L465.759 578.273C465.685 578.195 465.586 578.169 465.462 578.195C465.363 578.221 465.264 578.299 465.24 578.403L440.76 655.267C440.735 655.345 440.735 655.449 440.785 655.527C440.834 655.605 440.908 655.657 440.982 655.683L572.292 687.87C572.317 687.87 572.341 687.87 572.366 687.87ZM465.66 579.106L571.327 686.96L441.428 655.111L465.66 579.106Z" fill="#C7C7C7"/>
<path d="M572.366 687.868C572.44 687.868 572.49 687.842 572.539 687.816C572.663 687.712 572.688 687.556 572.638 687.4L527.094 596.199C527.045 596.121 526.996 596.069 526.897 596.043L465.61 578.219C465.462 578.167 465.338 578.245 465.264 578.376C465.19 578.506 465.214 578.662 465.313 578.766L572.143 687.79C572.193 687.842 572.267 687.868 572.366 687.868ZM526.599 596.616L571.178 685.891L466.601 579.156L526.599 596.616Z" fill="#C7C7C7"/>
<path d="M379.152 699.319C379.202 699.319 379.276 699.293 379.326 699.267L441.23 655.657C441.305 655.605 441.379 655.501 441.379 655.397C441.379 655.293 441.329 655.189 441.23 655.137L361.578 600.391C361.479 600.313 361.331 600.313 361.232 600.391C361.133 600.469 361.083 600.599 361.108 600.729L378.88 699.085C378.905 699.189 378.979 699.293 379.053 699.319C379.078 699.293 379.103 699.319 379.152 699.319ZM440.488 655.371L379.375 698.435L361.826 601.301L440.488 655.371Z" fill="#C7C7C7"/>
<path d="M441.053 655.708C441.078 655.708 441.128 655.708 441.152 655.682C441.251 655.656 441.326 655.578 441.35 655.474L465.83 578.611C465.855 578.507 465.83 578.376 465.781 578.298C465.706 578.22 465.583 578.168 465.484 578.194L361.352 600.285C361.228 600.311 361.129 600.415 361.104 600.546C361.08 600.676 361.129 600.806 361.228 600.884L440.88 655.63C440.93 655.682 440.979 655.708 441.053 655.708ZM465.063 578.949L440.88 654.876L362.193 600.78L465.063 578.949Z" fill="#C7C7C7"/>
<path d="M271.082 730.804C271.107 730.804 271.132 730.804 271.157 730.804L379.224 699.319C379.298 699.293 379.372 699.241 379.422 699.163C379.471 699.085 379.471 698.981 379.447 698.903L344.249 594.146C344.2 594.016 344.101 593.938 343.977 593.938C343.853 593.938 343.729 593.99 343.68 594.094L270.81 730.335C270.761 730.439 270.761 730.595 270.835 730.699C270.909 730.751 270.983 730.804 271.082 730.804ZM378.754 698.773L271.726 729.945L343.878 595.004L378.754 698.773Z" fill="#C7C7C7"/>
<path d="M379.152 699.319C379.177 699.319 379.202 699.319 379.227 699.319C379.375 699.267 379.474 699.111 379.449 698.955L361.677 600.599C361.653 600.495 361.578 600.391 361.479 600.365L344.054 593.99C343.955 593.938 343.806 593.99 343.732 594.068C343.658 594.146 343.608 594.276 343.658 594.406L378.855 699.163C378.905 699.215 379.029 699.319 379.152 699.319ZM361.108 600.859L378.088 694.844L344.45 594.77L361.108 600.859Z" fill="#C7C7C7"/>
<path d="M271.084 730.802C271.158 730.802 271.257 730.776 271.307 730.698C271.406 730.594 271.406 730.438 271.356 730.334L209.253 607.024C209.179 606.894 209.031 606.816 208.882 606.868C208.734 606.92 208.659 607.076 208.684 607.232L223.387 709.569C223.411 709.674 223.461 709.778 223.56 709.83L270.985 730.802C271.01 730.776 271.034 730.802 271.084 730.802ZM209.55 609.001L270.416 729.813L223.956 709.257L209.55 609.001Z" fill="#C7C7C7"/>
<path d="M271.08 730.802C271.204 730.802 271.303 730.75 271.353 730.646L344.223 594.405C344.272 594.3 344.272 594.17 344.223 594.066C344.148 593.962 344.049 593.91 343.926 593.91L208.953 606.816C208.854 606.816 208.755 606.894 208.705 606.972C208.656 607.076 208.656 607.18 208.705 607.285L270.808 730.594C270.858 730.724 270.957 730.828 271.08 730.802ZM343.381 594.613L271.08 729.787L209.448 607.441L343.381 594.613Z" fill="#C7C7C7"/>
<path d="M223.656 709.804C223.755 709.804 223.854 709.752 223.928 709.648C224.002 709.544 223.977 709.388 223.903 709.284L139.994 601.274C139.944 601.196 139.845 601.118 139.746 601.144C139.647 601.144 139.573 601.196 139.499 601.274L80.3909 681.754C80.3166 681.832 80.3167 681.962 80.3414 682.067C80.3909 682.171 80.4652 682.249 80.5642 682.275L223.557 709.804C223.631 709.804 223.656 709.804 223.656 709.804ZM139.771 602.002L222.888 709.023L81.2325 681.754L139.771 602.002Z" fill="#C7C7C7"/>
<path d="M223.659 709.804C223.709 709.804 223.733 709.804 223.783 709.778C223.907 709.726 223.981 709.57 223.956 709.44L209.253 607.102C209.229 606.946 209.105 606.842 208.981 606.816L139.775 601.144C139.651 601.118 139.527 601.196 139.478 601.326C139.428 601.43 139.428 601.586 139.502 601.69L223.412 709.7C223.486 709.778 223.585 709.804 223.659 709.804ZM208.709 607.467L223.189 708.373L140.468 601.872L208.709 607.467Z" fill="#C7C7C7"/>
<path d="M65.7145 693.647C65.7887 693.647 65.8383 693.621 65.8878 693.595L80.8379 682.224C80.9617 682.12 81.0112 681.938 80.9122 681.808L47.794 622.716C47.7198 622.586 47.5464 622.508 47.3979 622.586C47.2494 622.638 47.1751 622.82 47.2246 622.976L65.3927 693.413C65.4174 693.517 65.4917 693.595 65.5907 693.647C65.6402 693.647 65.6897 693.647 65.7145 693.647ZM80.2687 681.86L65.9125 692.762L48.4622 625.11L80.2687 681.86Z" fill="#C7C7C7"/>
<path d="M80.665 682.275C80.764 682.275 80.8629 682.223 80.9124 682.145L140.02 601.664C140.094 601.56 140.119 601.404 140.045 601.3C139.971 601.196 139.847 601.118 139.723 601.144L47.4973 622.532C47.3983 622.558 47.324 622.636 47.2744 622.714C47.2249 622.818 47.2497 622.923 47.2992 623.001L80.4174 682.092C80.4669 682.223 80.5412 682.275 80.665 682.275ZM139.005 601.976L80.7144 681.364L48.0418 623.079L139.005 601.976Z" fill="#C7C7C7"/>
<path d="M807.459 781.567C807.583 781.567 807.706 781.489 807.756 781.333C807.805 781.177 807.731 781.021 807.607 780.943L619.814 684.798C619.665 684.72 619.517 684.772 619.418 684.902C619.319 685.033 619.344 685.215 619.443 685.319L671.843 753.362C671.892 753.414 671.942 753.466 672.016 753.466L807.385 781.515C807.434 781.541 807.459 781.567 807.459 781.567ZM620.779 686.021L805.182 780.422L672.263 752.867L620.779 686.021Z" fill="#C7C7C7"/>
<path d="M807.459 781.569C807.558 781.569 807.657 781.517 807.707 781.412C807.781 781.282 807.756 781.1 807.657 780.996L717.659 701.791C717.61 701.765 717.56 701.739 717.511 701.713L619.74 684.8C619.616 684.774 619.492 684.826 619.418 684.93C619.319 685.06 619.344 685.242 619.443 685.346C619.468 685.372 619.517 685.398 619.542 685.424L807.336 781.543C807.385 781.543 807.41 781.569 807.459 781.569ZM717.337 702.337L805.331 779.799L621.695 685.788L717.337 702.337Z" fill="#C7C7C7"/>
<path d="M546.649 757.525L672.117 753.518C672.24 753.518 672.364 753.414 672.414 753.284C672.438 753.154 672.389 752.998 672.29 752.92L572.539 687.297C572.465 687.245 572.366 687.245 572.267 687.271C572.168 687.297 572.119 687.375 572.069 687.453L546.352 757.083C546.302 757.187 546.327 757.291 546.376 757.395C546.451 757.473 546.55 757.525 546.649 757.525ZM671.077 752.868L547.119 756.849L572.515 688.052L671.077 752.868Z" fill="#C7C7C7"/>
<path d="M672.09 753.491C672.164 753.491 672.263 753.465 672.312 753.387C672.411 753.257 672.411 753.101 672.312 752.971L619.912 684.876C619.838 684.798 619.764 684.746 619.665 684.746L572.364 687.218C572.24 687.218 572.116 687.322 572.092 687.452C572.067 687.582 572.116 687.738 572.215 687.816L671.966 753.439C671.991 753.491 672.04 753.491 672.09 753.491ZM619.516 685.423L670.679 751.852L573.354 687.816L619.516 685.423Z" fill="#C7C7C7"/>
<path d="M482.417 806.833C482.491 806.833 482.541 806.807 482.59 806.781L546.822 757.473C546.896 757.421 546.945 757.317 546.945 757.239C546.945 757.135 546.921 757.057 546.846 756.979L441.254 655.162C441.155 655.058 441.007 655.058 440.883 655.136C440.759 655.214 440.71 655.37 440.759 655.5L482.12 806.625C482.145 806.729 482.219 806.807 482.318 806.833C482.343 806.807 482.392 806.833 482.417 806.833ZM546.153 757.161L482.59 805.975L441.65 656.411L546.153 757.161Z" fill="#C7C7C7"/>
<path d="M546.649 757.526C546.674 757.526 546.699 757.526 546.723 757.526C546.822 757.5 546.897 757.422 546.946 757.318L572.663 687.688C572.688 687.61 572.688 687.506 572.639 687.428C572.589 687.35 572.515 687.272 572.441 687.272L441.131 655.085C440.983 655.059 440.859 655.111 440.785 655.241C440.71 655.371 440.735 655.527 440.859 655.631L546.451 757.448C546.501 757.474 546.575 757.526 546.649 757.526ZM571.946 687.792L546.525 756.641L442.121 655.995L571.946 687.792Z" fill="#C7C7C7"/>
<path d="M482.415 806.834C482.514 806.834 482.589 806.782 482.663 806.704C482.762 806.573 482.762 806.391 482.638 806.261L379.373 698.746C379.274 698.642 379.101 698.616 378.977 698.694C378.853 698.772 378.804 698.954 378.853 699.084L397.194 746.415C397.219 746.467 397.269 746.519 397.318 746.571L482.242 806.756C482.292 806.808 482.366 806.834 482.415 806.834ZM379.992 700.333L479.841 804.284L397.714 746.077L379.992 700.333Z" fill="#C7C7C7"/>
<path d="M482.414 806.833C482.463 806.833 482.513 806.807 482.562 806.781C482.686 806.703 482.735 806.547 482.711 806.417L441.35 655.292C441.325 655.188 441.251 655.11 441.152 655.084C441.053 655.057 440.954 655.057 440.88 655.11L378.975 698.719C378.901 698.771 378.851 698.849 378.851 698.954C378.851 699.058 378.876 699.136 378.95 699.214L482.216 806.729C482.265 806.781 482.339 806.833 482.414 806.833ZM440.855 655.89L481.77 805.376L379.618 699.032L440.855 655.89Z" fill="#C7C7C7"/>
<path d="M340.835 823.226C340.934 823.226 341.034 823.174 341.083 823.096L397.74 746.493C397.815 746.389 397.815 746.285 397.79 746.181C397.74 746.076 397.641 745.998 397.542 745.972L271.134 730.126C271.01 730.1 270.886 730.178 270.837 730.282C270.787 730.386 270.787 730.542 270.862 730.646L340.613 823.07C340.662 823.174 340.736 823.226 340.835 823.226ZM396.899 746.571L340.835 822.394L271.802 730.907L396.899 746.571Z" fill="#C7C7C7"/>
<path d="M397.493 746.624C397.592 746.624 397.691 746.572 397.74 746.493C397.815 746.389 397.815 746.285 397.79 746.181L379.449 698.851C379.399 698.694 379.226 698.616 379.077 698.668L271.01 730.153C270.862 730.205 270.763 730.335 270.787 730.491C270.787 730.647 270.911 730.777 271.06 730.777L397.468 746.624C397.468 746.624 397.468 746.624 397.493 746.624ZM378.954 699.371L396.998 745.921L272.668 730.335L378.954 699.371Z" fill="#C7C7C7"/>
<path d="M340.837 823.226C340.936 823.226 341.06 823.174 341.109 823.07C341.183 822.94 341.159 822.784 341.06 822.68L223.884 709.258C223.809 709.18 223.71 709.154 223.587 709.18C223.488 709.206 223.413 709.284 223.364 709.388L201.186 783.077C201.161 783.155 201.161 783.259 201.211 783.337C201.26 783.415 201.31 783.467 201.409 783.493L340.763 823.226C340.787 823.226 340.812 823.226 340.837 823.226ZM223.809 710.064L339.698 822.237L201.879 782.947L223.809 710.064Z" fill="#C7C7C7"/>
<path d="M340.835 823.226C340.909 823.226 340.983 823.2 341.033 823.148C341.156 823.044 341.157 822.836 341.057 822.705L271.306 730.282C271.282 730.23 271.232 730.204 271.183 730.178L223.758 709.205C223.609 709.153 223.461 709.205 223.386 709.336C223.312 709.466 223.337 709.648 223.436 709.752L340.612 823.174C340.686 823.2 340.76 823.226 340.835 823.226ZM270.886 730.724L338.137 819.817L225.193 710.48L270.886 730.724Z" fill="#C7C7C7"/>
<path d="M201.506 783.493C201.63 783.493 201.729 783.415 201.779 783.311C201.853 783.181 201.803 782.999 201.704 782.92L80.8899 681.702C80.7661 681.598 80.5928 681.598 80.4691 681.728C80.3453 681.832 80.3453 682.014 80.4443 682.17L140.666 765.851C140.715 765.903 140.765 765.955 140.839 765.981L201.457 783.519C201.432 783.493 201.457 783.493 201.506 783.493ZM82.3997 683.836L200.12 782.452L141.062 765.383L82.3997 683.836Z" fill="#C7C7C7"/>
<path d="M201.505 783.493C201.53 783.493 201.554 783.493 201.604 783.467C201.703 783.441 201.777 783.363 201.802 783.259L223.98 709.57C224.005 709.492 224.005 709.388 223.955 709.31C223.906 709.232 223.831 709.179 223.757 709.153L80.7647 681.624C80.6161 681.598 80.4924 681.676 80.4182 681.806C80.3687 681.936 80.3934 682.092 80.5171 682.197L201.332 783.415C201.357 783.467 201.431 783.493 201.505 783.493ZM223.262 709.752L201.332 782.634L81.829 682.535L223.262 709.752Z" fill="#C7C7C7"/>
<path d="M140.889 765.982C141.013 765.982 141.137 765.904 141.186 765.774C141.236 765.644 141.211 765.514 141.112 765.41L65.9401 693.1C65.8658 693.021 65.7668 692.995 65.6678 693.021C65.5688 693.047 65.4945 693.1 65.445 693.178L30.8664 761.481C30.8169 761.585 30.8169 761.689 30.8664 761.793C30.9159 761.897 31.015 761.949 31.114 761.949L140.889 765.982ZM65.8163 693.854L140.072 765.305L31.6585 761.324L65.8163 693.854Z" fill="#C7C7C7"/>
<path d="M140.887 765.983C140.962 765.983 141.036 765.957 141.085 765.905C141.209 765.801 141.209 765.593 141.135 765.463L80.9132 681.782C80.8142 681.652 80.6162 681.6 80.4925 681.704L65.5422 693.075C65.468 693.127 65.4185 693.231 65.4185 693.309C65.4185 693.413 65.4432 693.491 65.5174 693.569L140.689 765.879C140.739 765.931 140.813 765.983 140.887 765.983ZM80.6162 682.406L138.61 762.991L66.2353 693.335L80.6162 682.406Z" fill="#C7C7C7"/>
<path d="M773.797 918.746C773.846 918.746 773.896 918.746 773.945 918.72L896.022 853.826C896.121 853.774 896.171 853.67 896.195 853.566C896.195 853.461 896.171 853.357 896.072 853.279L807.657 780.995C807.583 780.917 807.459 780.917 807.36 780.943C807.261 780.969 807.187 781.073 807.162 781.177L773.475 918.356C773.45 918.486 773.475 918.616 773.574 918.694C773.648 918.72 773.722 918.746 773.797 918.746ZM895.304 853.461L774.267 917.809L807.657 781.802L895.304 853.461Z" fill="#C7C7C7"/>
<path d="M773.796 918.746C773.895 918.746 773.994 918.694 774.044 918.616C774.118 918.512 774.118 918.356 774.044 918.252L672.363 752.998C672.288 752.868 672.14 752.816 672.016 752.868C671.892 752.894 671.793 753.024 671.793 753.18L667.066 889.682C667.066 889.838 667.165 889.968 667.289 890.02L773.697 918.772C773.722 918.746 773.747 918.746 773.796 918.746ZM672.363 754.221L773.079 917.914L667.684 889.447L672.363 754.221Z" fill="#C7C7C7"/>
<path d="M773.797 918.747C773.822 918.747 773.822 918.747 773.846 918.747C773.97 918.721 774.069 918.642 774.094 918.512L807.781 781.334C807.806 781.256 807.781 781.152 807.732 781.074C807.682 780.996 807.608 780.944 807.534 780.918L672.165 752.868C672.041 752.842 671.918 752.894 671.843 752.998C671.769 753.102 671.769 753.258 671.843 753.362L773.525 918.616C773.574 918.694 773.673 918.747 773.797 918.747ZM807.088 781.49L773.673 917.628L672.759 753.649L807.088 781.49Z" fill="#C7C7C7"/>
<path d="M667.388 889.993C667.487 889.993 667.586 889.941 667.66 889.837C667.734 889.707 667.709 889.551 667.61 889.447L546.87 756.978C546.796 756.9 546.672 756.848 546.573 756.9C546.474 756.926 546.375 757.03 546.35 757.134L526.351 849.688C526.326 849.87 526.4 850.026 526.573 850.078L667.313 890.019C667.313 889.993 667.363 889.993 667.388 889.993ZM546.821 757.863L666.398 889.056L527.019 849.506L546.821 757.863Z" fill="#C7C7C7"/>
<path d="M667.387 889.994C667.412 889.994 667.462 889.994 667.486 889.968C667.61 889.916 667.684 889.812 667.684 889.682L672.412 753.18C672.412 753.102 672.387 752.998 672.313 752.946C672.264 752.894 672.189 752.868 672.09 752.842L546.647 756.849C546.523 756.849 546.424 756.927 546.375 757.057C546.325 757.187 546.35 757.317 546.449 757.395L667.189 889.864C667.214 889.968 667.288 889.994 667.387 889.994ZM671.769 753.518L667.09 888.901L547.34 757.499L671.769 753.518Z" fill="#C7C7C7"/>
<path d="M510.088 870.271C510.187 870.271 510.261 870.219 510.311 870.167L526.87 849.949C526.969 849.819 526.969 849.611 526.845 849.507L482.613 806.261C482.514 806.157 482.341 806.157 482.217 806.235C482.094 806.313 482.044 806.496 482.118 806.626L509.791 870.063C509.841 870.167 509.915 870.245 510.039 870.245C510.063 870.271 510.088 870.271 510.088 870.271ZM526.226 849.767L510.187 869.36L483.356 807.875L526.226 849.767Z" fill="#C7C7C7"/>
<path d="M526.646 850.053C526.671 850.053 526.696 850.053 526.745 850.027C526.844 850.001 526.943 849.896 526.943 849.792L546.943 757.239C546.968 757.109 546.918 756.978 546.819 756.9C546.72 756.822 546.572 756.822 546.473 756.9L482.241 806.209C482.167 806.261 482.117 806.365 482.117 806.443C482.117 806.547 482.142 806.625 482.216 806.703L526.448 849.922C526.498 850.027 526.572 850.053 526.646 850.053ZM546.151 757.967L526.448 849.116L482.885 806.547L546.151 757.967Z" fill="#C7C7C7"/>
<path d="M510.091 870.271C510.214 870.271 510.313 870.193 510.363 870.089C510.412 869.959 510.388 869.829 510.313 869.725L397.717 746.103C397.642 746.025 397.519 745.973 397.395 746.025C397.271 746.077 397.197 746.181 397.197 746.285L383.806 860.253C383.806 860.331 383.831 860.435 383.88 860.488C383.93 860.566 384.004 860.592 384.103 860.618L510.091 870.271ZM397.717 747.04L509.323 869.569L384.449 859.993L397.717 747.04Z" fill="#C7C7C7"/>
<path d="M510.087 870.27C510.137 870.27 510.211 870.244 510.261 870.218C510.384 870.14 510.434 869.957 510.36 869.801L482.687 806.364C482.662 806.312 482.637 806.26 482.588 806.234L397.664 746.049C397.54 745.971 397.367 745.971 397.243 746.101C397.144 746.231 397.144 746.414 397.268 746.544L509.865 870.166C509.939 870.218 510.013 870.27 510.087 870.27ZM482.167 806.728L509.048 868.318L399.718 748.261L482.167 806.728Z" fill="#C7C7C7"/>
<path d="M322.965 893.559C323.014 893.559 323.064 893.559 323.113 893.532L384.251 860.565C384.35 860.513 384.399 860.409 384.424 860.305C384.424 860.201 384.399 860.097 384.325 860.018L341.058 822.654C340.984 822.576 340.86 822.575 340.761 822.601C340.662 822.628 340.588 822.732 340.563 822.836L322.692 893.168C322.668 893.298 322.692 893.428 322.791 893.506C322.816 893.532 322.89 893.559 322.965 893.559ZM383.533 860.201L323.435 892.622L341.009 823.486L383.533 860.201Z" fill="#C7C7C7"/>
<path d="M384.101 860.591C384.151 860.591 384.175 860.591 384.225 860.565C384.324 860.513 384.398 860.409 384.423 860.304L397.814 746.336C397.838 746.18 397.764 746.05 397.616 745.998C397.492 745.946 397.343 745.972 397.244 746.102L340.587 822.705C340.488 822.835 340.513 823.044 340.637 823.148L383.903 860.513C383.953 860.565 384.027 860.591 384.101 860.591ZM397.046 747.429L383.854 859.628L341.255 822.835L397.046 747.429Z" fill="#C7C7C7"/>
<path d="M322.963 893.559C323.087 893.559 323.21 893.481 323.26 893.35C323.309 893.22 323.26 893.09 323.161 892.986L201.678 782.921C201.579 782.843 201.455 782.817 201.356 782.869C201.257 782.921 201.183 783.025 201.158 783.155L194.574 890.41C194.574 890.488 194.599 890.592 194.648 890.644C194.698 890.722 194.797 890.748 194.871 890.748L322.963 893.559ZM201.752 783.832L322.097 892.882L195.218 890.098L201.752 783.832Z" fill="#C7C7C7"/>
<path d="M322.962 893.558C322.987 893.558 323.011 893.558 323.061 893.532C323.16 893.506 323.234 893.402 323.259 893.298L341.13 822.966C341.179 822.783 341.08 822.627 340.907 822.575L201.553 782.842C201.405 782.79 201.256 782.868 201.207 782.999C201.132 783.129 201.157 783.311 201.281 783.389L322.764 893.454C322.813 893.532 322.888 893.558 322.962 893.558ZM340.462 823.122L322.789 892.648L202.717 783.857L340.462 823.122Z" fill="#C7C7C7"/>
<path d="M194.896 890.749C194.995 890.749 195.069 890.697 195.144 890.619C195.218 890.515 195.242 890.385 195.193 890.281L141.184 765.488C141.135 765.358 140.986 765.28 140.838 765.306C140.689 765.332 140.59 765.462 140.59 765.618L136.555 875.319C136.555 875.475 136.654 875.605 136.778 875.657L194.822 890.723C194.846 890.749 194.871 890.749 194.896 890.749ZM141.135 767.023L194.351 889.942L137.174 875.085L141.135 767.023Z" fill="#C7C7C7"/>
<path d="M194.896 890.749C194.921 890.749 194.921 890.749 194.946 890.749C195.094 890.723 195.193 890.593 195.193 890.463L201.777 783.207C201.777 783.051 201.703 782.921 201.555 782.869L140.937 765.332C140.813 765.306 140.689 765.332 140.615 765.436C140.541 765.54 140.516 765.67 140.566 765.774L194.574 890.567C194.674 890.671 194.773 890.749 194.896 890.749ZM201.159 783.416L194.674 889.11L141.432 766.138L201.159 783.416Z" fill="#C7C7C7"/>
</g>
</svg>
