<svg width="273" height="272" viewBox="0 0 273 272" fill="none" xmlns="http://www.w3.org/2000/svg">
<path d="M204.344 33.9551H68.4937C49.2483 33.9551 34.5312 48.6722 34.5312 67.9176V203.768C34.5312 223.013 49.2483 237.73 68.4937 237.73H204.344C223.589 237.73 238.306 223.013 238.306 203.768V67.9176C238.306 48.6722 223.589 33.9551 204.344 33.9551ZM136.419 101.88C155.664 101.88 170.381 116.597 170.381 135.843C170.381 155.088 155.664 169.805 136.419 169.805C117.173 169.805 102.456 155.088 102.456 135.843C102.456 116.597 117.173 101.88 136.419 101.88ZM179.438 79.2384C179.438 71.3138 186.23 65.6534 193.023 65.6534C199.815 65.6534 206.608 72.4459 206.608 79.2384C206.608 86.0309 200.947 92.8234 193.023 92.8234C185.098 92.8234 179.438 87.163 179.438 79.2384V79.2384ZM204.344 215.088H68.4937C61.7012 215.088 57.1729 210.56 57.1729 203.768V135.843H79.8146C79.8146 167.541 104.72 192.447 136.419 192.447C168.117 192.447 193.023 167.541 193.023 135.843H215.665V203.768C215.665 210.56 211.136 215.088 204.344 215.088Z" fill="white"/>
</svg>
